<svg width="20" height="20" fill="none" xmlns="http://www.w3.org/2000/svg"><path d="M6.664 3.334v10A1.667 1.667 0 008.331 15h6.666a1.667 1.667 0 001.667-1.666V6.035a1.669 1.669 0 00-.502-1.191L13.4 2.142a1.667 1.667 0 00-1.165-.475H8.33a1.667 1.667 0 00-1.667 1.667v0z" stroke="#136FB6" stroke-linecap="round" stroke-linejoin="round"/><path d="M13.332 15v1.667a1.667 1.667 0 01-1.667 1.667H5a1.667 1.667 0 01-1.667-1.667V7.501A1.667 1.667 0 015 5.834h1.666" stroke="#136FB6" stroke-linecap="round" stroke-linejoin="round"/></svg>