<svg width="20" height="20" fill="none" xmlns="http://www.w3.org/2000/svg"><path d="M10.443 1.433a.625.625 0 00-.886 0l-7.5 7.5a.625.625 0 00-.182.442v8.75a.625.625 0 00.625.625h5.625a.625.625 0 00.625-.625v-5h2.5v5a.625.625 0 00.625.625H17.5a.625.625 0 00.625-.625v-8.75a.626.626 0 00-.183-.442L16.25 7.24V3.125a.625.625 0 00-.625-.625h-1.25a.625.625 0 00-.625.625v1.616l-3.307-3.308zM3.125 17.5V9.634L10 2.759l6.875 6.875V17.5H12.5v-5a.625.625 0 00-.625-.625h-3.75a.625.625 0 00-.625.625v5H3.125z" fill="#136FB6"/></svg>