<svg width="18" height="19" fill="none" xmlns="http://www.w3.org/2000/svg"><g clip-path="url(#clip0_133_17310)" stroke="#136FB6" stroke-width="2" stroke-linecap="round" stroke-linejoin="round"><path d="M3 4.75h12l-1.185 11.258c-.04.387-.215.745-.49 1.005-.275.26-.632.404-1.001.404H5.676c-.37 0-.726-.144-1-.404a1.614 1.614 0 01-.491-1.006L3 4.75zm2.509-2.259a1.56 1.56 0 01.553-.662c.24-.16.52-.246.803-.246h4.27c.284 0 .563.085.803.246.24.16.433.39.554.662L13.5 4.75h-9l1.009-2.26zM1.5 4.75h15m-9 3.958v3.958m3-3.958v3.958"/></g><defs><clipPath id="clip0_133_17310"><path fill="#fff" d="M0 0h18v19H0z"/></clipPath></defs></svg>