<svg width="37" height="37" viewBox="0 0 37 37" fill="none" xmlns="http://www.w3.org/2000/svg">
<g clip-path="url(#clip0_133_17352)">
<path d="M32.375 6.9375C32.9883 6.9375 33.5765 7.18114 34.0102 7.61482C34.4439 8.04849 34.6875 8.63669 34.6875 9.25V27.75C34.6875 28.3633 34.4439 28.9515 34.0102 29.3852C33.5765 29.8189 32.9883 30.0625 32.375 30.0625H4.625C4.01169 30.0625 3.42349 29.8189 2.98982 29.3852C2.55614 28.9515 2.3125 28.3633 2.3125 27.75V9.25C2.3125 8.63669 2.55614 8.04849 2.98982 7.61482C3.42349 7.18114 4.01169 6.9375 4.625 6.9375H32.375ZM4.625 4.625C3.39837 4.625 2.22199 5.11228 1.35463 5.97963C0.487275 6.84699 0 8.02337 0 9.25L0 27.75C0 28.9766 0.487275 30.153 1.35463 31.0204C2.22199 31.8877 3.39837 32.375 4.625 32.375H32.375C33.6016 32.375 34.778 31.8877 35.6454 31.0204C36.5127 30.153 37 28.9766 37 27.75V9.25C37 8.02337 36.5127 6.84699 35.6454 5.97963C34.778 5.11228 33.6016 4.625 32.375 4.625H4.625Z" fill="white"/>
<path d="M4.625 12.7188C4.625 12.4121 4.74682 12.118 4.96366 11.9012C5.1805 11.6843 5.47459 11.5625 5.78125 11.5625H10.4062C10.7129 11.5625 11.007 11.6843 11.2238 11.9012C11.4407 12.118 11.5625 12.4121 11.5625 12.7188V15.0312C11.5625 15.3379 11.4407 15.632 11.2238 15.8488C11.007 16.0657 10.7129 16.1875 10.4062 16.1875H5.78125C5.47459 16.1875 5.1805 16.0657 4.96366 15.8488C4.74682 15.632 4.625 15.3379 4.625 15.0312V12.7188ZM4.625 19.6562C4.625 19.3496 4.74682 19.0555 4.96366 18.8387C5.1805 18.6218 5.47459 18.5 5.78125 18.5H17.3438C17.6504 18.5 17.9445 18.6218 18.1613 18.8387C18.3782 19.0555 18.5 19.3496 18.5 19.6562C18.5 19.9629 18.3782 20.257 18.1613 20.4738C17.9445 20.6907 17.6504 20.8125 17.3438 20.8125H5.78125C5.47459 20.8125 5.1805 20.6907 4.96366 20.4738C4.74682 20.257 4.625 19.9629 4.625 19.6562ZM4.625 24.2812C4.625 23.9746 4.74682 23.6805 4.96366 23.4637C5.1805 23.2468 5.47459 23.125 5.78125 23.125H8.09375C8.40041 23.125 8.6945 23.2468 8.91134 23.4637C9.12818 23.6805 9.25 23.9746 9.25 24.2812C9.25 24.5879 9.12818 24.882 8.91134 25.0988C8.6945 25.3157 8.40041 25.4375 8.09375 25.4375H5.78125C5.47459 25.4375 5.1805 25.3157 4.96366 25.0988C4.74682 24.882 4.625 24.5879 4.625 24.2812ZM11.5625 24.2812C11.5625 23.9746 11.6843 23.6805 11.9012 23.4637C12.118 23.2468 12.4121 23.125 12.7188 23.125H15.0312C15.3379 23.125 15.632 23.2468 15.8488 23.4637C16.0657 23.6805 16.1875 23.9746 16.1875 24.2812C16.1875 24.5879 16.0657 24.882 15.8488 25.0988C15.632 25.3157 15.3379 25.4375 15.0312 25.4375H12.7188C12.4121 25.4375 12.118 25.3157 11.9012 25.0988C11.6843 24.882 11.5625 24.5879 11.5625 24.2812ZM18.5 24.2812C18.5 23.9746 18.6218 23.6805 18.8387 23.4637C19.0555 23.2468 19.3496 23.125 19.6562 23.125H21.9688C22.2754 23.125 22.5695 23.2468 22.7863 23.4637C23.0032 23.6805 23.125 23.9746 23.125 24.2812C23.125 24.5879 23.0032 24.882 22.7863 25.0988C22.5695 25.3157 22.2754 25.4375 21.9688 25.4375H19.6562C19.3496 25.4375 19.0555 25.3157 18.8387 25.0988C18.6218 24.882 18.5 24.5879 18.5 24.2812ZM25.4375 24.2812C25.4375 23.9746 25.5593 23.6805 25.7762 23.4637C25.993 23.2468 26.2871 23.125 26.5938 23.125H28.9062C29.2129 23.125 29.507 23.2468 29.7238 23.4637C29.9407 23.6805 30.0625 23.9746 30.0625 24.2812C30.0625 24.5879 29.9407 24.882 29.7238 25.0988C29.507 25.3157 29.2129 25.4375 28.9062 25.4375H26.5938C26.2871 25.4375 25.993 25.3157 25.7762 25.0988C25.5593 24.882 25.4375 24.5879 25.4375 24.2812Z" fill="white"/>
</g>
<defs>
<clipPath id="clip0_133_17352">
<rect width="37" height="37" fill="white"/>
</clipPath>
</defs>
</svg>
