<svg width="38" height="37" viewBox="0 0 38 37" fill="none" xmlns="http://www.w3.org/2000/svg">
<path d="M18.2168 12.1406C16.959 12.1406 15.7295 12.5136 14.6837 13.2124C13.6379 13.9111 12.8228 14.9043 12.3415 16.0664C11.8602 17.2284 11.7342 18.5071 11.9796 19.7407C12.225 20.9742 12.8307 22.1074 13.72 22.9968C14.6094 23.8861 15.7425 24.4918 16.9761 24.7372C18.2097 24.9826 19.4884 24.8566 20.6504 24.3753C21.8125 23.894 22.8056 23.0789 23.5044 22.0331C24.2032 20.9873 24.5762 19.7578 24.5762 18.5C24.5743 16.814 23.9036 15.1976 22.7114 14.0054C21.5192 12.8132 19.9028 12.1425 18.2168 12.1406ZM18.2168 22.5469C17.4164 22.5469 16.634 22.3095 15.9685 21.8649C15.303 21.4202 14.7843 20.7881 14.478 20.0487C14.1717 19.3092 14.0915 18.4955 14.2477 17.7105C14.4038 16.9255 14.7893 16.2044 15.3552 15.6384C15.9212 15.0725 16.6423 14.687 17.4273 14.5309C18.2123 14.3747 19.026 14.4549 19.7655 14.7612C20.5049 15.0675 21.137 15.5862 21.5817 16.2517C22.0263 16.9172 22.2637 17.6996 22.2637 18.5C22.2625 19.5729 21.8357 20.6016 21.077 21.3602C20.3184 22.1189 19.2897 22.5457 18.2168 22.5469Z" fill="white"/>
<path d="M34.0814 23.2926L31.7855 21.4026C32.1925 19.4889 32.1925 17.5111 31.7855 15.5974L34.0814 13.7074C34.3462 13.4905 34.5251 13.1863 34.5861 12.8495C34.6471 12.5126 34.5861 12.1651 34.4142 11.8691L32.0575 7.78728C31.8871 7.49028 31.6166 7.26368 31.2943 7.14807C30.972 7.03246 30.6191 7.03542 30.2988 7.1564L27.5121 8.20042C26.0605 6.88885 24.3479 5.89904 22.4868 5.29592L21.9978 2.36403C21.9425 2.02614 21.7686 1.71901 21.5074 1.49769C21.2461 1.27637 20.9146 1.15532 20.5722 1.15626H15.8589C15.5165 1.15534 15.185 1.27637 14.9237 1.49768C14.6625 1.71898 14.4886 2.02609 14.4332 2.36396L13.9446 5.29592C12.0834 5.89902 10.3709 6.88884 8.91921 8.20042L6.13229 7.15625C5.812 7.03535 5.45913 7.03245 5.1369 7.14807C4.81467 7.26368 4.54414 7.49026 4.37377 7.7872L2.01712 11.8693C1.84524 12.1653 1.78438 12.5129 1.84542 12.8497C1.90646 13.1866 2.08543 13.4907 2.35026 13.7076L4.64593 15.5974C4.23893 17.5111 4.23893 19.4889 4.64593 21.4026L2.35005 23.2926C2.08525 23.5095 1.90634 23.8137 1.84534 24.1505C1.78433 24.4874 1.84523 24.8349 2.01712 25.131L4.37385 29.2127C4.54423 29.5097 4.8148 29.7363 5.13708 29.8519C5.45936 29.9675 5.81227 29.9646 6.13257 29.8436L8.91928 28.7996C10.3709 30.1112 12.0835 31.101 13.9446 31.7041L14.4333 34.636C14.4887 34.9739 14.6625 35.281 14.9238 35.5023C15.185 35.7236 15.5165 35.8447 15.8589 35.8438H20.5722C20.9146 35.8447 21.2461 35.7237 21.5073 35.5023C21.7686 35.281 21.9425 34.9739 21.9978 34.6361L22.4866 31.7041C24.3477 31.101 26.0603 30.1112 27.5119 28.7996L30.2988 29.8438C30.6191 29.9646 30.9719 29.9675 31.2942 29.8519C31.6164 29.7363 31.8869 29.5097 32.0573 29.2128L34.4138 25.1307C34.5857 24.8348 34.6467 24.4873 34.5858 24.1505C34.5249 23.8137 34.3461 23.5096 34.0814 23.2926ZM30.4221 27.4204L26.9455 26.1179L26.4191 26.6479C24.9706 28.1078 23.1589 29.1549 21.1708 29.6811L20.4481 29.8716L19.8378 33.5313H16.5938L15.9838 29.8716L15.2611 29.6811C13.273 29.1549 11.4613 28.1078 10.0128 26.6479L9.48635 26.1179L6.00914 27.4204L4.38743 24.6109L7.25125 22.2533L7.05613 21.5326C6.51954 19.5465 6.51954 17.4535 7.05613 15.4674L7.25125 14.7467L4.38743 12.3892L6.00951 9.57961L9.48613 10.8821L10.0126 10.3521C11.461 8.89219 13.2728 7.84512 15.2609 7.31892L15.9835 7.12843L16.5935 3.46876H19.8378L20.4479 7.12843L21.1705 7.31892C23.1587 7.84512 24.9704 8.89219 26.4188 10.3521L26.9453 10.8821L30.4219 9.57961L32.0441 12.3891L29.1803 14.7467L29.3754 15.4674C29.912 17.4535 29.912 19.5465 29.3754 21.5326L29.1803 22.2533L32.0441 24.6109L30.4221 27.4204Z" fill="white"/>
</svg>
