<svg width="37" height="37" viewBox="0 0 37 37" fill="none" xmlns="http://www.w3.org/2000/svg">
<g clip-path="url(#clip0_133_17345)">
<path d="M5.05028e-09 8.09375C5.05028e-09 7.17378 0.365457 6.29149 1.01597 5.64097C1.66649 4.99046 2.54878 4.625 3.46875 4.625H24.2812C25.2012 4.625 26.0835 4.99046 26.734 5.64097C27.3845 6.29149 27.75 7.17378 27.75 8.09375V11.5625H30.1088C30.6285 11.563 31.1414 11.6802 31.6097 11.9056C32.078 12.1309 32.4897 12.4586 32.8144 12.8644L36.2392 17.1426C36.732 17.7581 37.0003 18.5232 37 19.3117V24.2813C37 25.2012 36.6345 26.0835 35.984 26.734C35.3335 27.3845 34.4512 27.75 33.5312 27.75H32.375C32.375 28.9766 31.8877 30.153 31.0204 31.0204C30.153 31.8877 28.9766 32.375 27.75 32.375C26.5234 32.375 25.347 31.8877 24.4796 31.0204C23.6123 30.153 23.125 28.9766 23.125 27.75H11.5625C11.5638 28.3665 11.4419 28.977 11.2039 29.5457C10.9659 30.1143 10.6166 30.6297 10.1765 31.0614C9.73644 31.4932 9.21451 31.8326 8.6414 32.0597C8.06828 32.2868 7.45554 32.397 6.8392 32.3839C6.22286 32.3708 5.61537 32.2346 5.05242 31.9834C4.48947 31.7321 3.98244 31.3708 3.56113 30.9208C3.13982 30.4707 2.81273 29.941 2.5991 29.3627C2.38546 28.7845 2.28959 28.1693 2.31712 27.5534C1.63967 27.315 1.05293 26.8722 0.63789 26.286C0.222846 25.6999 -3.87389e-05 24.9994 5.05028e-09 24.2813L5.05028e-09 8.09375ZM2.99238 25.3358C3.41048 24.6512 3.9995 24.0873 4.70154 23.6993C5.40358 23.3114 6.19449 23.1128 6.99653 23.1231C7.79857 23.1333 8.58414 23.3521 9.27602 23.7579C9.96791 24.1637 10.5423 24.7425 10.9427 25.4375H23.7447C24.1515 24.7351 24.7351 24.1515 25.4375 23.7448V8.09375C25.4375 7.78709 25.3157 7.493 25.0988 7.27616C24.882 7.05932 24.5879 6.9375 24.2812 6.9375H3.46875C3.16209 6.9375 2.868 7.05932 2.65116 7.27616C2.43432 7.493 2.3125 7.78709 2.3125 8.09375V24.2813C2.31232 24.5038 2.37637 24.7217 2.49697 24.9087C2.61757 25.0958 2.78959 25.2441 2.99238 25.3358ZM27.75 23.125C28.5618 23.125 29.3594 23.3387 30.0624 23.7447C30.7655 24.1506 31.3493 24.7344 31.7553 25.4375H33.5312C33.8379 25.4375 34.132 25.3157 34.3488 25.0988C34.5657 24.882 34.6875 24.5879 34.6875 24.2813V19.3094C34.687 19.047 34.5973 18.7925 34.4331 18.5879L31.0106 14.3098C30.9025 14.1743 30.7653 14.065 30.6092 13.9897C30.4531 13.9144 30.282 13.8752 30.1088 13.875H27.75V23.125ZM6.9375 25.4375C6.32419 25.4375 5.73599 25.6811 5.30232 26.1148C4.86864 26.5485 4.625 27.1367 4.625 27.75C4.625 28.3633 4.86864 28.9515 5.30232 29.3852C5.73599 29.8189 6.32419 30.0625 6.9375 30.0625C7.55081 30.0625 8.13901 29.8189 8.57268 29.3852C9.00636 28.9515 9.25 28.3633 9.25 27.75C9.25 27.1367 9.00636 26.5485 8.57268 26.1148C8.13901 25.6811 7.55081 25.4375 6.9375 25.4375ZM27.75 25.4375C27.1367 25.4375 26.5485 25.6811 26.1148 26.1148C25.6811 26.5485 25.4375 27.1367 25.4375 27.75C25.4375 28.3633 25.6811 28.9515 26.1148 29.3852C26.5485 29.8189 27.1367 30.0625 27.75 30.0625C28.3633 30.0625 28.9515 29.8189 29.3852 29.3852C29.8189 28.9515 30.0625 28.3633 30.0625 27.75C30.0625 27.1367 29.8189 26.5485 29.3852 26.1148C28.9515 25.6811 28.3633 25.4375 27.75 25.4375Z" fill="white"/>
</g>
<defs>
<clipPath id="clip0_133_17345">
<rect width="37" height="37" fill="white"/>
</clipPath>
</defs>
</svg>
