<svg width="24" height="24" fill="none" xmlns="http://www.w3.org/2000/svg"><g clip-path="url(#clip0_100_2297)"><path d="M20.89 2.326c-3.033 2.624-5.598 5.122-7.947 8.38-1.035 1.438-2.187 3.13-2.94 4.728-.43.847-1.205 2.17-1.469 3.443-1.445-1.344-2.996-2.87-4.584-4.065-1.132-.851-4.391.885-3.064 1.883 2.378 1.789 4.355 4.017 6.668 5.885.968.78 3.112-.915 3.615-1.626 1.654-2.343 1.88-5.207 3.086-7.763 1.84-3.909 5.104-7.12 8.326-9.908 2.136-1.992-.07-2.359-1.689-.957" fill="#136FB6"/></g><defs><clipPath id="clip0_100_2297"><path fill="#fff" transform="translate(.5 .5)" d="M0 0h23v23H0z"/></clipPath></defs></svg>