<svg width="189" height="83" fill="none" xmlns="http://www.w3.org/2000/svg"><path fill-rule="evenodd" clip-rule="evenodd" d="M136.655 2.472C135.745 3.478 135 5.695 135 7.4v3.099l14.85.322c10.725.233 15.308.703 16.5 1.694 1.417 1.179 1.65 3.818 1.65 18.694 0 21.08.428 20.434-13.531 20.434-10.931 0-13.592-1.24-11.678-5.441.955-2.096 9.305-13.702 17.489-24.31.761-.984-1.803-1.25-12.113-1.25H135.09l-6.05 7.948c-9.527 12.515-9.591 13.477-1.602 23.765 7.344 9.457 8.277 9.788 27.562 9.788 16.081 0 16.646-.072 22.251-2.824 4.462-2.191 6.368-3.873 8.5-7.5 2.59-4.405 2.769-5.498 3.092-18.883.323-13.375.198-14.524-2.129-19.607-2.616-5.714-6.898-9.634-12.613-11.548-1.984-.664-10.146-1.138-19.595-1.138-14.42 0-16.377.2-17.851 1.829zM2.223 22.2C.565 23.36 0 24.758 0 27.7v3.943h10v51h21v-51h11.8c17.6 0 17.842.81 5.2 17.445-4.95 6.513-9 12.227-9 12.698 0 .472 5.593.857 12.428.857h12.428l5.675-7.25c3.122-3.987 6.401-8.741 7.287-10.563 1.534-3.151 1.502-3.52-.642-7.562-3.747-7.063-10.829-14.434-14.974-15.586-2.105-.584-15.146-1.03-30.229-1.033-22.398-.005-26.874.236-28.75 1.55zm84.989 18.193c-8.155 10.862-15.165 20.313-15.578 21-.586.974 2.101 1.25 12.184 1.25h12.936l13.292-17.75c7.311-9.763 14.394-19.212 15.742-21l2.449-3.25h-26.199l-14.826 19.75z" fill="#fff"/></svg>