<svg width="315" height="126" fill="none" xmlns="http://www.w3.org/2000/svg"><path fill-rule="evenodd" clip-rule="evenodd" d="M83.274 9.896c-3.16 5.677-8.54 15.271-11.956 21.321-3.416 6.05-8.811 15.64-11.99 21.31-4.209 7.51-6.079 10.011-6.881 9.21-.803-.804-.776-1.305.099-1.846.66-.408 2.346-3.332 3.746-6.497 1.4-3.166 5.853-12.375 9.896-20.466 10.43-20.875 10.286-22.33-.366-3.71-11.8 20.624-13.984 24.934-14.041 27.716-.026 1.256-1.17-1.204-2.542-5.467-1.372-4.263-2.836-7.75-3.252-7.75-.417 0-3.209 5.446-6.205 12.102l-5.447 12.102-1.429-4.602c-.786-2.53-1.725-4.602-2.086-4.602-.361 0-4.082 7.537-8.269 16.75a6306.451 6306.451 0 01-15.197 33.137c-4.171 9.013-7.453 16.519-7.292 16.68.161.161 6.331-10.138 13.71-22.887 12.274-21.205 17.056-28.884 17.056-27.389 0 .31-3.369 7.875-7.488 16.814-4.118 8.939-7.333 16.408-7.143 16.597.189.189 3.635-5.322 7.657-12.246l7.313-12.59 1.748 5.652c.962 3.108 2.007 5.91 2.323 6.225.316.316 3.196-4.978 6.401-11.765l5.828-12.339 1.31 4.68c.721 2.575 1.654 4.681 2.072 4.681.419 0 1.446-1.687 2.283-3.75 1.946-4.8 27.433-58.243 32.733-68.637C88.077 3.991 89.692.247 89.453.01c-.238-.239-3.019 4.21-6.179 9.886zM36.592 29.817C15.385 32.867-1.458 54.49.1 76.667c.528 7.511 3.578 17.24 6.267 19.987 1.215 1.241 1.734.698 3.822-4 4.623-10.402 20.828-45.439 21.187-45.809.199-.204.886 1.708 1.526 4.25s1.462 4.622 1.826 4.622c.364 0 3.115-5.37 6.112-11.936 3.282-7.188 5.75-11.464 6.204-10.75.415.653 1.453 3.564 2.307 6.471.854 2.907 1.957 5.036 2.45 4.731 1.006-.62 7.027-11.446 7.027-12.632 0-.703-4.294-1.456-13-2.278-1.925-.182-6.081.04-9.236.494zm27.95 32.976C58.87 74.576 53.401 86.117 52.389 88.44c-2.104 4.828-3.057 4.778-3.993-.212-.362-1.93-.985-3.51-1.383-3.51-.399 0-3.354 5.28-6.566 11.733l-5.841 11.733-2.188-6.983-2.189-6.984-4.344 7.5a1909.703 1909.703 0 00-4.787 8.294c-1.452 2.605 8.811 6.814 19.73 8.092 15.465 1.809 31.804-5.851 40.534-19.004 5.765-8.684 7.696-15.99 7.266-27.494-.324-8.668-.719-10.338-4.012-17-2.009-4.063-5.027-8.704-6.707-10.312l-3.054-2.924-10.313 21.424zm48.155-17.952c-1.997.56-4.922 2.365-6.5 4.01l-2.869 2.992-.282 17.687c-.245 15.352-.047 18.15 1.5 21.187 4.51 8.858 21.433 9.476 27.4 1 1-1.42 2.052-5.413 2.437-9.25l.678-6.75h-14.138l-.297 6.24c-.239 5.006-.644 6.306-2.048 6.573-1.613.308-1.75-1.046-1.75-17.313s.137-17.62 1.75-17.313c1.424.271 1.805 1.59 2.046 7.073l.295 6.74h14.196l-.658-7.077c-.779-8.39-2.593-12.336-6.629-14.423-3.923-2.028-10.631-2.639-15.131-1.376zM215.828 70.62v26.19l6.75-.296 6.75-.296.285-10.25.285-10.25h3.918c8.434 0 11.012-3.394 11.012-14.5 0-13.066-2.734-15.447-18.676-16.26l-10.324-.527v26.19zm38.255-24.844c-4.165 1.28-6.167 4.407-6.926 10.816l-.608 5.126h14.279v-4c0-2.889.417-4 1.5-4 1.167 0 1.5 1.333 1.5 6v6h-3.5c-3.417 0-3.5.095-3.5 4s.083 4 3.5 4h3.5v7.5c0 6-.3 7.5-1.5 7.5-1.152 0-1.5-1.278-1.5-5.5v-5.5h-6.441c-3.543 0-6.732.471-7.087 1.046-.356.575-.326 3.377.065 6.225.552 4.012 1.474 5.94 4.093 8.56 3.355 3.354 3.443 3.377 11.299 3.021 13.241-.602 15.091-3.849 15.009-26.352-.056-15.403-1.028-19.767-5.068-22.762-3.084-2.286-13.565-3.232-18.615-1.68zm28.412-.39c-.367.365-.667 12.065-.667 26v25.332h14v-10.5c0-8.308.291-10.5 1.393-10.5 2.021 0 2.607 2.282 2.607 10.148 0 9.905.711 10.852 8.152 10.852 5.818 0 6.055-.097 5.478-2.25-.331-1.237-.609-5.772-.616-10.077-.013-7.21-.232-8.045-2.784-10.597l-2.77-2.77 2.77-2.538c2.601-2.383 2.771-3.048 2.784-10.903.007-4.6.285-9.378.616-10.615.577-2.153.34-2.25-5.478-2.25-7.457 0-8.152.937-8.152 11 0 6.982-1.109 11-3.035 11-.561 0-.965-4.6-.965-11v-11h-6.333c-3.484 0-6.634.3-7 .667zM145.328 54.67c-4.049 1.675-6.77 5.796-7.271 11.013l-.483 5.033h12.254l.015-3.25c.009-1.787.408-3.87.889-4.628 1.402-2.214 3.096-.299 3.096 3.5 0 3.337-.304 3.641-6.388 6.4-8.832 4.004-9.612 4.98-9.612 12.002 0 7.977 1.417 10.721 6.291 12.181 3.343 1.002 4.409.93 6.835-.462 1.581-.908 2.874-1.22 2.874-.696s2.925.953 6.5.953h6.5l-.015-17.25c-.016-19.255-.514-21.248-5.999-23.998-3.642-1.827-11.962-2.256-15.486-.798zm25.5 21.046v21h12l.107-10.75.106-10.75 2.171 10.5 2.17 10.5 3.641.305 3.64.306 1.089-5.306c.599-2.918 1.709-8.455 2.466-12.305l1.377-7 .116 12.25.117 12.25h11v-42.08l-8.25.29-8.25.29-1.553 10-1.553 10-1.131-5c-.622-2.75-1.444-7.362-1.826-10.25l-.695-5.25h-16.742v21zm61.5-15c0 3.378-.458 5.486-1.25 5.75-.91.303-1.25-1.26-1.25-5.75 0-4.489.34-6.053 1.25-5.75.792.264 1.25 2.372 1.25 5.75zm-185.996 8.83c-.277.277-.504-.022-.504-.663 0-2.53-1.707-.915-4.51 4.268-2.159 3.991-3.263 5.168-4.153 4.43-.878-.729-1.651-.158-2.8 2.064-.874 1.69-1.828 3.071-2.122 3.071-.637 0-1.079.82 6.134-11.37l5.84-9.869 1.31 3.782c.72 2.08 1.082 4.01.805 4.286zM152.844 89.1c-2.957 2.957-3.725-6.607-.814-10.137 1.104-1.34 1.344-.783 1.605 3.732.171 2.948-.181 5.795-.791 6.405zm-48.266 15.696c-2.177 1.268-2.297 3.92-.179 3.92 1.928 0 4.44 2.386 4.399 4.179-.02.831-.409.673-1.05-.429-1.182-2.029-4.92-2.371-4.92-.45 0 2.234 2.268 3.7 5.725 3.7 2.695 0 3.52-.513 4.355-2.711 1.137-2.989.414-7.354-1.409-8.514-1.64-1.043-4.85-.901-6.921.305zm16.917-.413c-.367.366-.667 3.066-.667 6 0 4.983.16 5.333 2.434 5.333 1.887 0 2.527-.617 2.85-2.75l.416-2.75.15 2.75c.121 2.227.626 2.75 2.65 2.75 1.942 0 2.5-.513 2.5-2.3 0-1.265-.54-2.84-1.2-3.5-.933-.933-.933-1.2 0-1.2.66 0 1.2-1.125 1.2-2.5 0-3.426-4.64-3.645-5.294-.25l-.434 2.25-.136-2.25c-.132-2.176-2.897-3.156-4.469-1.583zm19.522.195c-.868.55-1.206 2.489-1 5.735.301 4.747.416 4.913 3.626 5.221 3.51.337 6.185-1.151 6.185-3.44 0-.758-.9-1.378-2-1.378s-2 .45-2 1-.45 1-1 1-.964-1.463-.921-3.25c.043-1.787.306-2.687.583-2 .669 1.658 5.338 1.614 5.338-.05 0-3.152-5.515-4.928-8.811-2.838zm16.811 5.086c0 5.753.121 6.052 2.445 6.052 2.198 0 2.483-.48 2.82-4.75l.375-4.75.18 4.75c.166 4.378.38 4.75 2.73 4.75 2.472 0 2.541-.175 2.25-5.75l-.3-5.75-5.25-.302-5.25-.303v6.053zm19-1.53c0 2.43-.287 5.166-.638 6.08-.518 1.35-.097 1.6 2.25 1.332 2.599-.297 2.948-.78 3.488-4.83l.6-4.5.15 4.75c.138 4.36.355 4.75 2.65 4.75 2.389 0 2.5-.267 2.5-6v-6h-11v4.418zm18.012-4.168c.006.138.64 2.611 1.409 5.497.806 3.03 1.013 5.485.488 5.809-1.831 1.132-.836 2.444 1.841 2.429 4.266-.024 5.223-1.178 6.268-7.559.534-3.259.973-6.038.976-6.176.003-.138-1.088-.25-2.424-.25-1.726 0-2.557.653-2.864 2.25l-.434 2.25-.136-2.25c-.103-1.697-.75-2.25-2.636-2.25-1.375 0-2.495.112-2.488.25zm19.188.95c-1.46 1.46-1.578 3.8-.192 3.8.622 0 .562.716-.157 1.868-2.055 3.289-.396 5.132 4.618 5.132h4.531v-5.393c0-3.995-.41-5.55-1.582-6-2.549-.978-5.924-.701-7.218.593zm16.8.3c0 .825.45 1.5 1 1.5s1 2.025 1 4.5c0 4.133.204 4.5 2.5 4.5 2.287 0 2.5-.374 2.5-4.393 0-3.062.474-4.575 1.563-4.993 2.823-1.083.408-2.614-4.122-2.614-3.281 0-4.441.392-4.441 1.5zm18.25-.838c-.687.278-1.25 1.33-1.25 2.338s.563 2.06 1.25 2.338c1 .403 1 .52 0 .583-.705.045-1.25 1.388-1.25 3.079 0 2.933.111 3 5 3h5v-4.8c0-2.64-.54-5.34-1.2-6-1.201-1.201-5.2-1.486-7.55-.538zm16.75 5.338v6h4c2.2 0 4 .45 4 1s.959 1 2.131 1c1.906 0 2.065-.396 1.511-3.75-.341-2.062-.625-5.213-.631-7-.009-2.778-.366-3.25-2.456-3.25-2.198 0-2.483.48-2.82 4.75l-.375 4.75-.18-4.75c-.165-4.352-.39-4.75-2.68-4.75-2.389 0-2.5.267-2.5 6zm19 0c0 5.701.122 6 2.45 6 1.348 0 2.909-.787 3.47-1.75.971-1.667 1.021-1.667 1.05 0 .02 1.192.827 1.75 2.53 1.75 2.389 0 2.5-.267 2.5-6 0-5.629-.145-6-2.347-6-1.446 0-2.764.864-3.433 2.25l-1.085 2.25-.067-2.25c-.052-1.715-.662-2.25-2.568-2.25-2.389 0-2.5.267-2.5 6zm21.347-5.235c-.634.404-1.17 3.097-1.192 5.985-.035 4.479.235 5.25 1.833 5.25 1.147 0 2.041-.872 2.306-2.25l.434-2.25.136 2.25c.103 1.697.75 2.25 2.636 2.25 2.389 0 2.5-.267 2.5-6v-6l-3.75.015c-2.062.009-4.269.346-4.903.75zm-53.664 8.423c-.319.797-.556.56-.604-.605-.043-1.054.193-1.644.525-1.312.332.332.368 1.195.079 1.917z" fill="#fff"/></svg>