<svg width="189" height="83" viewBox="0 0 189 83" fill="none" xmlns="http://www.w3.org/2000/svg">
<path fill-rule="evenodd" clip-rule="evenodd" d="M136.655 2.47158C135.745 3.47758 135 5.69458 135 7.39958V10.4986L149.85 10.8206C160.575 11.0536 165.158 11.5236 166.35 12.5146C167.767 13.6936 168 16.3326 168 31.2086C168 52.2886 168.428 51.6426 154.469 51.6426C143.538 51.6426 140.877 50.4026 142.791 46.2016C143.746 44.1056 152.096 32.4996 160.28 21.8926C161.041 20.9076 158.477 20.6426 148.167 20.6426H135.09L129.04 28.5896C119.513 41.1046 119.449 42.0666 127.438 52.3546C134.782 61.8116 135.715 62.1426 155 62.1426C171.081 62.1426 171.646 62.0706 177.251 59.3186C181.713 57.1276 183.619 55.4456 185.751 51.8186C188.341 47.4136 188.52 46.3206 188.843 32.9356C189.166 19.5606 189.041 18.4116 186.714 13.3286C184.098 7.61458 179.816 3.69458 174.101 1.78058C172.117 1.11658 163.955 0.642578 154.506 0.642578C140.086 0.642578 138.129 0.842578 136.655 2.47158ZM2.223 22.1996C0.565 23.3606 0 24.7576 0 27.6996V31.6426H5H10V57.1426V82.6426H20.5H31V57.1426V31.6426H42.8C60.4 31.6426 60.642 32.4536 48 49.0876C43.05 55.6006 39 61.3146 39 61.7856C39 62.2576 44.593 62.6426 51.428 62.6426H63.856L69.531 55.3926C72.653 51.4056 75.932 46.6516 76.818 44.8296C78.352 41.6786 78.32 41.3106 76.176 37.2676C72.429 30.2046 65.347 22.8336 61.202 21.6816C59.097 21.0976 46.056 20.6516 30.973 20.6486C8.575 20.6436 4.099 20.8846 2.223 22.1996ZM87.212 40.3926C79.057 51.2546 72.047 60.7056 71.634 61.3926C71.048 62.3666 73.735 62.6426 83.818 62.6426H96.754L110.046 44.8926C117.357 35.1296 124.44 25.6806 125.788 23.8926L128.237 20.6426H115.138H102.038L87.212 40.3926Z" fill="white"/>
</svg>
