<svg width="315" height="126" viewBox="0 0 315 126" fill="none" xmlns="http://www.w3.org/2000/svg">
<path fill-rule="evenodd" clip-rule="evenodd" d="M83.274 9.89612C80.114 15.5731 74.734 25.1671 71.318 31.2171C67.902 37.2671 62.507 46.8571 59.328 52.5271C55.119 60.0371 53.249 62.5381 52.447 61.7361C51.644 60.9331 51.671 60.4321 52.546 59.8911C53.206 59.4831 54.892 56.5591 56.292 53.3941C57.692 50.2281 62.145 41.0191 66.188 32.9281C76.618 12.0531 76.474 10.5971 65.822 29.2171C54.022 49.8421 51.838 54.1521 51.781 56.9341C51.755 58.1901 50.611 55.7301 49.239 51.4671C47.867 47.2041 46.403 43.7171 45.987 43.7171C45.57 43.7171 42.778 49.1631 39.782 55.8191L34.335 67.9211L32.906 63.3191C32.12 60.7881 31.181 58.7171 30.82 58.7171C30.459 58.7171 26.738 66.2541 22.551 75.4671C18.365 84.6791 11.526 99.5911 7.35403 108.604C3.18303 117.617 -0.0989722 125.123 0.0620278 125.284C0.223028 125.445 6.39303 115.146 13.772 102.397C26.046 81.1921 30.828 73.5131 30.828 75.0081C30.828 75.3171 27.459 82.8831 23.34 91.8221C19.222 100.761 16.007 108.23 16.197 108.419C16.386 108.608 19.832 103.097 23.854 96.1731L31.167 83.5831L32.915 89.2351C33.877 92.3431 34.922 95.1451 35.238 95.4601C35.554 95.7761 38.434 90.4821 41.639 83.6951L47.467 71.3561L48.777 76.0361C49.498 78.6111 50.431 80.7171 50.849 80.7171C51.268 80.7171 52.295 79.0301 53.132 76.9671C55.078 72.1661 80.565 18.7241 85.865 8.33012C88.077 3.99112 89.692 0.247121 89.453 0.00912145C89.215 -0.228879 86.434 4.22012 83.274 9.89612ZM36.592 29.8171C15.385 32.8661 -1.45797 54.4901 0.100028 76.6671C0.628028 84.1781 3.67803 93.9071 6.36703 96.6541C7.58203 97.8951 8.10103 97.3521 10.189 92.6541C14.812 82.2521 31.017 47.2151 31.376 46.8451C31.575 46.6411 32.262 48.5531 32.902 51.0951C33.542 53.6371 34.364 55.7171 34.728 55.7171C35.092 55.7171 37.843 50.3461 40.84 43.7811C44.122 36.5931 46.59 32.3171 47.044 33.0311C47.459 33.6841 48.497 36.5951 49.351 39.5021C50.205 42.4091 51.308 44.5381 51.801 44.2331C52.807 43.6121 58.828 32.7871 58.828 31.6011C58.828 30.8981 54.534 30.1451 45.828 29.3231C43.903 29.1411 39.747 29.3631 36.592 29.8171ZM64.542 62.7931C58.87 74.5761 53.401 86.1171 52.389 88.4401C50.285 93.2681 49.332 93.2181 48.396 88.2281C48.034 86.2971 47.411 84.7171 47.013 84.7171C46.614 84.7171 43.659 89.9971 40.447 96.4511L34.606 108.184L32.418 101.201L30.229 94.2171L25.885 101.717C23.496 105.842 21.342 109.574 21.098 110.011C19.646 112.616 29.909 116.825 40.828 118.103C56.293 119.912 72.632 112.252 81.362 99.0991C87.127 90.4151 89.058 83.1081 88.628 71.6051C88.304 62.9371 87.909 61.2671 84.616 54.6051C82.607 50.5421 79.589 45.9011 77.909 44.2931L74.855 41.3691L64.542 62.7931ZM112.697 44.8411C110.7 45.4011 107.775 47.2061 106.197 48.8511L103.328 51.8431L103.046 69.5301C102.801 84.8821 102.999 87.6791 104.546 90.7171C109.056 99.5751 125.979 100.193 131.946 91.7171C132.946 90.2961 133.998 86.3041 134.383 82.4671L135.061 75.7171H127.992H120.923L120.626 81.9571C120.387 86.9631 119.982 88.2631 118.578 88.5301C116.965 88.8381 116.828 87.4841 116.828 71.2171C116.828 54.9501 116.965 53.5961 118.578 53.9041C120.002 54.1751 120.383 55.4941 120.624 60.9771L120.919 67.7171H128.017H135.115L134.457 60.6401C133.678 52.2501 131.864 48.3041 127.828 46.2171C123.905 44.1891 117.197 43.5781 112.697 44.8411ZM215.828 70.6191V96.8081L222.578 96.5131L229.328 96.2171L229.613 85.9671L229.898 75.7171H233.816C242.25 75.7171 244.828 72.3231 244.828 61.2171C244.828 48.1511 242.094 45.7701 226.152 44.9571L215.828 44.4301V70.6191ZM254.083 45.7751C249.918 47.0541 247.916 50.1821 247.157 56.5911L246.549 61.7171H253.689H260.828V57.7171C260.828 54.8281 261.245 53.7171 262.328 53.7171C263.495 53.7171 263.828 55.0501 263.828 59.7171V65.7171H260.328C256.911 65.7171 256.828 65.8121 256.828 69.7171C256.828 73.6221 256.911 73.7171 260.328 73.7171H263.828V81.2171C263.828 87.2171 263.528 88.7171 262.328 88.7171C261.176 88.7171 260.828 87.4391 260.828 83.2171V77.7171H254.387C250.844 77.7171 247.655 78.1881 247.3 78.7631C246.944 79.3381 246.974 82.1401 247.365 84.9881C247.917 89.0001 248.839 90.9281 251.458 93.5471C254.813 96.9021 254.901 96.9251 262.757 96.5691C275.998 95.9671 277.848 92.7201 277.766 70.2171C277.71 54.8141 276.738 50.4501 272.698 47.4551C269.614 45.1691 259.133 44.2231 254.083 45.7751ZM282.495 45.3841C282.128 45.7501 281.828 57.4501 281.828 71.3841V96.7171H288.828H295.828V86.2171C295.828 77.9091 296.119 75.7171 297.221 75.7171C299.242 75.7171 299.828 77.9991 299.828 85.8651C299.828 95.7701 300.539 96.7171 307.98 96.7171C313.798 96.7171 314.035 96.6201 313.458 94.4671C313.127 93.2301 312.849 88.6951 312.842 84.3901C312.829 77.1801 312.61 76.3451 310.058 73.7931L307.288 71.0231L310.058 68.4851C312.659 66.1021 312.829 65.4371 312.842 57.5821C312.849 52.9811 313.127 48.2041 313.458 46.9671C314.035 44.8141 313.798 44.7171 307.98 44.7171C300.523 44.7171 299.828 45.6541 299.828 55.7171C299.828 62.6991 298.719 66.7171 296.793 66.7171C296.232 66.7171 295.828 62.1161 295.828 55.7171V44.7171H289.495C286.011 44.7171 282.861 45.0171 282.495 45.3841ZM145.328 54.6711C141.279 56.3461 138.558 60.4671 138.057 65.6841L137.574 70.7171H143.701H149.828L149.843 67.4671C149.852 65.6801 150.251 63.5971 150.732 62.8391C152.134 60.6251 153.828 62.5401 153.828 66.3391C153.828 69.6761 153.524 69.9801 147.44 72.7391C138.608 76.7431 137.828 77.7181 137.828 84.7411C137.828 92.7181 139.245 95.4621 144.119 96.9221C147.462 97.9241 148.528 97.8521 150.954 96.4601C152.535 95.5521 153.828 95.2391 153.828 95.7641C153.828 96.2881 156.753 96.7171 160.328 96.7171H166.828L166.813 79.4671C166.797 60.2121 166.299 58.2191 160.814 55.4691C157.172 53.6421 148.852 53.2131 145.328 54.6711ZM170.828 75.7171V96.7171H176.828H182.828L182.935 85.9671L183.041 75.2171L185.212 85.7171L187.382 96.2171L191.023 96.5221L194.663 96.8281L195.752 91.5221C196.351 88.6041 197.461 83.0671 198.218 79.2171L199.595 72.2171L199.711 84.4671L199.828 96.7171H205.328H210.828V75.6771V54.6361L202.578 54.9271L194.328 55.2171L192.775 65.2171L191.222 75.2171L190.091 70.2171C189.469 67.4671 188.647 62.8551 188.265 59.9671L187.57 54.7171H179.199H170.828V75.7171ZM232.328 60.7171C232.328 64.0951 231.87 66.2031 231.078 66.4671C230.168 66.7701 229.828 65.2061 229.828 60.7171C229.828 56.2281 230.168 54.6641 231.078 54.9671C231.87 55.2311 232.328 57.3391 232.328 60.7171ZM46.332 69.5461C46.055 69.8241 45.828 69.5251 45.828 68.8841C45.828 66.3541 44.121 67.9691 41.318 73.1521C39.159 77.1431 38.055 78.3201 37.165 77.5821C36.287 76.8531 35.514 77.4241 34.365 79.6461C33.491 81.3351 32.537 82.7171 32.243 82.7171C31.606 82.7171 31.164 83.5371 38.377 71.3471L44.217 61.4781L45.527 65.2601C46.247 67.3401 46.609 69.2691 46.332 69.5461ZM152.844 89.1011C149.887 92.0581 149.119 82.4941 152.03 78.9641C153.134 77.6241 153.374 78.1811 153.635 82.6961C153.806 85.6441 153.454 88.4911 152.844 89.1011ZM104.578 104.797C102.401 106.065 102.281 108.717 104.399 108.717C106.327 108.717 108.839 111.103 108.798 112.896C108.778 113.727 108.389 113.569 107.748 112.467C106.566 110.438 102.828 110.096 102.828 112.017C102.828 114.251 105.096 115.717 108.553 115.717C111.248 115.717 112.073 115.204 112.908 113.006C114.045 110.017 113.322 105.652 111.499 104.492C109.859 103.449 106.649 103.591 104.578 104.797ZM121.495 104.384C121.128 104.75 120.828 107.45 120.828 110.384C120.828 115.367 120.988 115.717 123.262 115.717C125.149 115.717 125.789 115.1 126.112 112.967L126.528 110.217L126.678 112.967C126.799 115.194 127.304 115.717 129.328 115.717C131.27 115.717 131.828 115.204 131.828 113.417C131.828 112.152 131.288 110.577 130.628 109.917C129.695 108.984 129.695 108.717 130.628 108.717C131.288 108.717 131.828 107.592 131.828 106.217C131.828 102.791 127.188 102.572 126.534 105.967L126.1 108.217L125.964 105.967C125.832 103.791 123.067 102.811 121.495 104.384ZM141.017 104.579C140.149 105.129 139.811 107.068 140.017 110.314C140.318 115.061 140.433 115.227 143.643 115.535C147.153 115.872 149.828 114.384 149.828 112.095C149.828 111.337 148.928 110.717 147.828 110.717C146.728 110.717 145.828 111.167 145.828 111.717C145.828 112.267 145.378 112.717 144.828 112.717C144.278 112.717 143.864 111.254 143.907 109.467C143.95 107.68 144.213 106.78 144.49 107.467C145.159 109.125 149.828 109.081 149.828 107.417C149.828 104.265 144.313 102.489 141.017 104.579ZM157.828 109.665C157.828 115.418 157.949 115.717 160.273 115.717C162.471 115.717 162.756 115.237 163.093 110.967L163.468 106.217L163.648 110.967C163.814 115.345 164.028 115.717 166.378 115.717C168.85 115.717 168.919 115.542 168.628 109.967L168.328 104.217L163.078 103.915L157.828 103.612V109.665ZM176.828 108.135C176.828 110.565 176.541 113.301 176.19 114.215C175.672 115.565 176.093 115.815 178.44 115.547C181.039 115.25 181.388 114.767 181.928 110.717L182.528 106.217L182.678 110.967C182.816 115.327 183.033 115.717 185.328 115.717C187.717 115.717 187.828 115.45 187.828 109.717V103.717H182.328H176.828V108.135ZM194.84 103.967C194.846 104.105 195.48 106.578 196.249 109.464C197.055 112.494 197.262 114.949 196.737 115.273C194.906 116.405 195.901 117.717 198.578 117.702C202.844 117.678 203.801 116.524 204.846 110.143C205.38 106.884 205.819 104.105 205.822 103.967C205.825 103.829 204.734 103.717 203.398 103.717C201.672 103.717 200.841 104.37 200.534 105.967L200.1 108.217L199.964 105.967C199.861 104.27 199.214 103.717 197.328 103.717C195.953 103.717 194.833 103.829 194.84 103.967ZM214.028 104.917C212.568 106.377 212.45 108.717 213.836 108.717C214.458 108.717 214.398 109.433 213.679 110.585C211.624 113.874 213.283 115.717 218.297 115.717H222.828V110.324C222.828 106.329 222.418 104.774 221.246 104.324C218.697 103.346 215.322 103.623 214.028 104.917ZM230.828 105.217C230.828 106.042 231.278 106.717 231.828 106.717C232.378 106.717 232.828 108.742 232.828 111.217C232.828 115.35 233.032 115.717 235.328 115.717C237.615 115.717 237.828 115.343 237.828 111.324C237.828 108.262 238.302 106.749 239.391 106.331C242.214 105.248 239.799 103.717 235.269 103.717C231.988 103.717 230.828 104.109 230.828 105.217ZM249.078 104.379C248.391 104.657 247.828 105.709 247.828 106.717C247.828 107.725 248.391 108.777 249.078 109.055C250.078 109.458 250.078 109.575 249.078 109.638C248.373 109.683 247.828 111.026 247.828 112.717C247.828 115.65 247.939 115.717 252.828 115.717H257.828V110.917C257.828 108.277 257.288 105.577 256.628 104.917C255.427 103.716 251.428 103.431 249.078 104.379ZM265.828 109.717V115.717H269.828C272.028 115.717 273.828 116.167 273.828 116.717C273.828 117.267 274.787 117.717 275.959 117.717C277.865 117.717 278.024 117.321 277.47 113.967C277.129 111.905 276.845 108.754 276.839 106.967C276.83 104.189 276.473 103.717 274.383 103.717C272.185 103.717 271.9 104.197 271.563 108.467L271.188 113.217L271.008 108.467C270.843 104.115 270.618 103.717 268.328 103.717C265.939 103.717 265.828 103.984 265.828 109.717ZM284.828 109.717C284.828 115.418 284.95 115.717 287.278 115.717C288.626 115.717 290.187 114.93 290.748 113.967C291.719 112.3 291.769 112.3 291.798 113.967C291.818 115.159 292.625 115.717 294.328 115.717C296.717 115.717 296.828 115.45 296.828 109.717C296.828 104.088 296.683 103.717 294.481 103.717C293.035 103.717 291.717 104.581 291.048 105.967L289.963 108.217L289.896 105.967C289.844 104.252 289.234 103.717 287.328 103.717C284.939 103.717 284.828 103.984 284.828 109.717ZM306.175 104.482C305.541 104.886 305.005 107.579 304.983 110.467C304.948 114.946 305.218 115.717 306.816 115.717C307.963 115.717 308.857 114.845 309.122 113.467L309.556 111.217L309.692 113.467C309.795 115.164 310.442 115.717 312.328 115.717C314.717 115.717 314.828 115.45 314.828 109.717V103.717L311.078 103.732C309.016 103.741 306.809 104.078 306.175 104.482ZM252.511 112.905C252.192 113.702 251.955 113.465 251.907 112.3C251.864 111.246 252.1 110.656 252.432 110.988C252.764 111.32 252.8 112.183 252.511 112.905Z" fill="white"/>
</svg>
