<svg width="37" height="37" fill="none" xmlns="http://www.w3.org/2000/svg"><g clip-path="url(#clip0_133_17352)" fill="#fff"><path d="M32.375 6.938a2.313 2.313 0 012.313 2.312v18.5a2.312 2.312 0 01-2.313 2.313H4.625a2.312 2.312 0 01-2.313-2.313V9.25a2.312 2.312 0 012.313-2.313h27.75zM4.625 4.624A4.625 4.625 0 000 9.25v18.5a4.625 4.625 0 004.625 4.625h27.75A4.625 4.625 0 0037 27.75V9.25a4.625 4.625 0 00-4.625-4.625H4.625z"/><path d="M4.625 12.719a1.156 1.156 0 011.156-1.156h4.625a1.156 1.156 0 011.156 1.156v2.312a1.156 1.156 0 01-1.156 1.156H5.781a1.156 1.156 0 01-1.156-1.156V12.72zm0 6.937A1.156 1.156 0 015.781 18.5h11.563a1.156 1.156 0 110 2.313H5.78a1.156 1.156 0 01-1.156-1.157zm0 4.625a1.156 1.156 0 011.156-1.156h2.313a1.156 1.156 0 110 2.313H5.78a1.156 1.156 0 01-1.156-1.157zm6.938 0a1.156 1.156 0 011.156-1.156h2.312a1.156 1.156 0 110 2.313H12.72a1.156 1.156 0 01-1.156-1.157zm6.937 0a1.156 1.156 0 011.156-1.156h2.313a1.156 1.156 0 110 2.313h-2.313A1.156 1.156 0 0118.5 24.28zm6.938 0a1.156 1.156 0 011.156-1.156h2.312a1.156 1.156 0 110 2.313h-2.312a1.156 1.156 0 01-1.157-1.157z"/></g><defs><clipPath id="clip0_133_17352"><path fill="#fff" d="M0 0h37v37H0z"/></clipPath></defs></svg>