<svg width="38" height="37" fill="none" xmlns="http://www.w3.org/2000/svg"><path d="M18.217 12.14a6.36 6.36 0 106.36 6.36 6.367 6.367 0 00-6.36-6.36zm0 10.407a4.047 4.047 0 110-8.095 4.047 4.047 0 010 8.095z" fill="#fff"/><path d="M34.081 23.293l-2.296-1.89a13.953 13.953 0 000-5.806l2.296-1.89a1.441 1.441 0 00.333-1.838l-2.357-4.082a1.44 1.44 0 00-1.758-.63L27.512 8.2a13.877 13.877 0 00-5.025-2.904l-.49-2.932a1.44 1.44 0 00-1.425-1.208H15.86a1.441 1.441 0 00-1.426 1.208l-.488 2.932A13.877 13.877 0 008.919 8.2L6.132 7.156a1.44 1.44 0 00-1.758.631L2.017 11.87a1.44 1.44 0 00.333 1.839l2.296 1.89a13.953 13.953 0 000 5.805l-2.296 1.89a1.441 1.441 0 00-.333 1.838l2.357 4.082a1.44 1.44 0 001.759.63L8.919 28.8a13.877 13.877 0 005.026 2.904l.488 2.932a1.44 1.44 0 001.426 1.208h4.713a1.44 1.44 0 001.426-1.208l.489-2.932a13.876 13.876 0 005.025-2.904l2.787 1.044a1.441 1.441 0 001.758-.631l2.357-4.082a1.441 1.441 0 00-.333-1.838zm-3.659 4.127l-3.477-1.302-.526.53a11.56 11.56 0 01-5.248 3.033l-.723.19-.61 3.66h-3.244l-.61-3.66-.723-.19a11.56 11.56 0 01-5.248-3.033l-.527-.53L6.01 27.42l-1.622-2.81 2.864-2.357-.195-.72a11.627 11.627 0 010-6.066l.195-.72-2.864-2.358L6.01 9.58l3.476 1.303.527-.53A11.56 11.56 0 0115.26 7.32l.723-.19.61-3.66h3.244l.61 3.66.723.19c1.988.526 3.8 1.573 5.248 3.033l.526.53 3.477-1.302 1.622 2.81-2.864 2.357.195.72c.537 1.986.537 4.08 0 6.066l-.195.72 2.864 2.358-1.622 2.81z" fill="#fff"/></svg>