<svg width="37" height="37" fill="none" xmlns="http://www.w3.org/2000/svg"><g clip-path="url(#clip0_133_17345)"><path d="M0 8.094a3.469 3.469 0 013.469-3.469H24.28a3.469 3.469 0 013.469 3.469v3.469h2.359a3.468 3.468 0 012.705 1.301l3.425 4.279c.493.615.761 1.38.761 2.169v4.97a3.469 3.469 0 01-3.469 3.468h-1.156a4.625 4.625 0 01-9.25 0H11.562a4.626 4.626 0 11-9.245-.197A3.468 3.468 0 010 24.281V8.094zm2.992 17.242a4.623 4.623 0 017.95.102h12.803a4.647 4.647 0 011.692-1.693V8.094a1.156 1.156 0 00-1.156-1.156H3.47a1.156 1.156 0 00-1.156 1.156V24.28a1.156 1.156 0 00.68 1.055zm24.758-2.211a4.624 4.624 0 014.005 2.313h1.776a1.156 1.156 0 001.157-1.157V19.31a1.153 1.153 0 00-.255-.721l-3.422-4.278a1.156 1.156 0 00-.902-.435H27.75v9.25zM6.937 25.438a2.312 2.312 0 100 4.624 2.312 2.312 0 000-4.625zm20.813 0a2.312 2.312 0 100 4.624 2.312 2.312 0 000-4.625z" fill="#fff"/></g><defs><clipPath id="clip0_133_17345"><path fill="#fff" d="M0 0h37v37H0z"/></clipPath></defs></svg>