<svg width="19" height="20" fill="none" xmlns="http://www.w3.org/2000/svg"><path d="M13.501 11.875c-1.153 0-1.707.625-3.6.625-1.892 0-2.442-.625-3.6-.625-2.98 0-5.4 2.352-5.4 5.25v1C.901 19.16 1.765 20 2.83 20h14.143c1.065 0 1.928-.84 1.928-1.875v-1c0-2.898-2.418-5.25-5.4-5.25zm3.472 6.25H2.83v-1c0-1.86 1.559-3.375 3.471-3.375.587 0 1.54.625 3.6.625 2.078 0 3.01-.625 3.6-.625 1.913 0 3.472 1.516 3.472 3.375v1zM9.9 11.25c3.195 0 5.786-2.52 5.786-5.625S13.096 0 9.901 0C6.707 0 4.116 2.52 4.116 5.625S6.707 11.25 9.9 11.25zm0-9.375c2.126 0 3.857 1.684 3.857 3.75s-1.731 3.75-3.857 3.75c-2.125 0-3.857-1.684-3.857-3.75s1.732-3.75 3.857-3.75z" fill="#fff"/></svg>