<svg width="30" height="29" viewBox="0 0 30 29" fill="none" xmlns="http://www.w3.org/2000/svg">
<path d="M29.5506 13.5143L14.1517 0.158848C14.0335 0.0570222 13.8827 0 13.7237 0H10.1165C9.81487 0 9.67629 0.374719 9.90454 0.570225L24.1785 12.9522H0.326075C0.146734 12.9522 0 13.0989 0 13.2781V15.7219C0 15.9011 0.146734 16.0478 0.326075 16.0478H24.1744L9.90046 28.4298C9.67221 28.6294 9.81079 29 10.1124 29H13.8419C13.9193 29 13.9968 28.9715 14.0538 28.9185L29.5506 15.4857C29.6917 15.3631 29.8048 15.2116 29.8824 15.0416C29.9599 14.8715 30 14.6869 30 14.5C30 14.3131 29.9599 14.1285 29.8824 13.9584C29.8048 13.7884 29.6917 13.6369 29.5506 13.5143Z" fill="white"/>
</svg>
