<svg width="20" height="20" viewBox="0 0 20 20" fill="none" xmlns="http://www.w3.org/2000/svg">
<path d="M6.66406 3.33366V13.3337C6.66406 13.7757 6.83966 14.1996 7.15222 14.5122C7.46478 14.8247 7.8887 15.0003 8.33073 15.0003H14.9974C15.4394 15.0003 15.8633 14.8247 16.1759 14.5122C16.4885 14.1996 16.6641 13.7757 16.6641 13.3337V6.03533C16.664 5.81329 16.6196 5.5935 16.5335 5.38886C16.4473 5.18422 16.3212 4.99886 16.1624 4.84366L13.3999 2.14199C13.0885 1.83754 12.6704 1.66705 12.2349 1.66699H8.33073C7.8887 1.66699 7.46478 1.84259 7.15222 2.15515C6.83966 2.46771 6.66406 2.89163 6.66406 3.33366V3.33366Z" stroke="#136FB6" stroke-linecap="round" stroke-linejoin="round"/>
<path d="M13.332 15.0007V16.6673C13.332 17.1093 13.1564 17.5333 12.8439 17.8458C12.5313 18.1584 12.1074 18.334 11.6654 18.334H4.9987C4.55667 18.334 4.13275 18.1584 3.82019 17.8458C3.50763 17.5333 3.33203 17.1093 3.33203 16.6673V7.50065C3.33203 7.05862 3.50763 6.6347 3.82019 6.32214C4.13275 6.00958 4.55667 5.83398 4.9987 5.83398H6.66536" stroke="#136FB6" stroke-linecap="round" stroke-linejoin="round"/>
</svg>
