<svg width="33" height="33" viewBox="0 0 33 33" fill="none" xmlns="http://www.w3.org/2000/svg">
<path d="M8.48789 14.434C8.23619 14.1801 8.09568 13.8366 8.09725 13.479C8.09883 13.1215 8.24236 12.7792 8.49629 12.5275C8.75021 12.2758 9.09372 12.1353 9.45125 12.1369C9.80878 12.1385 10.151 12.282 10.4027 12.5359L15.1562 17.2895V1.71875C15.1562 1.36237 15.2978 1.02058 15.5498 0.768576C15.8018 0.516574 16.1436 0.375 16.5 0.375C16.8564 0.375 17.1982 0.516574 17.4502 0.768576C17.7022 1.02058 17.8438 1.36237 17.8438 1.71875V17.2895L22.5973 12.5359C22.7219 12.4102 22.8701 12.3103 23.0333 12.2418C23.1966 12.1733 23.3717 12.1377 23.5487 12.1369C23.7258 12.1361 23.9012 12.1702 24.0651 12.2372C24.2289 12.3043 24.378 12.4029 24.5037 12.5275C24.6294 12.6522 24.7294 12.8003 24.7979 12.9636C24.8663 13.1268 24.902 13.302 24.9027 13.479C24.9035 13.6561 24.8694 13.8315 24.8024 13.9954C24.7354 14.1592 24.6367 14.3083 24.5121 14.434L17.4574 21.4887C17.2006 21.737 16.8573 21.8759 16.5 21.8759C16.1427 21.8759 15.7994 21.737 15.5426 21.4887L8.48789 14.434ZM31.2812 19.1875C30.9249 19.1875 30.5831 19.3291 30.3311 19.5811C30.0791 19.8331 29.9375 20.1749 29.9375 20.5312V29.9375H3.0625V20.5312C3.0625 20.1749 2.92093 19.8331 2.66892 19.5811C2.41692 19.3291 2.07513 19.1875 1.71875 19.1875C1.36237 19.1875 1.02058 19.3291 0.768576 19.5811C0.516574 19.8331 0.375 20.1749 0.375 20.5312V29.9375C0.375 30.6503 0.658146 31.3338 1.16215 31.8378C1.66615 32.3419 2.34973 32.625 3.0625 32.625H29.9375C30.6503 32.625 31.3338 32.3419 31.8378 31.8378C32.3419 31.3338 32.625 30.6503 32.625 29.9375V20.5312C32.625 20.1749 32.4834 19.8331 32.2314 19.5811C31.9794 19.3291 31.6376 19.1875 31.2812 19.1875Z" fill="#136FB6"/>
</svg>
