<svg width="20" height="20" viewBox="0 0 20 20" fill="none" xmlns="http://www.w3.org/2000/svg">
<path d="M10.4425 1.43264C10.3844 1.37444 10.3155 1.32826 10.2395 1.29675C10.1636 1.26524 10.0822 1.24902 10 1.24902C9.91779 1.24902 9.83639 1.26524 9.76046 1.29675C9.68453 1.32826 9.61556 1.37444 9.5575 1.43264L2.0575 8.93264C1.9995 8.99079 1.95353 9.0598 1.92221 9.13573C1.8909 9.21165 1.87485 9.29301 1.875 9.37514V18.1251C1.875 18.2909 1.94085 18.4499 2.05806 18.5671C2.17527 18.6843 2.33424 18.7501 2.5 18.7501H8.125C8.29076 18.7501 8.44973 18.6843 8.56694 18.5671C8.68415 18.4499 8.75 18.2909 8.75 18.1251V13.1251H11.25V18.1251C11.25 18.2909 11.3158 18.4499 11.4331 18.5671C11.5503 18.6843 11.7092 18.7501 11.875 18.7501H17.5C17.6658 18.7501 17.8247 18.6843 17.9419 18.5671C18.0592 18.4499 18.125 18.2909 18.125 18.1251V9.37514C18.1251 9.29301 18.1091 9.21165 18.0778 9.13573C18.0465 9.0598 18.0005 8.99079 17.9425 8.93264L16.25 7.24139V3.12514C16.25 2.95938 16.1842 2.80041 16.0669 2.6832C15.9497 2.56599 15.7908 2.50014 15.625 2.50014H14.375C14.2092 2.50014 14.0503 2.56599 13.9331 2.6832C13.8159 2.80041 13.75 2.95938 13.75 3.12514V4.74139L10.4425 1.43264ZM3.125 17.5001V9.63389L10 2.75889L16.875 9.63389V17.5001H12.5V12.5001C12.5 12.3344 12.4342 12.1754 12.3169 12.0582C12.1997 11.941 12.0408 11.8751 11.875 11.8751H8.125C7.95924 11.8751 7.80027 11.941 7.68306 12.0582C7.56585 12.1754 7.5 12.3344 7.5 12.5001V17.5001H3.125Z" fill="#136FB6"/>
</svg>
