<svg width="12" height="12" viewBox="0 0 12 12" fill="none" xmlns="http://www.w3.org/2000/svg">
<path d="M1.50005 4.86826C1.49881 4.94427 1.5207 5.01887 1.56283 5.08216C1.60495 5.14545 1.66532 5.19444 1.73593 5.22263L5.3363 6.66301L6.77668 10.2638C6.8045 10.3334 6.85257 10.3931 6.91467 10.4352C6.97677 10.4772 7.05005 10.4997 7.12505 10.4996H7.13105C7.207 10.4984 7.2808 10.4742 7.34267 10.4301C7.40455 10.3861 7.45158 10.3243 7.47755 10.2529L10.4776 2.00288C10.5021 1.93577 10.507 1.86303 10.4916 1.79324C10.4762 1.72345 10.4412 1.65952 10.3907 1.60896C10.3401 1.55841 10.2762 1.52334 10.2065 1.50789C10.1367 1.49244 10.0639 1.49725 9.9968 1.52176L1.7468 4.52176C1.67539 4.54779 1.61356 4.5949 1.5695 4.65684C1.52544 4.71878 1.50122 4.79263 1.50005 4.86863V4.86826Z" fill="white"/>
</svg>
