<svg width="22" height="22" viewBox="0 0 22 22" fill="none" xmlns="http://www.w3.org/2000/svg">
<path d="M17.4167 9.16602H4.58333C3.57081 9.16602 2.75 9.98683 2.75 10.9993V18.3327C2.75 19.3452 3.57081 20.166 4.58333 20.166H17.4167C18.4292 20.166 19.25 19.3452 19.25 18.3327V10.9993C19.25 9.98683 18.4292 9.16602 17.4167 9.16602Z" stroke="#373A24" stroke-width="2" stroke-linecap="round" stroke-linejoin="round"/>
<path d="M5.5 9.16634V4.58301C5.5 3.85366 5.78973 3.15419 6.30546 2.63846C6.82118 2.12274 7.52065 1.83301 8.25 1.83301H13.75C14.4793 1.83301 15.1788 2.12274 15.6945 2.63846C16.2103 3.15419 16.5 3.85366 16.5 4.58301V5.49967" stroke="#373A24" stroke-width="2" stroke-linecap="round" stroke-linejoin="round"/>
</svg>
