<svg width="21" height="20" viewBox="0 0 21 20" fill="none" xmlns="http://www.w3.org/2000/svg">
<path d="M4.58301 5.41699H17.2238C17.48 5.417 17.7333 5.47068 17.9674 5.57457C18.2015 5.67846 18.4113 5.83026 18.5831 6.02017C18.755 6.21009 18.8852 6.43391 18.9652 6.6772C19.0453 6.9205 19.0735 7.17788 19.048 7.43274L18.498 12.9327C18.4528 13.3851 18.2411 13.8046 17.904 14.1096C17.5669 14.4147 17.1285 14.5836 16.6738 14.5837H7.91968C7.49569 14.5838 7.08475 14.437 6.75683 14.1683C6.42891 13.8995 6.20428 13.5254 6.12117 13.1097L4.58301 5.41699Z" stroke="#CD2626" stroke-width="2" stroke-linejoin="round"/>
<path d="M4.58301 5.41667L3.84051 2.44392C3.79085 2.24569 3.67638 2.06974 3.51528 1.94402C3.35418 1.81829 3.15569 1.75001 2.95134 1.75H1.83301" stroke="#CD2626" stroke-width="2" stroke-linecap="round" stroke-linejoin="round"/>
<path d="M7.33301 18.25H9.16634" stroke="#CD2626" stroke-width="2" stroke-linecap="round" stroke-linejoin="round"/>
<path d="M14.666 18.25H16.4993" stroke="#CD2626" stroke-width="2" stroke-linecap="round" stroke-linejoin="round"/>
</svg>
