<svg width="18" height="19" viewBox="0 0 18 19" fill="none" xmlns="http://www.w3.org/2000/svg">
<g clip-path="url(#clip0_133_17310)">
<path d="M3 4.75H15L13.815 16.0075C13.7744 16.3949 13.5998 16.7529 13.3247 17.0129C13.0496 17.2729 12.6933 17.4167 12.324 17.4167H5.676C5.30673 17.4167 4.95042 17.2729 4.67531 17.0129C4.4002 16.7529 4.22562 16.3949 4.185 16.0075L3 4.75Z" stroke="#136FB6" stroke-width="2" stroke-linecap="round" stroke-linejoin="round"/>
<path d="M5.50875 2.49105C5.63006 2.21948 5.82203 1.98992 6.06225 1.82915C6.30248 1.66837 6.58106 1.583 6.8655 1.58301H11.1345C11.4191 1.58285 11.6978 1.66815 11.9382 1.82893C12.1785 1.98972 12.3706 2.21936 12.492 2.49105L13.5 4.74967H4.5L5.50875 2.49105Z" stroke="#136FB6" stroke-width="2" stroke-linecap="round" stroke-linejoin="round"/>
<path d="M1.5 4.75H16.5" stroke="#136FB6" stroke-width="2" stroke-linecap="round" stroke-linejoin="round"/>
<path d="M7.5 8.70801V12.6663" stroke="#136FB6" stroke-width="2" stroke-linecap="round" stroke-linejoin="round"/>
<path d="M10.5 8.70801V12.6663" stroke="#136FB6" stroke-width="2" stroke-linecap="round" stroke-linejoin="round"/>
</g>
<defs>
<clipPath id="clip0_133_17310">
<rect width="18" height="19" fill="white"/>
</clipPath>
</defs>
</svg>
