<svg width="18" height="20" fill="none" xmlns="http://www.w3.org/2000/svg"><path d="M12.6 11.875c-1.153 0-1.708.625-3.6.625-1.892 0-2.443-.625-3.6-.625-2.981 0-5.4 2.352-5.4 5.25v1C0 19.16.864 20 1.929 20H16.07c1.066 0 1.93-.84 1.93-1.875v-1c0-2.898-2.419-5.25-5.4-5.25zm3.471 6.25H1.93v-1c0-1.86 1.558-3.375 3.471-3.375.587 0 1.539.625 3.6.625 2.077 0 3.01-.625 3.6-.625 1.912 0 3.471 1.516 3.471 3.375v1zM9 11.25c3.194 0 5.786-2.52 5.786-5.625S12.194 0 9 0C5.806 0 3.214 2.52 3.214 5.625S5.806 11.25 9 11.25zm0-9.375c2.125 0 3.857 1.684 3.857 3.75S11.125 9.375 9 9.375s-3.857-1.684-3.857-3.75S6.875 1.875 9 1.875z" fill="#136FB6"/></svg>