<svg width="1364" height="181" fill="none" xmlns="http://www.w3.org/2000/svg"><path d="M1304.83 96.636c2.34-.855 5.05-1.48 7.96-1.837 2.91-.356 5.96-.435 8.94-.231 6.55.112 13.1-.163 19.49-.818 2.58-.288 4.52-1.828 7.43-3.079 1.07 0 .96 2.935 4.41 1.251 1.53-1.22 2.65-2.532 3.34-3.896-10.77-2.117-21.53-.433-31.65-.674-10.12-.24-20.67.289-31.11 0-10.16.07-20.3.44-30.36 1.107-1.7-.517-2.86-1.314-3.25-2.216-.38-.902.05-1.835 1.21-2.594l6.03-4.186c10.76 0 21.52.385 32.29.24 4.74 0 6.35 1.444 10.01 2.55l5.38-3.27c6.25-1.107 13.78 0 21.53-2.31-2.8-.577-3.98-1.058-5.17-1.058-9.3.402-18.68.224-27.88-.529a10.6 10.6 0 00-3.23 0c-2.61.646 21.78-23.67 18.8-23.586-2.98.083-33.25 24.563-36.02 24.067-4.3-.625 30.47-1.613 25.19-3.152-3.31-.778-44.06 3.02-47.79 3.104-8.19 0 76.43-.048 68.36.192-8.07.24 7.01.481 5.93-3.848 12.79-.984-12.95-11.376 0-11.737 6.57-.385-56.21 8.707-49.75 8.226 5.34-.506 10.72-.891 16.15-1.155 8.72-.289 17.54-.288 26.26-.481 9.25.432 18.58-.425 26.7-2.453l6.35 3.223c5.6-.241 11.41-.674 17.33-.674 3.98.179 7.99-.14 11.58-.922 3.59-.781 6.63-1.995 8.77-3.503-1.43-.8-3.39-1.374-5.6-1.642a23.54 23.54 0 00-6.68.15c-15.93 2.357-31-.433-46.72-.77 1.3-2.02 4.42-1.875 7-1.923 12.15-.176 23.95-1.84 34.13-4.81 1.25-.507 2.83-.827 4.52-.915 12.59.481 19.7-4.185 32.29-6.157-3.44-.866-4.95-1.587-6.78-1.684-6.46-.385-13.13-.384-19.59-.77-4.55-.442-9.04-.988-13.46-1.635l2.8-4.57 17.22-1.539c-4.84-2.79-12.48-1.732-16.04-3.896 2.48-4.81 10.77-5.436 19.27-5.773 2.8-2.02 3.23-3.656 0-4.81-3.23-1.155-5.49-1.491-3.98-3.416 0-.577-1.72-1.683-3.23-2.26-4.09-1.588-8.4-3.03-13.35-4.81-3.57.178-7.18.178-10.76 0a116.09 116.09 0 01-10.77-1.925l2.16-3.079c-5-1.17-10.64-1.671-16.26-1.443-3.31.158-6.65-.146-9.56-.869s-5.25-1.831-6.69-3.171c-1.56-1.434-4.05-2.626-7.14-3.423-3.08-.797-6.64-1.163-10.19-1.05a1373.284 1373.284 0 00-69-1.396c-17.48.722-35.09.333-52.32-1.154-5.81-.722-12.38 2.453-18.73.721-6.07-1.165-12.7-1.613-19.27-1.299-3.22-.147-6.47.12-9.36.77-1.39.364-2.97.555-4.58.555-1.61 0-3.19-.191-4.57-.555-8.74-1.48-18.27-1.749-27.35-.77-4.83.257-9.73.01-14.31-.721-3.07-.545-6.34-.804-9.64-.763-3.29.041-6.53.383-9.52 1.003-1.89.45-4.09.554-6.14.289-8.23-1.403-17.06-1.962-25.83-1.636-14.75-2.693-30.25 0-45.323-1.058a48.921 48.921 0 00-7.858.577c-1.4 0-3.445.674-4.091.433-8.289-3.511-18.192-1.298-27.342-1.587a330.143 330.143 0 01-17.977-1.54c5.382-1.106 10.012-2.068 14.533-3.078.659-.21 1.409-.355 2.201-.427.793-.072 1.61-.07 2.4.007.791.077 1.537.227 2.19.44.654.213 1.2.485 1.605.798 1.941.807 4.456 1.284 7.105 1.347 6.97.583 14.166.283 20.775-.866l-1.722-3.223c6.674-.914 8.827 3.127 15.824 1.732a94.002 94.002 0 0116.15 0c1.4 2.55 4.19 4.088 10.76 4.088 20.78 0 41.66 0 62.44.385 8.82 0 17.54.481 26.37.626 2.33.094 4.68-.053 6.86-.428 2.18-.376 4.14-.97 5.73-1.737.61-.152 1.3-.231 1.99-.231.7 0 1.39.08 2 .23 1.8.758 3.98 1.307 6.36 1.6 2.39.293 4.89.322 7.31.085 18.62-.337 37.24-.77 55.87-1.059h24.75l25.84-.288c-6.46-2.406-14 0-19.7-2.358 20.99-1.635 41.98-.24 64.59-2.357-3.12-1.058-4.74-2.116-6.68-2.26-6.99-.53-14.21-.722-21.53-1.155-4.82-.312-9.6-.746-14.31-1.299-5.78-.775-11.99-.57-17.44.577-1.8.503-3.82.83-5.92.962-6.35.29-12.27-1.298-19.27 0a107.5 107.5 0 01-17.87.578h-19.81c-14.1.288-28.31.818-42.41 1.154-3.67.277-7.44.096-10.9-.524s-6.46-1.653-8.69-2.987c-4.35 1.442-9.33 2.454-14.62 2.968-5.29.515-10.77.52-16.06.014-14.85-.818-29.6 0-44.35-.529-10.76-.337-21.53-.77-32.29-1.058-14.536-.385-29.175.384-43.708-.385-3.827-.052-7.64-.23-11.41-.53-4.271-.845-8.892-1.282-13.563-1.282-4.672 0-9.293.437-13.564 1.283-2.799.625-7.427 0-10.764-.433-6.792-1.03-14.199-.893-20.776.385a26.626 26.626 0 01-9.365 0c-10.333-1.668-21.338-2.34-32.294-1.973-2.175-.079-4.352.14-6.243.626-1.332.44-2.903.712-4.55.788a19.765 19.765 0 01-4.815-.355c-7.374-.977-15.166-1.142-22.714-.481-8.181.336-16.469 0-24.65.24h-3.337a650.127 650.127 0 01-32.294 0 561.773 561.773 0 01-37.138-.385 20.928 20.928 0 00-4.628 0c-3.052.573-6.344.844-9.652.794-3.307-.05-6.552-.42-9.51-1.082-1.937-.289-5.059-.722-6.136-.337-6.674 2.598-12.486-.337-18.084-.481-1.539.265-2.92.684-4.039 1.226-1.118.541-1.943 1.19-2.411 1.897-.468.706-.567 1.451-.288 2.178.278.726.926 1.414 1.894 2.01 5.598.241 11.518 1.684 16.9-1.539 1.83-1.106 6.997-1.395 10.765-1.395 7.105 0 14.209.385 21.529.578l5.706 3.607c-.754.481-1.184 1.107-1.938 1.203-7.966.674-15.932 1.25-23.898 1.828-6.726.353-13.537-.182-19.591-1.54-3.825-.967-8.347-1.226-12.595-.72-3.525.665-7.313 1.007-11.141 1.007-3.827 0-7.616-.342-11.141-1.008-9.258 1.01-18.408-.914-27.665 0-3.58.151-7.185.151-10.765 0-1.615 0-3.445-.481-4.844-.24-16.793 2.405-33.585-.626-50.27 0-4.942.02-9.873.213-14.748.577-7.44.879-15.196 1.091-22.821.625-9.149-.481-18.299.337-27.557 0-18.084-.385-36.169.289-53.823.625-8.922.511-17.918.72-26.911.626a621.34 621.34 0 00-51.885.433h-1.938c-18.084-.24-36.169-.866-53.823-.674-14.165.17-28.34-.12-42.412-.866a58.435 58.435 0 00-8.073.674c-2.605.38-5.335.559-8.074.529a202.6 202.6 0 00-27.557-.096c-4.306 0-8.72 0-13.025.288-5.426.31-10.892.455-16.362.433a449.3 449.3 0 00-41.121 1.01 495.739 495.739 0 01-32.294.578c-10.923-.272-21.866.347-32.293 1.828a280.768 280.768 0 01-20.668 2.26 91.013 91.013 0 01-7.859-.48c-6.135 0-12.81-1.01-16.684 2.693-1.723 1.588-7.213 1.155-10.12 0-1.769-.94-4.174-1.599-6.853-1.876-2.678-.278-5.486-.16-8.001.337 0 0-.646.433 0 .53.646.095 2.583 1.442 4.198 2.356A24.619 24.619 0 011.03.862C-7.15 7.55-13.502 8.655-29.864 6.105c-1.507-.24-2.691-.962-6.136-2.26 2.476 2.838 3.66 4.81 5.382 6.253 1.723 1.443 6.46 2.165 11.734.433a96.006 96.006 0 0110.01-1.924c-2.367 4.81 3.446 8.177 0 12.17-.968 1.203.97 2.886 1.615 4.33 1.888 2.003 2.449 4.207 1.615 6.349-.753.962 1.292 2.26 1.722 3.463.861 2.598 4.952 4.81 3.983 7.649 0 .866 2.584 1.924 3.984 2.886l-9.689 2.069c-.861 1.924 2.368 1.395 3.875 1.828 3.337.962.861 2.116 0 3.174v.626c8.181.866 11.626 5.387 21.53 5.195 1.399 1.587 2.906 3.127 4.305 4.81L8.027 68.832l12.487 3.8a163.909 163.909 0 01-8.612 1.733c-3.121.432-4.952 1.25-4.306 2.645.646 1.395 3.445 1.828 6.352 1.876h8.18c19.7-.48 39.4.289 59.098-1.01a114.75 114.75 0 0116.147.722c.861 0 1.399 1.106 2.26 1.731-10.764 1.3-12.271 1.443-18.838.77a316.133 316.133 0 00-47.256-.24c-7.167.225-14.361.225-21.529 0-4.198 0-8.612-.626-12.272 1.106 0 1.731 3.983 1.106 6.029 1.683a67.43 67.43 0 017.104 1.78c1.83.866 2.906 1.925 6.136 2.165 2.372.308 4.677.711 6.89 1.203-2.8 3.944-11.842 1.443-15.932 4.329l-.97 1.635c-.33.34-.471.71-.413 1.08.058.37.314.728.747 1.044.433.316 1.03.581 1.74.772.71.192 1.513.304 2.34.327a90.14 90.14 0 0011.411 0 213.292 213.292 0 0139.182 0c5.4.29 10.856.29 16.255 0 9.796.24 19.484.674 29.172 1.155a292.058 292.058 0 0045.857-.577 26.347 26.347 0 016.459 0c9.25 1.557 19.324 1.858 28.957.865 6.566-.673 6.674-.336 12.809 2.839 8.935-2.646 8.935-2.454 20.668-2.117 11.734.337 22.929 1.876 34.124-.433 15.824.914 31.648-1.636 47.58 0a36.98 36.98 0 006.458.385 712.259 712.259 0 0160.82-.289c20.883 0 41.659 0 62.542-.625 6.279-.25 12.505-.716 18.623-1.395 5.382 2.694 12.594.77 18.73 1.587 2.573.31 5.285.31 7.858 0 15.859-1.969 32.434-2.508 48.763-1.587 13.65.481 27.364.481 41.013 0a451.93 451.93 0 0127.881.433H620.1c36.169.337 72.445.337 108.614 1.154 25.189.578 50.271-.288 75.352-.288 25.082 0 50.593.24 75.352-.626 24.574-.545 49.199-.417 73.738.385 17.331.337 34.662.24 51.884.385h41.01c6.27.5 12.68.5 18.95 0a98.74 98.74 0 0119.16-.433c4.86-.158 9.68-.48 14.42-.962 2.59 0 6.46-.337 7.76.289 7.75 3.752 17.54 2.164 26.37 2.116 13.02 0 26.16-.817 39.18-1.395 9.26-.433 18.19.674 27.56.385 13.02-.337 26.16 0 39.18-.77 5.6 0 12.27-.914 16.36 2.021h2.16c5.92-2.55 9.68 0 14.53 1.25 3.01-1.924 9.26-2.02 12.05-4.377.72-.34 1.59-.61 2.55-.793a16.1 16.1 0 013.05-.265c5.38 0 10.77 0 16.26.337h-.76zM264.331 73.546c.539.626.862 1.396 1.4 1.396a182.348 182.348 0 0021.529 1.25c6.519-.24 13.072-.24 19.591 0a1055.92 1055.92 0 0052.424 1.203c18.623-.24 37.353-.577 55.975-.481 32.294 0 65.664 0 98.496-.818 7.32 0 15.286 1.924 22.067-1.058a6.43 6.43 0 011.454-.16 6.45 6.45 0 011.453.16c1.37.625 3.123 1.054 5.039 1.234a21.59 21.59 0 005.726-.224 76.517 76.517 0 0115.931.337c2.071.324 4.277.439 6.459.337a634.902 634.902 0 0138.322 0 6.886 6.886 0 000-4.137c-.861-1.3-4.522-2.213-2.261-4.282h12.594a97.901 97.901 0 0112.918-.24c3.317.757 7.096 1.01 10.765.721 4-.24 8.055-.24 12.056 0 4.09 3.656 4.306 3.8 1.937 4.81-2.368 1.011-4.413 1.877-8.503.963-3.42-.6-7.125-.799-10.765-.577-1.399 0-2.583 1.154-3.983 1.78 1.184.432 2.369 1.154 3.553 1.202 10.764.337 21.529.577 32.293.722a39.11 39.11 0 005.383-.914 42.746 42.746 0 00-4.091-3.897c-1.292-.914-6.244.289-6.244-1.587s4.306-1.732 7.32-2.117l12.81-1.828c.857.785 2.057 1.485 3.53 2.06 1.472.574 3.186 1.01 5.042 1.284 1.856.274 3.816.378 5.764.308a29.55 29.55 0 005.578-.717 36.33 36.33 0 017.313-.313c2.459.142 4.816.528 6.897 1.13.641.085 1.225.24 1.702.448.477.21.832.468 1.034.753.202.285.245.587.124.881-.12.294-.401.57-.815.805-3.66 3.126-2.476 4.185 3.768 4.28a148.16 148.16 0 0013.132-.384c.7-.149 1.311-.37 1.779-.647.468-.276.781-.599.913-.94-.241-.875-1.066-1.696-2.368-2.357-.862-.433-2.8-.482-4.522-.722.754-1.058.861-2.26 2.153-2.838 1.292-.577 6.244-1.491 6.782-1.203 5.059 2.598 10.764 1.732 16.577.962 4.212-.513 8.552-.788 12.918-.817 7.427 0 9.903 1.827 7.427 5.387a17.662 17.662 0 00-1.507 3.8c14.424 0 27.45.337 40.475 0 10.764-.24 21.529-1.25 32.294-1.876a16.28 16.28 0 014.628 0c6.003 1.205 12.639 1.638 19.161 1.251 12.595 0 25.189 0 37.676.625 5.49 0 6.459-2.068 10.119-2.597 4.091 3.608 5.921 4.185 12.056 3.752 3.122 0 6.782-1.01 9.258-.577 4.75.62 9.747.767 14.639.433 9.744.345 19.547.135 29.172-.626 2.112.57 4.462.94 6.905 1.09 2.444.148 4.927.072 7.307-.224 4.63-.385 9.58-.433 14.53-.625l2.04-3.079a203.55 203.55 0 01-17.65-1.347c-7.682-1.335-16.098-1.587-24.112-.721-5.292.707-10.975.554-16.039-.433-1.936-.436-4.075-.663-6.243-.663-2.169 0-4.306.227-6.243.663-2.401.624-5.16.921-7.934.853-2.774-.069-5.442-.499-7.675-1.238a9.322 9.322 0 00-2.099-.231c-.731 0-1.452.08-2.099.23-1.94.698-4.272 1.143-6.741 1.287-2.468.144-4.977-.018-7.253-.468a146.285 146.285 0 00-19.484 0c-2.476 0-4.844 1.443-7.212 1.443-2.368 0-5.49-1.155-8.289-1.395-2.799-.24-5.597 1.347-7.32 0-1.117-1.32-1.63-2.727-1.507-4.137 0-.289 1.076-.626 1.83-1.01l12.595 3.078c5.274-2.212 12.917-2.02 17.007-4.81 1.615-1.058 5.168 0 6.46 1.828.443.486.983.953 1.614 1.395 14.963.337 29.064.48 43.058.914 2.892.28 5.908.136 8.603-.41 2.695-.546 4.925-1.465 6.36-2.62l13.133 3.607 12.594-2.405c5.276 2.742 5.386 2.982 8.936 2.55 7.49-.842 15.33-.842 22.82 0a95.9 95.9 0 009.8.288c7.19.102 14.38-.043 21.52-.433a96.958 96.958 0 0120.78 0c2.8.385 5.38-1.876 9.04-.673 5.38 1.828 11.74.673 17.55 1.106 1.62.09 3.26-.03 4.73-.346 1.47-.316 2.7-.813 3.56-1.434.92.585 2.15 1.061 3.57 1.388 1.43.327 3.01.494 4.61.488h23.14c7.75 0 8.51-.625 14.64-3.27 1.76.922 2.78 2.081 2.9 3.293.12 1.211-.68 2.406-2.25 3.392l-14-1.346c-.53.715-1.42 1.365-2.62 1.896-1.19.532-2.65.93-4.25 1.165-1.6.234-3.31.296-4.97.182-1.67-.113-3.25-.4-4.63-.838a71.917 71.917 0 00-7.32-1.636c-5.06-.673-10.76-2.02-15.28-1.395-5.4.508-10.97.508-16.36 0l-3.99 5.773c.7.3 1.46.574 2.26.817 4.09.674 7.32-.721 10.77-.865 3.44-.145 7.96 1.49 11.84 1.443a271.06 271.06 0 0017.65-1.203c2.05 0 4.74-.337 6.03 0 3.55 1.347 7 .818 10.77.481 3.76-.337 6.24.626 6.02 2.934l-12.16 1.3c0 2.645-1.29 3.896-4.52 3.415-5.06-.77-12.7.288-13.67-3.608-1.89-.53-4.07-.81-6.3-.81-2.23 0-4.41.28-6.3.81l-1.61 8.13-7.75-.241c-.86-4.81-2.8-5.82-10.77-5.58-4.84 0-9.68.77-14.53.914-8.65.432-17.39.432-26.05 0-14.64-1.155-29.28-.674-43.81-1.491-9.295.302-18.638-.072-27.665-1.107-1.524-.155-3.121-.07-4.521.24-6.968.956-14.332 1.186-21.529.674-11.411-.337-22.821-.673-34.231-.77H849.17c-5.275 0-10.765.578-15.501-1.539a5.118 5.118 0 00-1.13-.122 5.12 5.12 0 00-1.131.122c-3.121 1.973-7.858 1.54-12.056 1.588h-37.891c-12.595 0-26.266-.289-39.398-.385h-67.494c-9.365 0-18.73.288-27.988 0a222.941 222.941 0 00-27.773 0c-2.363.361-4.942.315-7.233-.13-2.29-.445-4.126-1.257-5.146-2.275-.383-.296-.911-.55-1.545-.741a9.503 9.503 0 00-2.115-.366c-1.88.142-3.698.418-5.382.818 2.153 2.068-1.077 2.742-4.414 2.886-8.288.289-16.469 0-24.65.481-2.978.136-5.979-.12-8.637-.735-2.657-.615-4.856-1.563-6.326-2.728h-2.907l3.014 2.934a871.157 871.157 0 01-45.211-.433c-2.045 0-4.521-1.058-6.136-1.924-4.844-2.55-7.212-2.79-9.903 0-2.691 2.79-4.521 2.742-8.719 2.357a180.3 180.3 0 00-31.002 0c-2.415.26-4.955.138-7.192-.345-2.236-.482-4.031-1.295-5.08-2.3 0-.241-1.937-.241-3.014-.385l-4.521 2.79c-8.397 0-16.578.577-24.759.673-8.181.096-17.438 0-25.512 0l-5.382-3.656h-21.529c1.83 1.395 2.906 2.886-.861 3.175a123.84 123.84 0 01-14.64 0c-1.722 0-3.552-1.01-4.736-1.732-3.768-2.116-3.66-2.164-6.997-.577-.969.53-1.938 1.443-3.014 1.491-9.258 0-18.516.481-27.773.337-9.258-.144-16.254-.674-25.727-1.107l-3.552-2.26c-4.629.529-8.181 1.058-11.841 1.347-20.13 1.635-39.722-.818-62.004-1.395-.779.074-1.538.187-2.261.336-4.304 1.11-9.186 1.695-14.155 1.695-4.97 0-9.852-.584-14.156-1.695-1.666-.38-3.511-.578-5.382-.578-1.871 0-3.716.198-5.382.578-8.397 2.742-17.116.963-25.62 1.203-2.799 0-5.382 0-5.49-2.357l24.436-.77c6.538.136 13.083-.205 19.376-1.01 5.348-1.097 11.291-1.481 17.116-1.106 7.047.76 14.357.907 21.529.433a249.632 249.632 0 0126.05-.722c6.944-.26 13.846-.71 20.668-1.347.689-.13 1.297-.334 1.766-.594.47-.26.787-.569.925-.897-.165-.332-.519-.64-1.028-.892-.51-.253-1.156-.443-1.878-.551-3.122-.24-6.567 0-9.689-.24-3.121-.241-6.351.288-8.719-1.829 16.147-1.058 31.002-5.147 44.458-.529 9.042 1.058 14.209-2.309 22.175-1.491 7.966.818 14.209.433 21.529.818 3.66 0 6.028 1.202 4.413 3.56-3.122 0-7.643 1.202-10.119.577-3.407-.629-7.161-.78-10.764-.433-4.34.262-8.749.181-13.025-.24-8.852-1.119-18.287-.882-26.804.673zM854.445-13.04a285.87 285.87 0 00-24.974 0c-7.598.214-15.214-.26-22.391-1.395a393.019 393.019 0 0026.051-4.089c7.212-1.731 13.779 0 20.668 0 4.629-.288 7.857 1.059 11.517 2.31 5.49 1.875 11.841 2.79 17.439 0 .93-.446 2.106-.774 3.411-.951a17.083 17.083 0 014.017-.06c3.659.24 7.427.289 10.764.433l6.244 3.512-19.054 3.511c-8.504-1.106-15.285-5.147-25.619-2.742L860.58-9.24c-1.292-.288-2.045-.336-2.26-.48l-3.875-3.32zm-124.224-.866l.538-1.347a58.385 58.385 0 006.136-.817c5.632-1.694 12.266-2.598 19.054-2.598h13.132c5.06 0 9.689 0 12.595 2.453.861.674 4.736.77 7.212 1.01 2.476.241 6.674-.24 8.504 1.78-3.337.674-6.782 1.973-10.119 1.925a499.847 499.847 0 01-30.678-.915 105.465 105.465 0 00-17.869 0c-2.476.145-5.598-.865-8.505-1.298v-.193zM1199.45 88.747a54.205 54.205 0 00-6.89-1.395c-2.73-.073-5.46-.073-8.18 0-1.4 0-3.66-.48-3.88-.914-1.18-2.693-5.59-1.731-9.15-1.683-.75 0-1.5.385-2.26.577-.75.193 4.63.77 2.37 2.117-8.5-.481-8.5-.481-12.38-5.292 12.06 0 23.25-2.405 35.31-.721 3.21.32 6.51.45 9.8.384 14.72.114 29.45-.304 44.02-1.25 1.4 0 2.91.337 4.2.48.54 1.54-1.4 1.925-3.66 1.925h-24.65c-10.97-.293-21.95.41-32.29 2.069 2.04 1.635 11.08-.049 7.64 3.703zm-28.74-12.603c1.4-2.116 3.44-3.367 7.96-3.56l35.85-1.587c-2.58 2.454 4.95 4.57-.65 6.783-6.99-.899-14.35-1.08-21.53-.53-7.3.701-14.91.295-21.63-1.154v.048zm-364.599-3.27l-.968-1.54 11.626-4.089c5.481.556 11.067.879 16.685.962 5.17-.361 10.252-.94 15.178-1.732 4.305 4.522 2.798 6.11-5.491 6.254H826.78l-20.669.144zm-409.806 0c-7.32.336-12.703.528-18.085.865-5.382.337-11.733 1.106-16.793-1.058 4.091-3.608 4.091-3.752 6.782-3.8a185.392 185.392 0 0126.804.24l1.292 3.752zm123.146-3.993a326.011 326.011 0 0153.823.385 66.193 66.193 0 00-10.765.769c-2.739 1.082-5.13 2.329-7.104 3.704-3.768-2.838-8.181-4.425-15.071-2.982-1.963.408-4.123.59-6.285.532-2.161-.059-4.255-.358-6.094-.869a135.147 135.147 0 00-8.504-1.588v.049zm734.579 15.826l-3.45 4.81-19.27-1.78.86-2.645c7.07-1.007 14.61-1.157 21.86-.433v.048zM581.671 68.785a52.98 52.98 0 0114.317 0c-3.122 4.088-6.89 5.58-12.165 4.521l-2.152-4.522zm-233.484 4.81c-1.18.205-2.408.35-3.66.433-4.306 0-10.765.384-10.765-1.876 0-2.261 5.706-2.79 11.304-3.271l3.121 4.714zM916.879-12.27c2.045-1.588 3.122-2.646 4.629-3.56 1.507-.914 3.229-1.01 4.09-.818 1.721.483 3.072 1.187 3.875 2.02.539.53 0 1.348 0 2.358h-12.594zM441.731 73.018s-.645.48-1.076.529a13.11 13.11 0 01-3.122.336c-3.983 0-7.966-.433-12.487-.673 6.997-3.704 9.904-3.704 16.685-.192zm450.82 15.2l4.306 2.261c-1.292.337-2.584.914-3.768.866a31.545 31.545 0 01-5.274-1.058l4.736-2.069zm165.239 4.185c-1.94.31-3.98.473-6.03.481-.7-.137-1.31-.35-1.78-.618-.47-.269-.78-.585-.91-.92 0-.963 3.98-1.252 6.99-.53.87.192 1.08.77 1.94 1.587h-.21zm79.01-1.49c7.32 0 7.32-.001 9.9 1.827-3.87-.577-7.96.481-9.69-1.828h-.21zm-376.976.576a45.47 45.47 0 01-4.306 0c-.645 0-1.722-.77-1.614-.914.107-.144 1.83-1.202 2.906-1.25 1.519.067 2.969.317 4.198.721a11.85 11.85 0 011.938 1.01l-3.122.433zm52.639-.673c0-.433-.001-1.106 1.076-1.203 2.476-.433 5.06-.866 7.105.337a.7.7 0 010 .674l-7.105.577s-.323-.289-.861-.433l-.215.048zM1209.24-13.473v-.48h15.94c-5.82.432-7.86.673-10.02.72a80.248 80.248 0 01-5.7-.288l-.22.048zM108.03 70.853c-.146.26-.411.502-.779.713-.367.21-.829.385-1.356.512a8.638 8.638 0 01-1.702.224 9.38 9.38 0 01-1.761-.102c-2.045 0-4.952.577-6.136-.914 1.795-.415 3.756-.667 5.77-.742 2.014-.074 4.041.03 5.964.309zM35.692 44.444c-.86 0-1.722.577-2.476.53-.754-.049-1.4-.53-2.045-.867-.646-.336 1.722-.48 2.583-.433.861.048 1.293.481 1.938.77zm894.427 45.41c2.473-.078 4.955-.078 7.428 0 .753 0 1.83.529 2.045.866.215.336-.969.866-1.615.914a13.038 13.038 0 01-4.793-.128c-.737-.167-1.39-.4-1.917-.684-.527-.284-.918-.614-1.148-.968zm-224.01 1.395c5.597-1.107 5.597-1.107 10.764 0h-10.764zm-60.281-1.972v.77h-8.505v-.578l8.505-.192zM1088.57-13.329v-1.01c1.45-.165 2.93-.262 4.42-.29 1.55.143 3.06.352 4.52.626l-.54.674h-8.4zM410.407 73.258c-2.079.058-4.165.058-6.244 0 0 0 0-.673-.754-1.058a4.44 4.44 0 011.292 0l5.706 1.058zm-195.27-1.154l-2.153.673-1.184-1.058s.969-.337 1.292-.289c.942.237 1.811.528 2.583.866l-.538-.192zm828.873-86.876h-4.42v-.529a68.28 68.28 0 014.42 0v.53zM669.294 89.614c-1.83.722-2.906 1.395-3.983 1.492-1.076.096-2.368-.578-3.444-.915.861-.48 1.614-1.202 2.799-1.346 1.184-.145 3.121.577 5.704.962l-1.076-.193zm186.981 1.347v-.336s.86-.241 1.076 0c.215.24 0 .336.753.529l-1.829-.193zm230.895 0l-7.32.674v-1.059l7.32.385zM19.438 45.454s0-.337.86-.385a7.637 7.637 0 011.508 0c-.27.251-.633.479-1.077.674 0 0-.86-.289-1.291-.289zM1036.26 91.153l1.4-.337c.49.337.92.69 1.29 1.058l-1.19.433-1.5-1.154zm-82.243-.482l1.184.385s-.862.433-1.077.433a9.947 9.947 0 01-1.507-.625l1.4-.193zm-623.699-.625h-1.184l1.507-.24-.323.24zM1178.03-13.569h-1.08l1.51-.24-.43.24zm25.94 82.642v-.481h1.29l-1.29.481zM319.338-21.265c-4.831.44-9.834.316-14.528-.358-4.694-.674-8.921-1.876-12.275-3.49-7.213-.338-4.952 4.136-11.734 3.703-4.844-.24-9.903 0-14.747 0a154.515 154.515 0 00-25.835 0 50.53 50.53 0 01-9.581-.625c-1.038-1.329-2.647-2.554-4.736-3.608-.599-.152-1.26-.25-1.944-.285a11.376 11.376 0 00-2.039.073 8.654 8.654 0 00-1.815.422c-.536.194-.981.433-1.307.704-1.507.866-2.906.962-5.489.481-8.827-1.683-8.828-1.636-14.103 1.347-1.399.77-2.906 1.443-5.166 2.501-3.66 0-7.966.337-12.272.337a197.21 197.21 0 01-13.133-.433c-3.875 0-8.289 2.117-11.626-.48 2.584-2.07 10.227.673 11.842-2.358-10.226-3.56-10.765-3.512-19.699-2.598a358.227 358.227 0 01-19.377 1.395 17.921 17.921 0 01-3.198-.011 14.654 14.654 0 01-2.937-.566c-6.029-2.934-11.626-1.924-16.901 0-1.402.607-3.193 1.002-5.123 1.131-1.93.13-3.903-.013-5.641-.41-5.048-.99-10.685-1.21-16.04-.625-17.976.963-35.845 1.925-53.822 3.079a282.725 282.725 0 00-15.824 1.876c-2.584 1.924.753 2.55 5.06 3.175-7.182.306-13.928 1.678-19.162 3.896l12.702-.673c3.768-.24 8.289-1.25 10.765-.674 7.279 1.072 14.996 1.416 22.606 1.01 12.056 0 24.112.578 36.168.53 8.213-.13 16.406-.451 24.544-.962 4.413-.24 8.288-2.165 13.563-.77.753 0 3.983-1.443 6.028-2.213 4.306 0 8.612 2.79 12.917-.24.754-.53 6.244-.53 7.536 0 6.351 2.934 14.209 2.26 21.529 2.309h10.764c3.768-.962 1.83-3.656 6.782-2.983 2.045.24 3.445 1.491 6.028 2.694 14.375.335 28.789.077 43.058-.77a100.717 100.717 0 0120.56-.288c2.899.372 5.976.361 8.861-.032 2.885-.392 5.453-1.15 7.394-2.181.787-.325 1.735-.562 2.765-.691a14.985 14.985 0 013.167-.054c1.05.093 2.035.297 2.875.594.84.297 1.511.678 1.958 1.113.824.44 1.842.799 2.99 1.055 1.148.257 2.402.405 3.684.436 7.616.352 15.271.513 22.928.481 2.553-.203 4.83-.841 6.352-1.78 1.184-.673-.001-1.924 3.767-1.731 3.768.192 3.014 1.154 3.229 2.116.408.57.95 1.118 1.615 1.636h37.138c9.365 0 18.622 0 27.88-.24a87.657 87.657 0 0010.764-1.732c1.292.336 3.876 1.587 6.459 1.587a20.84 20.84 0 004.51-.462c1.402-.309 2.623-.76 3.564-1.318 2.583-2.55 5.812-1.78 9.042-.818 1.942.76 3.645 1.633 5.059 2.598l52.639-1.01c4.414-.818 3.444-3.897 9.58-3.656 3.6.035 7.2-.061 10.765-.289 2.799 2.02 5.382 3.752 11.41 3.56 9.796-.24 19.699-.289 29.603-.289l52.639.24c1.648.049 3.303.049 4.952 0a261.72 261.72 0 0119.268-1.057 212.4 212.4 0 0117.869 1.731l10.765-4.233c-.861-.818-1.292-1.972-2.799-2.405-2.459-.791-5.264-1.342-8.232-1.615a47.757 47.757 0 00-8.992.028 217.15 217.15 0 01-26.157.721c-15.286.289-30.571-.337-45.965.577a225.048 225.048 0 01-21.529-.625 103.017 103.017 0 00-11.518 0c-25.297 2.213-51.024 0-76.536 1.636-7.536.48-15.286 0-22.929 0a502.261 502.261 0 00-34.016.384c-7.487.521-15.143-.197-21.529-2.02-3.662-.899-7.818-1.317-11.989-1.206-4.171.11-8.187.745-11.585 1.831-2.396.497-5.116.582-7.643.241-2.476-.289-4.306-1.395-6.674-1.972-2.369-.578-5.705-.53-8.504 1.731.538.818-.107 1.251-1.076 1.973l-.216-.096zM55.822-20.208c2.153 1.058 7.535-.77 9.365 2.645l-9.473-2.693-1.4 2.405-23.897 1.202c4.993-1.352 10.644-2.144 16.47-2.309l8.935-1.25zm76.105-1.347c-3.768 1.299-5.49 2.357-7.32 2.405-1.83.048-3.444-1.106-7.212-2.405h14.532zm-36.169 1.347l-.968-.53 2.152-.336v.625c0 .145-.538.289-.968.337l-.216-.096zM96.835 128c9.365-2.79 10.118-2.982 16.577-2.405 1.722 0 3.014 1.106 6.459 2.405H96.835zm79.011-22.512a65.26 65.26 0 017.536 1.731c-3.163.7-6.644 1.064-10.173 1.064s-7.01-.364-10.172-1.064c1.654-.762 3.731-1.315 6.019-1.602a29.635 29.635 0 017.006-.033l-.216-.096zm44.243 2.597c1.937-1.203 2.906-2.309 4.09-2.405 3.553-.241 7.751-.481 8.397 2.934l-12.487-.529zm214.215-5.243c-5.706.818-9.689 1.539-14.21.385 4.306-.337 7.966-1.78 14.425-.289l-.215-.096zm-233.806 6.205a7.148 7.148 0 01-1.622.023 5.39 5.39 0 01-1.442-.332c-.41-.164-.719-.372-.899-.604-.179-.232-.223-.48-.128-.722 0-.433 2.368-.962 3.66-1.01 1.291-.049 2.368.625 4.198 1.154-1.399.77-2.368 1.491-3.552 1.587l-.215-.096zM747.337-28l14.748.53c-2.104.754-4.764 1.128-7.456 1.048-2.691-.08-5.216-.61-7.077-1.482l-.215-.096zM1278.89 81.917h4.95-4.95zm103.99-7.312c-1.51.673-1.19 2.453-5.28 1.491l5.38-1.587-.1.096zM928.612-27.855l7.213.576v.77h-7.105l-.108-1.347zM1304.73 96.54a51.86 51.86 0 014.73-.24c.76 0 1.51.433 2.26.673-1.29.337-2.69 1.01-3.55.914-.86-.096-2.04-.962-3.12-1.491-1.08-.53-.22.24-.11.24l-.21-.096zM145.383 107.99c-.754 0-1.723-.289-2.584-.481-.861-.193 1.077-.722 1.723-.77 2.027.038 4.043.15 6.028.337-1.627.403-3.364.71-5.167.914zm-76.644-6.59s.97-.289 1.185 0c.352.162.61.36.753.577h-1.4l-.538-.577zM1295.9 99.138h-1.29c-.43 0 0-.481.75-.53.43-.043.87-.043 1.29 0-.07.118-.18.232-.32.337l-.43.193zM866.393-26.846v-.529l2.153-.529v.577l-2.153.481zM1320.66 81.291v-.866h1.5c.43 0 0 .337 0 .53l-1.5.336zm62.11-6.494h3.87s.87 0 1.3.385h-1.4l-3.88-.337.11-.048zM99.31 108.951l-1.399-.241h1.292l.108.241zm158.886-1.539s.753.288.753.433v.529c0 .192-.215-.626-.215-.962h-.538zm873.974-2.213v.481c0 .192-.86 0-1.29 0-.43 0 0-.289 0-.433.42-.047.86-.063 1.29-.048zm-314.863-1.251l.538.433c-.465.021-.934.021-1.399 0v-.481c0-.192.323 0 .861.048zm-475.363-.866v-.433c0-.144.861 0 1.291 0 .431 0 0 .241 0 .385-.401.091-.842.14-1.291.145v-.097zm53.177-.529s.753-.481.861-.433a36.8 36.8 0 012.153.577l-.861.482-2.153-.626zm748.999.241l-1.08.433a9.03 9.03 0 01-1.4-.674h1.4l1.08.241zm60.28-.578c0-.384.65-.769.97-1.202.32-.433 1.29.337 1.29.433-.31.425-.67.842-1.08 1.25 0 0-1.18-.336-1.18-.481zM26.542 100.389a23.664 23.664 0 01-2.799-.53s.862-.529 1.077-.48c1.004.134 1.977.311 2.906.528 0 0-.861.482-1.184.482zM716.12-27.134v.337h-.969l.969-.337zm581.29 109.147s-.65.337-1.08.385a6.55 6.55 0 01-1.18-.24l.96-.386 1.3.241zm51.34-5.34l-2.58-.384s0-.53.75-.53c.89.068 1.76.181 2.59.337 0 0-1.19.577-1.3.577h.54zm-283.97 3.32c-11.3.529-22.49 1.154-33.8 1.443-2.47 0-5.16-1.251-7.53-1.828.61-1.529 2.42-2.91 5.1-3.897 2.68-.987 6.06-1.515 9.54-1.49 5.49 0 7.43 1.298 9.04 3.318.75 1.01 4.52.481 5.6-.817.48-.712.88-1.434 1.18-2.165a23.67 23.67 0 014.84-.147c1.62.116 3.16.396 4.5.818 1.34.422 2.45.976 3.23 1.618.79.642 1.24 1.356 1.32 2.088-1.72.53-2.69 1.01-3.55 1.059h.53zm-362.87-5.677a16.87 16.87 0 015.584-.051c1.811.293 3.313.877 4.213 1.639l-9.904 2.068c-3.23-1.683-3.768-2.982.107-3.656zm-75.351 1.3c-.11-1.988 1.423-3.923 4.306-5.436-1.723 2.26-1.615 4.136-4.845 5.339l.539.096zm-107 6.156a96.15 96.15 0 015.598-.817c.753 0 1.722.288 2.583.48.861.193-1.184 1.155-2.045 1.3-1.908.193-3.857.29-5.813.288l-.323-1.25zm557.711-4.28c0 .24-1.72 0-2.69 0v-1.733l3.01.241c-.75.53-.75 1.106-.75 1.395l.43.096zm-495.923 4.81h3.553v.288h-3.983l.43-.288zm158.025 1.587s-.647.481-1.077.481h-2.906l1.291-.818 2.692.337zm351.788 2.117h-1.4a1.587 1.587 0 010-1.01l2.9.288c-.63.2-1.32.36-2.04.481l.54.24zm-290.646-1.251c-.753 0-1.615-.433-2.476-.674.753-.24 1.507-.673 2.368-.673.862 0 1.615.385 2.476.577-1.83-.048-2.583.481-3.445.53l1.077.24zm-111.306-8.563s-1.076-.384-.968-.48c.49-.363 1.108-.688 1.83-.963 0 0 1.184.385 1.829.626l-2.691.817zm124.439 7.745v-.385c0-.144.861 0 1.184 0 .323 0 0 0 0 .337l-1.184.048zm-490.326-1.443c-.46.047-.939.047-1.399 0 .233-.233.562-.445.969-.625 0 0 .753 0 1.076.24-.15.148-.37.28-.646.385zm333.701-.24s-.753.384-.969.336a14.054 14.054 0 01-1.291-.48h1.184l1.076.143zm527.468-7.938v.481h-1.19l1.19-.48z" fill="#136FB6"/><path d="M1226.78 58.532c-.02-.005-.04-.01-.05-.015h.59c.84-.371 1.7-.838 2.36-.898.76-.069 2 .415 3.14.657-.66.172-1.33.483-2 .483-1.25-.005-2.5-.052-3.73-.139l-.01.001c1.99.561 4.26.974 6.69 1.215a51.7 51.7 0 007.91.166c5.8-.08 11.6.117 17.25.588 2.28.207 4 1.312 6.57 2.21.95 0 .86-2.107 3.91-.898 1.35.876 2.35 1.818 2.95 2.797-5.74.916 3.83 1.08 10.38 1.102 5.35-.536 9.52-.852 11.76-.801 4.94.235-.86 5.01-7.16 6.537-.02 1.245-3.2 3.477 1.66 4.463l6.61.5c4.95.173-9.62 3.43-4.38 3.43 3.51-.129 7.06.1 10.24.662 3.07.54 5.67 1.369 7.55 2.398 7.13.928 5.86 6.64-2.36 7.806 6.26.97 11.64 2.868 19.34 3.846-3.05.622-4.38 1.14-6 1.209-5.72.276-11.63.276-17.34.552-4.02.318 1.53 2.632-2.38 3.097l-7.05 1.358 15.24 1.106c-4.29 2.003-11.05 1.243-14.2 2.797 2.2 3.454 9.53 3.903 17.06 4.144 2.48 1.451 2.86 2.625 0 3.454-2.86.829-4.86 1.071-3.53 2.452 0 .414-1.52 1.209-2.86 1.623-3.62 1.14-7.43 2.176-11.81 3.454-3.16-.129-6.36-.129-9.53 0-3.28.351-6.47.813-9.52 1.381l1.9 2.211c-4.42.84-9.41 1.2-14.38 1.036-2.93-.114-5.89.104-8.47.624-2.57.519-4.64 1.314-5.92 2.277-1.38 1.029-3.58 1.885-6.31 2.457-2.74.572-5.88.835-9.03.754-20.29.748-40.68 1.083-61.07 1.002a449.989 449.989 0 00-46.3.829c-5.15.518-10.96-1.761-16.58-.518-5.37.837-11.24 1.158-17.05.932-2.86.106-5.73-.086-8.29-.552-1.23-.261-2.63-.399-4.05-.399-1.43 0-2.82.138-4.05.399-7.73 1.063-16.17 1.255-24.2.552-4.28-.184-8.62-.006-12.67.518-2.71.391-5.62.578-8.53.548-2.92-.03-5.79-.275-8.43-.72-1.67-.324-3.62-.398-5.43-.208-7.28 1.008-15.1 1.409-22.867 1.175-13.052 1.934-26.772 0-40.11.759a53.016 53.016 0 01-6.955-.414c-1.239 0-3.049-.483-3.621-.311-7.336 2.521-16.101.933-24.199 1.14-5.36.254-10.672.623-15.911 1.105 4.764.794 8.861 1.485 12.862 2.21.584.151 1.248.255 1.949.307.701.052 1.425.05 2.124-.005.7-.056 1.36-.163 1.938-.316.579-.153 1.062-.348 1.42-.573 1.719-.58 3.945-.922 6.289-.967 6.169-.419 12.538-.203 18.387.622l-1.524 2.314c5.907.656 7.813-2.245 14.005-1.244 4.72.333 9.572.333 14.291 0 1.239-1.83 3.716-2.935 9.528-2.935 18.384 0 36.874 0 55.254-.276 7.82 0 15.53-.346 23.35-.449 2.06-.068 4.14.037 6.07.307 1.93.269 3.67.696 5.07 1.247.54.109 1.15.166 1.77.166.61 0 1.22-.057 1.76-.166 1.59-.544 3.53-.938 5.63-1.148 2.11-.211 4.33-.232 6.47-.061 16.48.242 32.96.553 49.44.76h21.92l22.86.207c-5.71 1.727-12.38 0-17.43 1.692 18.58 1.175 37.15.173 57.16 1.693-2.76.759-4.19 1.519-5.9 1.623-6.2.38-12.58.518-19.06.829-4.27.224-8.5.535-12.67.932-5.11.557-10.61.409-15.43-.414-1.6-.361-3.38-.596-5.24-.691-5.63-.207-10.87.932-17.06 0-5.15-.492-10.52-.632-15.81-.414h-17.53c-12.49-.208-25.06-.588-37.54-.829-3.25-.199-6.59-.069-9.65.376-3.06.445-5.72 1.187-7.69 2.145-3.85-1.036-8.26-1.762-12.94-2.132a92.217 92.217 0 00-14.22-.009c-13.14.587-26.2 0-39.248.379-9.527.242-19.054.553-28.582.76-12.862.276-25.819-.276-38.681.277a189.43 189.43 0 00-10.099.379c-3.78.608-7.869.921-12.004.921s-8.224-.313-12.005-.921c-2.418-.438-6.38-.02-9.315.289l-.212.022c-6.011.74-12.566.641-18.388-.276a28.993 28.993 0 00-8.289 0c-9.145 1.197-18.885 1.679-28.582 1.416-1.924.057-3.852-.1-5.526-.449-1.178-.316-2.569-.511-4.026-.566a21.44 21.44 0 00-4.262.255c-6.526.701-13.423.82-20.103.346-7.241-.242-14.576-.001-21.817-.173h-2.954a709.213 709.213 0 00-28.582 0 612.307 612.307 0 00-32.869.276 22.79 22.79 0 01-4.097 0c-2.7-.411-5.615-.605-8.542-.57-2.927.036-5.799.301-8.417.777-1.715.208-4.478.518-5.43.242-5.907-1.865-11.052.242-16.006.345-1.362-.19-2.585-.491-3.575-.88-.99-.389-1.72-.854-2.134-1.362-.414-.507-.502-1.042-.255-1.563.246-.522.82-1.016 1.676-1.444 4.955-.173 10.195-1.209 14.958 1.105 1.62.794 6.193 1.002 9.528 1.002 6.288 0 12.576-.277 19.054-.415l5.05-2.59c-.667-.345-1.048-.794-1.715-.863-7.049-.484-14.099-.898-21.149-1.313h-.002c-5.953-.253-11.982.131-17.34 1.105-3.385.695-7.387.881-11.146.518-3.121-.477-6.474-.723-9.861-.723-3.387 0-6.741.246-9.861.723-8.194-.725-16.292.657-24.485 0a140.137 140.137 0 00-9.528 0c-1.429 0-3.049.346-4.287.173-14.863-1.727-29.725.449-44.493 0a229.451 229.451 0 01-13.052-.414 140.528 140.528 0 00-20.198-.449c-8.098.345-16.196-.242-24.39 0-16.006.276-32.012-.207-47.637-.449a433.857 433.857 0 00-23.818-.449 677.864 677.864 0 01-45.922-.311h-1.715c-16.006.173-32.012.622-47.636.483a714.925 714.925 0 00-37.538.622 63.723 63.723 0 01-7.146-.483 56.763 56.763 0 00-7.145-.38c-8.073.472-16.298.495-24.39.069h-.001c-3.81 0-7.717 0-11.527-.207-4.802-.223-9.64-.327-14.482-.311a490.636 490.636 0 01-36.394-.725c-9.487-.39-19.04-.529-28.582-.415-9.668.195-19.354-.249-28.582-1.312a304.281 304.281 0 00-18.292-1.623 98.72 98.72 0 00-6.956.345c-5.43 0-11.337.725-14.767-1.934-1.524-1.14-6.383-.829-8.956 0-1.566.675-3.695 1.148-6.065 1.347-2.371.199-4.856.114-7.082-.242 0 0-.572-.311 0-.38.571-.069 2.286-1.036 3.715-1.692a19.518 19.518 0 00-2.477-2.28c-7.24-4.8-12.862-5.594-27.343-3.764-1.334.173-2.382.691-5.431 1.623 2.191-2.037 3.24-3.453 4.764-4.489s5.716-1.555 10.385-.311a103.09 103.09 0 008.86 1.381c-2.096-3.453 3.049-5.871 0-8.737-.857-.864.857-2.073 1.429-3.109 1.67-1.438 2.167-3.021 1.43-4.558-.668-.691 1.142-1.624 1.523-2.487.762-1.865 4.383-3.453 3.525-5.491 0-.622 2.288-1.382 3.526-2.072l-8.575-1.485c-.762-1.382 2.096-1.002 3.43-1.313 2.953-.69.762-1.52 0-2.28v-.448c7.24-.622 10.29-3.868 19.055-3.73 1.238-1.14 2.572-2.245 3.81-3.453l-14.195-4.076 7.256-1.791c-6.534-.109-8.15-1.321-14.592-1.688-6.344-.162 17.205-5.317 10.861-5.155-3.716 0-7.622.45-10.861-.794 0-1.243 3.525-.794 5.335-1.209a71.328 71.328 0 006.288-1.278c1.62-.621 2.572-1.381 5.43-1.554 2.1-.221 4.14-.51 6.098-.863-2.477-2.832-10.48-1.036-14.1-3.108l-.858-1.175c-.292-.244-.418-.51-.366-.775.051-.265.278-.523.661-.75.383-.226.911-.416 1.54-.554.628-.137 1.34-.218 2.072-.235 3.35-.172 6.75-.172 10.099 0 11.437.864 23.242.864 34.679 0a166.71 166.71 0 0114.386 0c8.67-.172 17.245-.483 25.819-.828a318.437 318.437 0 0140.587.414c1.869.19 3.847.19 5.716 0 8.187-1.118 17.104-1.334 25.629-.622 5.811.484 5.907.242 11.337-2.037 7.908 1.9 7.908 1.761 18.293 1.52 10.384-.242 20.293-1.348 30.202.31 14.005-.656 28.01 1.174 42.11 0a40.28 40.28 0 015.717-.276c17.884.69 35.909.76 53.829.207h.011c18.479 0 36.864 0 55.343.449 5.557.18 11.067.514 16.482 1.002 4.764-1.934 11.147-.553 16.578-1.14a36.252 36.252 0 016.955 0c14.036 1.413 28.706 1.8 43.159 1.14a635.923 635.923 0 0136.299 0c8.235.102 16.48-.002 24.676-.311h19.054c32.012-.242 64.119-.242 96.131-.83 22.294-.413 44.493.208 66.691.208 22.199 0 44.779-.172 66.692.45a1469.7 1469.7 0 0065.262-.277c15.339-.242 30.678-.173 45.922-.276h36.299c5.542-.36 11.222-.36 16.772 0 5.52.547 11.31.653 16.95.31 4.3.114 8.57.345 12.77.691 2.29 0 5.72.242 6.86-.207 6.86-2.694 15.53-1.554 23.34-1.52 11.53 0 23.15.587 34.68 1.002 8.2.31 16.1-.484 24.39-.276 11.53.241 23.15 0 34.68.552h6.67s.82.295 1.2.295c1.49.522 1.42.86.65 1.056 9.38.282 28.16-.556 31.85-.556.64.244 2.5-.5 1.81.568-3.31.432-29.48 2.027-28.55 2.022 4.58 0 38.15-1.698 44.97-2.04l.03-.011c.01-.003.01-.005.02-.007z" fill="#fff"/><path d="M341.639 143.421a68.963 68.963 0 0112.859-.256l.19-.069.094.057c.805.484 1.318.794.859 1.359 2.477 1.623 5.43 1.658 7.526 1.243 2.096-.414 3.716-1.209 5.907-1.416 2.237-.245 4.645-.183 6.765.173 3.008.78 6.562 1.236 10.253 1.315 3.692.079 7.37-.221 10.612-.866 5.652-1.309 12.427-1.824 19.054-1.451 10.002.368 20.066.46 30.106.277 6.765 0 13.625-.346 20.294 0 22.579 1.174 45.35-.415 67.74 1.174 3.384.154 6.809.154 10.194 0a245.248 245.248 0 0119.055-.449c13.624.656 27.152.207 40.681.414a236.99 236.99 0 0123.151.518c2.619.21 5.331.217 7.958.021 2.627-.197 5.11-.592 7.286-1.16 1.334-.311 1.715-1.14 2.478-1.727l-9.528-3.039a230.297 230.297 0 01-15.816 1.243 285.105 285.105 0 01-17.053-.76 94.183 94.183 0 00-4.383 0l-46.589.173c-8.765 0-17.53-.035-26.2-.207-5.335-.138-7.622 1.105-10.099 2.555a160.502 160.502 0 00-9.527-.207c-5.431.173-4.573-2.037-8.479-2.625l-46.589-.725c-1.252.693-2.759 1.32-4.478 1.865-2.858.691-5.716 1.243-8.003-.587-.833-.4-1.913-.725-3.154-.946a22.59 22.59 0 00-3.991-.332c-2.287 0-4.574.898-5.717 1.14a94.179 94.179 0 00-9.527-1.243c-8.194-.173-16.387-.173-24.676-.173h-32.869c-.589.372-1.068.766-1.43 1.174-.19.691.477 1.381-2.858 1.52-3.334.138-2.286-.76-3.334-1.244-1.347-.673-3.362-1.131-5.622-1.277a496.547 496.547 0 00-20.293.345 20.742 20.742 0 00-3.26.313c-1.016.184-1.917.442-2.647.758-.395.312-.988.586-1.732.799-.744.213-1.616.359-2.545.426-.93.068-1.89.054-2.802-.039-.913-.093-1.752-.263-2.448-.496-1.718-.74-3.991-1.284-6.544-1.566a37.372 37.372 0 00-7.842-.022 109.71 109.71 0 01-18.197-.208 569.662 569.662 0 00-38.11-.552c-2.286.863-3.525 1.761-5.335 1.934-4.383.483-2.668-1.451-6.002-2.141h-9.528c-6.478.034-13.433-.449-19.054 1.657-1.144.38-6.003.38-6.67 0-3.81-2.175-7.622-.172-11.432-.172-1.811-.553-4.669-1.589-5.336-1.589-4.668 1.002-8.098-.38-12.004-.553a570.509 570.509 0 00-21.722-.69c-10.671-.035-21.341.38-32.012.38-6.735-.292-13.565-.044-20.008.725-2.191.414-6.193-.311-9.527-.484l-11.242-.483c4.632 1.593 10.602 2.578 16.959 2.797-3.811.449-6.765.898-4.479 2.28 4.59.549 9.268.999 14.006 1.347 15.911.828 31.726 1.519 47.637 2.21 4.739.42 9.728.262 14.195-.449 1.539-.284 3.285-.387 4.993-.294 1.708.093 3.293.377 4.535.812 4.668 1.381 9.622 2.107 14.958 0a15.646 15.646 0 012.599-.406 19.668 19.668 0 012.831-.009c5.766.211 11.493.545 17.149 1.002 7.908.656 8.385.691 17.436-1.865-1.43-2.176-8.194-.207-10.481-1.692 2.954-1.865 6.86-.346 10.29-.346 3.848-.207 7.733-.311 11.623-.31 3.811 0 7.622.241 10.861.241 2.001.76 3.335 1.244 4.573 1.796l.099.045c4.57 2.097 4.626 2.122 12.383.922 2.286-.345 3.524-.276 4.858.346.289.194.682.366 1.157.505a9.14 9.14 0 001.606.303c.586.061 1.199.079 1.805.053.605-.026 1.19-.096 1.72-.205 1.849-.757 3.273-1.636 4.192-2.59a54.884 54.884 0 018.48-.449c7.555.517 15.31.517 22.865 0 4.287 0 8.765.172 13.052 0 6.003-.311 4.002 2.901 10.386 2.659 2.968-1.16 6.709-2.023 10.864-2.507zM172.24 37.727c-5.717.414-6.384.276-14.672-1.727h20.388c-3.049.932-4.192 1.727-5.716 1.727zm61.927 13.193c-2.09.502-4.327.919-6.669 1.243l.191-.07a32.357 32.357 0 01-6.201-.023c-2.025-.206-3.863-.603-5.328-1.15 2.799-.503 5.881-.764 9.004-.764 3.123 0 6.204.261 9.003.764zm36.109 1.105c-1.048-.07-1.906-.864-3.621-1.727l11.052-.38c-.571 2.452-4.287 2.28-7.431 2.107zm185.973 2.037l-.115-.013c-5.527.978-8.718-.026-12.461-.263 3.971-.823 7.473-.319 12.461.263l.306-.056-.191.07zM247.88 49.59a7.777 7.777 0 011.436.017l.19-.069c1.048.07 1.906.587 3.144 1.14-1.619.38-2.572.863-3.716.829-1.143-.035-3.239-.415-3.239-.726-.084-.173-.045-.352.114-.518.159-.167.433-.316.795-.434.363-.117.802-.2 1.276-.238zm498.477 98.03l-13.052.38.19-.069c1.646-.627 3.882-1.006 6.264-1.064 2.382-.057 4.737.211 6.598.753zm544.773-74.356c3.62-.69 3.33.587 4.67 1.07l.09.07-4.76-1.14zm-391.002 74.218l-6.383.414.095-.967h6.288v.553zm-701.879-96.77c.762-.138 1.62-.345 2.286-.345a43.37 43.37 0 014.574.656 87.463 87.463 0 01-5.335.242c-.572-.035-2.287-.415-1.525-.553zm-64.5 4.386c-.19.208-1.048 0-1.048 0l.477-.414h1.238c-.126.156-.355.298-.667.414zm1083.921 1.624h1.15l.38.138c.12.076.22.157.28.242-.37.03-.76.03-1.14 0-.67-.035-1.05-.38-.67-.38zm-378.993 90.829v-.38l1.906.346v.414l-1.906-.38z" fill="#fff"/><path d="M1299.13 74.197h-3.43l-.09-.035 3.43-.242h1.24c-.38.277-1.15.277-1.15.277zM158.52 49.849l1.239-.173-.096.173h-1.143zm141.862.932s.3-.093.498-.185c.05-.269.169-.615.169-.505v.38c0 .034-.072.08-.169.125-.013.07-.021.135-.021.185h-.477zm773.528 1.244v.345a9.95 9.95 0 01-1.15-.034c0-.104-.38-.311 0-.311s1.15-.138 1.15 0zm-278.201.932l-.477.311c-.476.035-.762.173-.762.035v-.346c.412-.015.827-.015 1.239 0zM374.505 54.2v-.38c.397.004.788.04 1.143.104 0 .104.381.276 0 .276s-1.143.104-1.143 0zm47.827.38c-.095.035-.762-.31-.762-.31l1.905-.45.763.346c-.614.15-1.25.289-1.906.414zm661.198-.794l.95.31-.95.174h-1.24c.36-.178.78-.34 1.24-.484zm55.16 1.589c-.28-.311-.85-.587-.85-.864 0-.103 1.04-.345 1.04-.345.36.293.68.593.96.898 0 .069-.86.621-1.15.31zm-1045.813.828c.78-.161 1.613-.289 2.477-.38.286 0 1.048.346 1.048.346-.823.156-1.683.283-2.572.38-.19.035-.953-.346-.953-.346zm612.798 90.934v.241l-.857-.241h.857z" fill="#fff"/><path fill-rule="evenodd" clip-rule="evenodd" d="M7.334 88.488c1.279.5 2.426 1.03 3.43 1.582.412.206-.815.67-1.783.678-5.835.008-6.44-.13-9.674.17-6.092.562 2.74 3.634 7.202 1.424 3.258-1.617 4.789.389 16.828-1.82 3.198-.59 2.155-1.346 6.152-1.709 3.997-.363 3.99-1.286 4.631-2.318.8-1.272 4.14-1.028 6.508-1.379 1.138-.161 1.939-1.25-2.11-1.681-2.19-.236-9.354.218-15.653-.943-2.088-.386-10.263-.975-12.54-.685-3.586.453-7.074.353-10.71.222-1.345-.05-2.824.234-4.237.252-.9.006-3.295-.194-3.582-.505-.037-.08.019-.164.158-.237a33.61 33.61 0 004.742-.31c1.485-.21 2.788-.518 3.806-.898 3.841-1.422 3.933 1.63 13.6.577 4.554-.49 11.902-2.211 7.591-2.647-8.416-.852-14.74.602-23-.65-4.244-.633-3.761-1.507-2.623-1.658 4.69-.624 12.795-.334 19.12-3.29 1.418-.675 3.649-1.048 5.423-1.58.276-.104.463-.226.546-.355.082-.128.056-.26-.075-.384-.13-.124-.363-.235-.677-.326-.314-.09-.7-.157-1.126-.194-7.843-.431-10.406-.226-16.137-1.594-2.956-.711-4.507-2.37-.524-2.956 3.984-.585 8.337-.645 4.258-1.976-1.005-.325-2.169-.545-1.147-1.061 3.167-1.54 2.274-.636-3.093-3.548-3.97-2.166 5.07-3.093 7.156-3.025 7.135.23 7.574-.494 31.619-4.868 4.38-.798 3.622-1.629 2.483-1.68-8.23-.27-8.616-.13-15.135-.256-1.14-.021-2.958-.825-.123-1.102 16.442-1.625 71.857-13.565 78.158-12.228-3.094.758-5.263 1.774-9.27 2.22-1.317.182-2.443.466-3.253.82-6.919 2.74-9.816 2.367-22.051 5.787-3.81 1.066-6.927.123-8.798-.096-3.17-.364-2.753.576-10.805 2.662-.962.887 1.356 1.514.462 2.322-.396.355 2.193 3.668 16.318-.062 1.796-.476 3.343-.89 14.695-2.106 6.057-.648 5.7.45 12.53-.592 13.272-1.998 16.141-2.25 19.167-1.522 2.66.644 4.16.09 18.071-1.747 5.634-.747 3.61 1.212 3.625 1.69.18 4.178 54.82-7.73 84.811-9.428l-.229-.075c3.281 1.284 1.528 1.576 23.02-1.376 15.037-2.066 16.111-1.672 25.932-3.488 7.02-1.3 14.375-2.124 22.775-1.992 1.083.038 2.188-.01 3.201-.138 5.463-.912 11.911-1.038 17.294-2.036 2.468-.474 5.244-.79 8.14-.927 15.698-.605 61.244-8.194 67.174-7.532 7.448.84-44.914 8.206-46.052 8.36-12.146 1.652-5.892 1.375-15.737 2.909-58.287 8.982-29.241 4.36-48.424 6.79-1.138.142-50.719 6.18-52.853 7.157-2.43 1.112-11.954 2.982-7.532 2.988 8.694.01 20.307-2.873 25.597-2.479-1.298 3.06 11.482-.58-.375.113 3.406-1.651 15.064-3.106 21.84-3.534l-.24-.084c-2.742 1.981-24.244 6.499 33.842-1.864 10.051-1.446 117.632-16.518 135.055-19.526 8.057-1.39 8.415-.729 7.278-.488-2.003.421-1.381 1.25-3.178 1.646-9.022 1.98-25.04 3.893-33.799 5.874-.568.137-1.217.241-1.912.308-12.834 1.148-26.332 4.886-27.922 5.53-3.76 1.517-38.307 4.908-30.257 5.67.354.034 15.259-1.409 15.533-1.448 16.419-1.574 47.362-6.961 47.011-5.228-.231 1.142-13.854 1.964-16.036 4.11-1.414 1.383 9.742-.148 6.779 1.334-1.283.644-3.639 1.024-7.358 1.894-2.344.546.293 1.17 1.151 1.569.858.399-.827.594-4.355 1.21-17.776 3.1-9.431 2.065-25.32 4.536-11.45 1.776-14.513 3.55-32.574 6.563-47.401 7.895-20.788 7.03-21.32 7.496-28.107 5.199-12.619-.511-32.435 5.378-1.82.54-3.14-.706-4.179-1.03-2.513-.785-7.272 1.268-6.096 1.548 2.083.552 3.938 1.173 5.53 1.851 2.194.834 6.275-.38 7.63-.58 1.354-.2 2.886.387 1.999.65-4.548 1.363-1.139.064-11.619 3.52-5.698-.072-2.395-.257-9.744 1.404-4.038.905-7.682 1.205-5.602 1.943 1.359.482 6.595 2.714 11.094.866 4.18-1.72 5.473-.976 14.439-2.77 3.009-.622 6.467-1.03 10.087-1.19 2.279-.093 4.065-.48 6.126-.654 2.756-.234 8.174.452 8.583-1.222.519-2.088-3.152-.817-2.302-2.923.626-1.55-3.836-.968-6.912-.858-6.437.213 9.083-4.302 17.624-3.504l-.205-.071c-.93.645-3.221 1.991-1.122 2.334 2.601.402 7.064-.15 8.201-.458 2.752-.746 6.046-.641 9.282-.66l.068-.143c-6.451 1.425-9.822 1.64-10.632 4.46-.566 1.959 16.974-.681 18.236.432.298.254-1.555.813-1.736 1.077-1.443 2.004 21.396-3.59 29.185-4.241 1.452-.835 1.127-1.693 2.887-2.46.873-.359 1.231-.8.998-1.227-.234-.427-1.042-.806-2.246-1.053-3.07-.641-1.769-1.784-3.859-2.512-2.091-.729 16.644-3.45 20.295-2.964 7.985 1.069 6.382.101 16.238 1.537 3.423.492 10.75.466 11.059-.75.531-2.073 17.078-2.02 19.654-3.44 1.161 2.889-11.634 1.681-8.686 5.686.622.836 2.527 2.618 5.614 2.385 3.416-.262 6.994-.28 9.962-1.162 2.66-.798 6.671-.78 10.252-.458 4.276.383 3.139 2.175 16.52 2.571 23.936.714 20.812-2.435 10.745 4.396-3.718 2.527-9.826 2.488-5.883 4.032.846.326.329 1.287-1.128 1.431-5.295.532-9.011 1.847-14.157 2.461-.839.115-1.593.278-2.218.479-.625.2-1.108.434-1.42.689-1.802 1.3-3.607 2.104.166 2.36 1.619.108 4.274.077 4.04.717-.382.882-1.599 1.72-3.514 2.422-3.031.084-6.278.148-9.502.266-5.696.206-6.196-2.67-11.241-.675-.863.34-1.62 1.255-5.687 1.35-4.067.094-8.671 1.638-9.523 1.977-1.999.79-4.554.53-5.841.546-7.851.1-5.864 2.135-9.523 3.465-.955.34.415.662 1.338.585 9.759-.85 12.274-1.267 13.225-.613.71.496-1.858 1.39-2.996 1.574-10.243 1.674-5.56 1.634-11.111 2.96-8.144 1.946-10.647 2.407-9.607 2.778 1.039.37 3.851-.03 6.062-.047 1.037-.008 1.238.967.212.995-3.132.14-4.95.872-7.248 1.385-4.55.998 1.947 1.24-1.26 2.156-2.103.6-3.566.077-4.707-.137-1.849-.345-3.206-.504-14.041 1.25-.813.132-1.459.339-1.835.586-.375.248-.46.524-.24.783l-.422-.077c-1.843.347-1.843.347.006.771l.33-.056c-1.132.909-4.779.934-6.494 1.635-1.715.701 2.745 1.341 6.844.838 16.052-1.994-.207-.238 18.042-1.029 5.708 1.428-.702 2.082 6.006 3.124 1.141.177 1.934 1.008.375 1.369-3.628.835-4.562-.56-5.009-.889-1.33-1.019-3.863-.03-9.788.115-4.5.108-9.342 1.703-7.184 2.222 2.157.518 3.783-.063 11.08-.899a5.668 5.668 0 011.001.005c.322.031.604.089.808.167.205.078.324.173.341.272.018.099-.066.199-.241.285-2.141 1.008-5.398 1.776-9.214 2.174-3.415.359-6.006 1.259-9.858 1.328a3.44 3.44 0 00-.944.154c-4.864 1.791-13.532 2.233-13.252 3.145.187.623 3.013.548 4.154.752 2.75.491.181 1.264-1.209 1.381-4.464.367-7.625 1.228-10.432 2.26-2.204.811-6.33.753-.967 3.187 3.797 1.725 16.423.206 19.882-1.917 1.973-1.211 4.403.564 11.085-.301 15.403-1.992 20.786-4.306 26.821-4.92a396.189 396.189 0 0021.924-2.972c2.732-.43 3.183-1.098 3.565-1.835 8.793.949 1.394.507 13.085-.984 1.741-.176 3.364-.442 4.792-.785 7.708-2.238 12.403-.759 26.243-4.477 2.274-.615 18.103-4.97 22.073-4.415 5.818.812 5.486-.833 12.405-.517 6.258.284-8.187 2.245-10.587 4.37-.656.583 2.126.774 2.823 1.101 2.196 1.023 2.287 1.006 6.843.689l-.251-.085c.84 1.143-4.122 1.999-5.881 1.404-2.365-.789-3.868-2.159-11.53-1.224-3.837.472-3.582.971-7.973.513-.924-.095-2.611-.169-2.974-.033-5.489 2.035-22.985 4.386-10.972 4.735 1.619.048 1.845-.226 5.488 2.39 2.601 1.864-7.58 2.683-11.442 4.225-.643.257-1.519.457-2.526.577-6.239.682-11.197 1.993-16.876 2.95-3.005.508-2.873 1.388.015 2.03 2.523.549 1.609.25 1.609.25.301.596 1.3 1.585-1.238 2.036-10.515 1.865-12.649 2.925-19.001 3.824-10.039 1.426-10.41 2.133-16.453 3.117-37.399 6.071-36.284 5.803-37.056 6.241-2.337 1.347-18.976 4.026-22.551 4.476-21.049 2.646-21.032 3.377-32.893 5.113-3.415.498-4.106 2.4-8.942 1.889-1.448-.152-5.503.148-6.241.403-2.944 1.02-8.118.97-11.039 1.992-.363.126-.84.395-.52.516.857.325 1.676.153 6.833-.598 9.561-1.372 7.775 2.021 16.324.772 6.272-.912 11.152-1.979 12.716-1.642 3.561.77.68.991 54.074-6.994 5.6-.837 7.26.171 2.742.946-15.273 2.626-23.15 3.686-30.454 5.178-6.565 1.339-11.737 3.04-15.608 3.492-3.609.423-4.175-.6-8.17.036-45.913 7.299-21.968 4.753-48.084 9.419-3.521.08-4.243.989-5.685 1.665-1.141-.201-5.262-1.083-6.76-.28-.794.424.005.614 1.345 1.461-5.965 3.837-48.985 5.839-33.54 3.468 35.398-5.445-34.026 3.589 14.345-2.683 3.136.342 7.423-.457 10.702-.758-16.449 3.741 16.533-3.26 0 0-10.32 2.039 6.49.711 0 0-1.136.401 1.349.588 0 0-2.286-.979.592 1.183.537-.059-.005-.665-4.697 2.452-6.815 2.73-5.156.688-5.12 1.016-10.248.966-1.584-.011-2.159-.688-1.238-.898 5.04-1.148 9.104-1.681 7.062-1.981-5.134-.744-40.867 6.979-44.077 5.957.815-.671 8.717-1.549 6.322-3.288-2.028-1.467-.477-2.781-7.876-3.216-2.862-.167-3.612-1.394-6.711-1.384-2.393.019-4.76.499-7.326.209 3.5-1.246 5.002-1.613 4.132-2.071-4.199-2.211-15.858-1.022-18.404 1.417-.452.428-3.417.165-6.07.455-3.063.329-5.507 1.076-8.936 1.195a6.785 6.785 0 00-.976.131 3.124 3.124 0 00-.719.234c-1.997 1.158-6.607 1.815-5.681 2.226 1.384.614.482.379 7.751.207 7.269-.172 4.921-1.663 10.753-1.953 6.55-.326 12.366-1.275 18.514-1.94-8.502 4.268 1.921.889-3.028 4.795-.34.268-2.279.087-2.679-.103-2.825-1.33 1.4-1.672-6.753-2.447-14.794 2.596-17.699 2.817-19.339 4.332-1.788 1.612-6.616 2.067-4.65 2.966 1.636.748.134 1.099-5.516 2.793-3.888 1.166-4.088.364-11.104.886-4.658.338-3.289-2.447 1.044-3.513 16.162-3.988 7.682-5.747 4.348-3.688-1.51.866-3.894 1.581-6.822 2.046-.728.128-2.017-.011-3.031-.024.275.134 1.057-.317 1.296-.458 3.256-1.856-4.497-.896-7.145-1.414a4.217 4.217 0 01-.34.149l.671-.085c-4.702 3.518-7.116.759-12.947 2.721-3.103 1.044-5.008 2.231-6.633 1.317-5.837-3.278 9.096-2.665 7.784-5.845-.814-2.03-1.914.082 3.306-4.211.612-.503-3.429-1.422-7.493.609-4.064 2.031-10.628 3.49-17.056 4.885-1.524.327-6.243.194-9.42 1.973-2.541 1.421-11.646 2.99-13.043 2.123-2.29-1.391 6.536-2.146 11.016-3.457 9.54-2.791 4.536-2.905 4.435-4.137-.004-.521-1.228-1.176 1.221-1.292 2.45-.115 1.6.653 1.595 1.423.002.333 2.376.726 3.331.556 1.707-.309 4.916-.895 5.938-1.394 2.93-1.431 16.902-4.117 16.425-6.901-.215-1.244-5.387-1.091-6.41-.725-3.568 1.27-1.923 1.886-7.021 2.742-5.099.857-6.115.515-13.74.335.43-.422.735-.72 1.017-1.021 7.822-.918 6.047-2.087 3.895-1.788-4.78.665-3.526.825-3.563 1.885-7.196-.626-9.398.464-11.392.419-8.81-.211-4.948-.324-13.134.629-.501.061-1.347-.255-.915-.451 1.771-.814 4.406-.486 4.195-1.218-.316-1.071-3.272-1.683-5.503-1.36-1.263.186-2.446.427-3.8.667-2.283-.395-4.212-.882-6.493-1.11-2.281-.228-2.163-1.179-4.715-1.087-3.953.144-7.249 1.299-6.27-.483.839-.492-.836-.419 11.061-1.829 1.139-.135 2.75.467 3.674.526.74.048 2.425-.171 2.161-.461-.816-.928-1.588-1.982-4.73-1.665-6.832.683-12.944 1.687-12.03 3.517-4.037-.497.11-.559-11.674.755-3.677.41-2.934-.785-2.857-1.118.088-.423 5.85-.942 4.852-3.267-.128-.305 1.227-.448 2.367-.44l-.172-.058c5.49 2.552 11.833.573 19.828-1.538 3.81-1.026-3.179-1.358 4.662-2.797.364-.066.305-.361.292-.547-.013-.186-3.078-.185-3.988.031-3.856.95-11.58 1.142-15.23.662-.897.475 1.51-.653-1.343-1.133-2.282-.395-4.843.007-7.169-.178-.172-.188-.675-.42-.46-.554 1.26-.771.785-1.634 1.691-2.386.781-.67 2.737-1.193 4.169-1.786 4.955-.191 4.137 1.57 7.592 1.909.512.049.944.15 1.216.285.273.135.369.295.271.451-.255.902 2.117 1.18 3.813.821 10.819-2.289 10.238-2.281 8.18-4.674-1.737-2.076-5.169-.831-10.162-1.141-4.994-.311-8.43.34-10.802 1.564-.42.216.107.581.2.879a180.185 180.185 0 01-11.4-.64c.792-2.215 7.845-3.768 8.982-4.109.728-.215.13-.878-1.66-.898-8.056-.087-8.256.585-14.807.749-3.02.076-4.802.897-7.01 1.326-.78.783-1.481 1.486-2.17 2.189.407-.302-2.57-.717-4.64-.157-11.94 3.242-10.312 3.103-9.995 4.223.02.263-.258.522-.793.737-.534.215-1.295.374-2.161.452-7.563.517-7.608.524-13.662 1.643a12 12 0 01-1.878.307c-.626.005-1.687-.077-1.881-.208-2.291-1.551-5.188-3.266-1.51-3.67 10.418-1.14 12.047-1.199 13.093-1.555 5.944-2.01 16.243-2.358 17.787-4.516.136-.19.51-.512.862-.525 4.762-.176 5.55-1.544 8.335-2.3 15.318-4.157 5.813.109 18.787-5.008.212-.141.242-.298.083-.442-.159-.144-.494-.264-.944-.339-.65-.051-1.676-.13-1.983-.038-8.493 2.488-9.624.652-9.82 3.235l.113-.09c-6.148.761-3.416.385-9.01.444-1.584.012-2.994.478-4.898.29 1.194-1.746 1.9-1.848-4.072-1.919l.32.084c1.74-.428 4.05-.855 5.831-.46 4.349.964 2.54-.139 9.107-1.163.912-4.419.983-4.034-8.59-2.655-1.608-.257-.187-.643-.007-.997 1.26-2.195-6.58-2.079-1.96-2.928.922-.17 1.97-.284 2.857-.464.576-.133.973-.321 1.117-.53.145-.209.029-.424-.328-.606-3.85-1.359-5.8-1.367-4.074-2.241.658-.337 5.055-2.032.358-2.388-17.548-1.387-10.716-.583-11.81-1.996-.748-.971-8.472-.686-11.728-.342-20.939 2.214-21.99 1.803-32.099 3.206-.607.119-1.297.196-2.015.225-7.67-.12-15.139.701-22.786.57-2.86-.047-2.612-.312-4.368-1.96 7.885-1.465 14.252-3.355 20.63-5.211 2.897.24 5.303.374 8.33-.157 7.43-1.31 14.018-1.184 15-2.298 2.814-3.198 9.639-1.802 22.644-4.417 1.604-.324-1.045-1.022-2.287-.979-4.238.159-7.301 1.854-12.84.218 7.048-2.134 9.02-.67 12.684-1.286 14.556-2.438 1.737-3.858-14.907-1.79-3.416.425 3.359 1.187-2.064 2.83-2.785.845-7.7.541-11.687 3.578-.374.286-5.009.647-5.966.711-6.833.497-7.982-.776-21.178.677-1.674.186-5.275.157-2.009-1.882.601-.373 2-.679.858-1.113-3.064-1.192-2.746.081-.81-1.449 1.134-.856-2.001-.981-4.216-1.549-.845-.219.427-.781 3.126-.961 7.255-.484 6.814-3.042 7.364-4.216.571-1.263 5.826-1.085 12.283-1.55 8.234-.59 11.304 1.416 20.103.215 10.804.12 9.458-.036 10.785.652 3.993 2.069 7.621-.308 20.26-1.707 3.665-.407 2.766-1.733-.81-1.609-6.904.243-5.764.45-10.49.872-2.823.25-1.882 1.187-5.515 1.394-1.59-.835.092-1.33-20.994-.503-3.817.145-3.944-.067-6.843-.752 4.061-.878 11.383-1.612 14.082-1.852 9.77-.853 4.359-2.153 12.185-2.42 3.293-.108 2.49.69 2.04 2.925 3.607.783 3.63-.712 6.83-.996 18.732-1.692 6.618-1.798 12.99-3.003 1.957-.367 4.237-.245 6.39-.305 4.922-.134 4.554-.547 5.68-2.197-.215.108 2.258.143 2.944.383zM315.696 121.9c.877 1.415-.168 1.928 4.415 2.139 5.141.233 16.588-.46 12.947-2.671-.538-.328-2.856-.938-1.15-1.36 10.759-2.721 11.818-2.818 10.994-3.281-1.144-.635-7.817.021-10.74.747-1.391.343-2.964.615-4.654.807-4.851.522-9.106 1.345-13.226 2.095-1.134.673-1.756 1.279-1.033 1.921-2.587.057 1.994-.008 2.447-.397zm-162.415 38.909l-.41.063c.447.329 1.654 1.698 4.933 1.291 10.406-1.246 14.175-1.594 17.14-2.76 4.34-1.694 8.165-.727 6.919-2.75-1.673-2.709-7.621-1.131-5.197-2.994.294-.224.351-.468.164-.698-.188-.231-.61-.438-1.212-.595-.603-.157-1.358-.256-2.167-.284a13.15 13.15 0 00-2.368.125c-14.798 2.064-24.681 3.196-18.993 4.887 2.947.874-1.298 1.548-2.262 2.147-2.825 1.736 1.523 2.523 3.453 1.568zm55.698-80.498c1.534 2.43-.172 2.815 14.486.407 3.415-.555-.113-2.966-3.923-1.987-2.082.535-4.051.812-6.834.475-2.019-.27-3.485.299-3.729 1.088v.017zm25.459-2.68c.294 1.1 14.157.502 14.805-1.204.814-2.246-15.309-.683-14.805 1.187v.016zm78.602 47.15c-2.745.235-5.155.735-6.826 1.418-1.534.556 1.24 1.256 3.295 1.699 2.282.484 8.216.013 6.507-1.379-1.605-1.277.469-1.279-2.976-1.755v.017zm-181.338 39.423c.57.065 1.582-.195 1.41-.31-3.15-2.185.789-2.607-3.199-2.633-5.767-.043-6.394-.101-5.84.852.866 1.482-.709 1.112 7.628 2.074l.001.017zm-41.87-6.443c-.073.964 6.708 1.011 8.954-.308.133-.094.192-.194.174-.294-.019-.1-.115-.197-.281-.284-4.616-1.539-8.796.188-8.848.886zM370.515 91.78c2.393.022 3.954-.097 4.555-.394 3.191-1.486-4.34-2.737-4.571-1.689-.074.705.011 1.399.016 2.096v-.013zm16.464-3.286c-.657.5 3.895 1.256 7.341.276 2.99-.814-4.86-2.156-7.341-.263v-.013zM254.903 68.575c-.426-.552-9.855.182-9.104 1.591.347.629 10.002-.438 9.104-1.588v-.003zm-44.712 7.835c-2.422-.766-6.721.314-5.69.92 1.75.967 7.815-.249 5.69-.917v-.003zm-5.143 5.482c-1.678-.39-4.99.127-4.903 1.077.101 1.202 10.577.235 4.903-1.074v-.003zm165.37 6.14c-3.855-.469-6.077 1.02-4.277.976 3.133-.077 5.269-.854 4.277-.973v-.003zM23.154 62.252c-1.918-.516-2.422-.875-3.91-.302-.158.055-.261.121-.3.191-.039.07-.011.141.08.206.09.065.242.12.436.161.194.041.425.065.666.07a38.825 38.825 0 003.028-.326zm14.292-7.213c-.65-.068-1.324-.209-1.916-.18-1.766.08-.55 1.043.962.696.478-.11.647-.337.954-.512v-.004zM217.02 75.361c-.435-.276-2.904.158-1.683.375.696.134 2.199-.044 1.683-.372v-.003zM-8.369 98.925c-.422-.143-.628-.281-.868-.286-5.368-.085-3.14.582-2.001.56a35.777 35.777 0 002.87-.27v-.004zm312.952 24.136c-.64-.258-2.45-.031-1.138.257.457.11 1.412-.147 1.138-.254v-.003zm-378.535-15.649c-1.879.134-.167.513.664.327.099-.032.16-.073.175-.115.016-.043-.016-.085-.09-.121a1.012 1.012 0 00-.322-.08 2.24 2.24 0 00-.427-.008v-.003zm389.32 2.941c.148.075.343.226.434.222 3.224-.211.303-.71-.434-.219v-.003zM14.887 129.828l-.158.167c.922-.06.9-.02.158-.164v-.003zm43.332 18.752c-2.417-.171-1.858-.092-2.427.108 2.009.37 1.36.352 2.404-.105l.023-.003zm-3.941-8.718c-.709-.254-.378-.243-1.277-.037.674.241.412.233 1.277.04v-.003z" fill="#fff"/><path fill-rule="evenodd" clip-rule="evenodd" d="M81.114 69.857c.827-.313 1.58-.664 2.254-1.05.274-.14-.378-.666-.946-.767-3.429-.574-3.805-.512-5.66-1.09-3.498-1.084 2.156-2.912 4.447-.544 1.672 1.73 2.873.125 9.618 3.229 1.791.827 1.064 1.387 3.36 2.093 2.294.706 2.151 1.514 2.373 2.479.279 1.19 2.28 1.302 3.618 1.839.645.252.952 1.283-1.493 1.266-1.322-.007-5.466-1.1-9.343-.698-1.286.135-6.18-.146-7.475-.62-2.04-.746-4.105-.998-6.262-1.237-.798-.087-1.625-.48-2.453-.632-.528-.094-1.966-.15-2.181.093-.034.067-.014.145.056.222.962.155 1.9.406 2.742.734.84.328 1.56.724 2.102 1.155 2.044 1.618 2.557-1.044 8.08.819 2.604.871 6.665 3.092 4.066 3.053-5.076-.073-8.575-1.96-13.62-1.668-2.589.14-2.436.952-1.79 1.195 2.663 1.003 7.47 1.537 10.744 4.738.733.73 1.988 1.272 2.95 1.91.147.118.24.243.268.364a.336.336 0 01-.101.329c-.096.095-.25.17-.448.219-.198.049-.435.07-.69.06-4.676-.385-6.151-.815-9.726-.175-1.845.334-3.007 1.635-.753 2.535 2.254.9 4.803 1.376 2.206 2.143-.64.186-1.357.266-.834.817 1.63 1.655 1.24.777-2.352 2.803-2.66 1.508 2.515 3.198 3.751 3.343 4.23.492 4.379 1.168 17.855 7.334 2.456 1.124 1.885 1.778 1.207 1.711-4.878-.565-5.085-.724-8.936-1.248-.673-.092-1.862.434-.237.952 9.42 3.021 40.2 18.858 44.105 18.301-1.705-.964-2.827-2.064-5.116-2.844-.746-.287-1.366-.645-1.789-1.033-3.654-3.071-5.414-3.027-12.092-7.209-2.079-1.303-4.053-.781-5.186-.772-1.918.01-1.532-.772-5.951-3.379-.432-.871 1.025-1.193.621-1.987-.18-.349 1.841-2.995 9.583 1.642.984.591 1.831 1.103 8.321 3.272 3.464 1.156 3.42.16 7.277 1.736 7.501 3.04 9.15 3.539 11.038 3.197 1.661-.305 2.459.325 10.36 3.286 3.2 1.202 2.305-.709 2.386-1.126.734-3.638 31.063 12.095 48.437 16.499l-.146.043c2.122-.804 1.136-1.231 13.325 3.443 8.529 3.27 9.22 3.03 14.719 5.574 3.932 1.82 8.132 3.257 13.089 3.959a8.16 8.16 0 011.861.431c3.074 1.33 6.846 2.067 9.86 3.464 1.38.655 2.964 1.201 4.646 1.603 9.137 2.056 34.769 13.126 38.355 13.124 4.504-.01-25.168-11.548-25.814-11.794-6.892-2.626-3.257-1.776-8.814-4.075-32.912-13.529-16.533-6.66-27.444-10.652-.648-.234-28.885-10.34-29.993-11.402-1.261-1.209-6.578-3.772-3.978-3.347 5.112.837 11.505 4.489 14.674 4.659-.303-2.804 6.663 1.624-.203-.135 1.754 1.775 8.388 4.182 12.307 5.215l-.154.051c-1.314-2-13.274-8.044 19.613 4.923 5.691 2.243 66.665 25.894 76.454 30.22 4.528 2.001 4.838 1.457 4.205 1.135-1.114-.563-.623-1.228-1.62-1.749-5.006-2.61-14.134-5.842-18.985-8.427a5.813 5.813 0 00-1.078-.455c-7.372-2.253-14.744-6.836-15.582-7.554-1.982-1.693-21.78-8.021-16.933-7.905.213.005 8.758 2.718 8.913 2.778 9.415 2.975 26.794 10.698 26.849 9.147.036-1.021-7.849-3.065-8.809-5.156-.623-1.347 5.705 1.077 4.186-.507-.657-.688-1.985-1.25-4.041-2.372-1.295-.706.349-.996.913-1.261.564-.266-.397-.601-2.378-1.482-9.983-4.441-5.233-2.725-14.202-6.432-6.463-2.667-7.997-4.518-18.161-8.91-26.677-11.519-11.163-8.173-11.405-8.632-15.74-7.283-7.495-.781-18.258-7.861-.988-.649-1.952.313-2.612.495-1.595.443-4.084-1.817-3.35-1.947 1.307-.281 2.491-.644 3.529-1.082 1.415-.516 3.632.943 4.398 1.25.766.306 1.755-.058 1.273-.374-2.468-1.635-.66-.168-6.301-4.211-3.36-.49-1.446-.007-5.516-2.175-2.238-1.185-4.335-1.802-3.001-2.246.871-.289 4.285-1.732 6.651.323 2.199 1.911 3.071 1.386 8.072 3.827 1.675.837 3.646 1.531 5.751 2.022 1.325.304 2.317.815 3.502 1.169 1.585.473 4.873.4 4.861 1.904-.008 1.877-1.975.408-1.792 2.333.135 1.417-2.401.473-4.192.078-3.752-.812 4.692 4.648 9.833 4.78l-.132.043c-.449-.655-1.594-2.056-.308-2.152 1.59-.098 4.13.819 4.752 1.199 1.506.92 3.458 1.149 5.357 1.48l.018.132c-3.577-1.874-5.526-2.391-5.578-4.937-.039-1.768 9.875 2.248 10.784 1.397.214-.193-.792-.863-.858-1.111-.547-1.894 12.037 5.222 16.518 6.549.728.872.408 1.591 1.327 2.434.459.398.604.819.402 1.17-.202.351-.733.604-1.478.703-1.902.262-1.308 1.388-2.647 1.822-1.339.434 9.266 4.638 11.485 4.567 4.854-.158 3.766.532 9.777.235 2.085-.098 6.389.638 6.388 1.731 0 1.866 9.735 3.43 11.035 4.922 1.118-2.414-6.585-2.602-4.25-5.819.491-.67 1.879-2.045 3.659-1.541 1.969.562 4.069.925 5.681 1.987 1.444.957 3.805 1.33 5.958 1.397 2.571.082 2.172-1.598 10.098-.642 14.177 1.704 11.868 4.155 6.978-2.801-1.806-2.572-5.403-3.132-2.852-4.1.546-.202.387-1.093-.448-1.361-3.033-.981-5.02-2.492-7.952-3.53a5.738 5.738 0 01-1.232-.635c-.337-.236-.586-.488-.731-.741-.864-1.312-1.804-2.191.453-2.049.968.064 2.524.349 2.482-.234-.092-.808-.681-1.661-1.701-2.461-1.769-.367-3.668-.74-5.545-1.157-3.318-.734-4.045 1.734-6.71-.503-.457-.38-.763-1.255-3.14-1.734-2.377-.478-4.851-2.276-5.301-2.655-1.056-.886-2.597-.907-3.351-1.047-4.6-.851-3.126-2.438-5.077-3.958-.51-.39.344-.538.874-.381 5.61 1.692 7.025 2.302 7.682 1.823.493-.365-.883-1.397-1.524-1.669-5.77-2.46-3.023-1.971-6.086-3.67-4.495-2.495-5.897-3.142-5.23-3.365.667-.223 2.26.401 3.556.63.609.108.874-.725.275-.849-1.82-.428-2.779-1.245-4.052-1.917-2.525-1.316 1.331-.896-.417-2.008-1.146-.73-2.084-.415-2.787-.339-1.139.122-1.961.129-8.066-2.46-.458-.194-.807-.438-.99-.69-.184-.254-.192-.503-.024-.709l-.26.026c-1.031-.482-1.031-.482.12-.674l.186.081c-.529-.905-2.669-1.282-3.572-2.062-.903-.78 1.815-.906 4.149-.067 9.136 3.306-.158.188 10.451 2.655 3.571-.694-.099-1.89 4.001-2.148.697-.044 1.288-.694.426-1.162-2.007-1.083-2.766.046-3.078.29-.935.763-2.275-.349-5.736-1.052-2.63-.532-5.236-2.399-3.89-2.642 1.347-.244 2.215.422 6.379 1.864.19.056.395.088.589.093.194.004.368-.02.5-.068s.216-.12.241-.205c.026-.085-.009-.18-.098-.273-1.108-1.09-2.906-2.079-5.09-2.798-1.954-.646-3.341-1.685-5.595-2.12a1.46 1.46 0 01-.532-.227c-2.59-2.04-7.619-3.27-7.317-4.04.204-.527 1.854-.187 2.555-.254 1.691-.162.297-1.089-.503-1.326-2.569-.755-4.297-1.817-5.792-2.992-1.174-.924-3.608-1.275-.089-2.882 2.491-1.14 9.685 1.417 11.399 3.61.978 1.252 2.673-.065 6.471 1.342 8.755 3.241 11.571 5.79 15.026 6.914a162.762 162.762 0 0112.441 4.733c1.541.642 1.706 1.27 1.819 1.952 5.312.025.896-.308 7.545 2.134.996.323 1.911.713 2.698 1.152 4.195 2.709 7.177 1.871 14.754 6.47 1.244.76 9.894 6.109 12.311 6.01 3.542-.145 3.1 1.263 7.215 1.659 3.721.361-4.475-2.761-5.566-4.853-.298-.574 1.366-.471 1.825-.689 1.445-.681 1.495-.657 4.126.063l-.161.05c.666-.918-2.122-2.149-3.245-1.8-1.509.46-2.599 1.513-6.962-.051-2.185-.786-1.96-1.198-4.61-1.225-.557-.006-1.56-.105-1.753-.26-2.921-2.314-12.852-6.073-5.738-5.21.959.116 1.05.378 3.586-1.557 1.809-1.377-4.052-3.084-6.091-4.809-.339-.287-.824-.547-1.398-.75-3.565-1.205-6.282-2.833-9.477-4.223-1.689-.737-1.479-1.494.315-1.775 1.565-.234.983-.062.983-.062.267-.492 1.003-1.26-.421-1.902-5.901-2.654-6.996-3.789-10.595-5.193-5.687-2.225-5.798-2.88-9.203-4.328-21.071-8.95-20.456-8.606-20.844-9.064-1.171-1.406-10.549-5.369-12.583-6.11-11.976-4.363-11.856-5-18.567-7.673-1.932-.768-2.053-2.5-4.972-2.523-.875-.008-3.213-.665-3.609-.96-1.577-1.178-4.626-1.637-6.189-2.816-.195-.145-.434-.428-.228-.502.553-.201 1.008.03 3.927 1.188 5.414 2.13 4.874-1.011 9.712.912 3.549 1.408 6.258 2.817 7.228 2.674 2.209-.327.548-.801 30.735 11.379 3.166 1.277 4.293.557 1.754-.561-8.583-3.783-13.054-5.477-17.124-7.492-3.657-1.81-6.442-3.802-8.649-4.573-2.058-.722-2.545.118-4.797-.827-25.892-10.852-12.199-6.296-26.85-12.918-2.057-.413-2.345-1.278-3.091-2.01-.701.065-3.256.436-4.016-.412-.403-.449.096-.537 1.011-1.148-2.93-3.936-27.918-9.873-19.195-6.296 19.989 8.207-19.462-6.45 8.029 3.742 1.895.006 4.295 1.122 6.177 1.705-9.106-4.873 9.228 4.46 0 0-5.759-2.788 3.922.009 0 0-.608-.461.882-.383 0 0-1.491.634.526-.978.307.104-.103.58-2.393-2.602-3.595-3.052-2.928-1.103-2.857-1.387-5.879-1.842-.933-.144-1.373.392-.863.665 2.79 1.495 5.098 2.356 3.853 2.42-3.13.152-22.974-10.08-25.014-9.499.378.667 4.891 2.203 3.221 3.492-1.412 1.085-.698 2.386-5.113 2.047-1.708-.132-2.333.868-4.153.558-1.404-.25-2.723-.9-4.275-.896 1.87 1.43 2.697 1.898 2.117 2.214-2.801 1.526-9.476-.649-10.605-3.03-.202-.419-1.984-.477-3.5-.988-1.751-.586-3.076-1.477-5.074-1.915a2.863 2.863 0 01-.554-.21 1.457 1.457 0 01-.387-.274c-1-1.208-3.611-2.23-3.004-2.5.905-.403.34-.285 4.587.573 4.247.857 2.643 1.933 6.027 2.754 3.801.923 7.077 2.318 10.592 3.498-4.356-4.56 1.263-.59-1.059-4.489-.16-.268-1.327-.298-1.59-.17-1.861.889.571 1.598-4.338 1.483-8.307-3.71-9.98-4.186-10.717-5.67-.809-1.585-3.578-2.453-2.287-3.048 1.074-.496.244-.948-2.823-2.98-2.11-1.399-2.348-.716-6.394-1.856-2.687-.748-2.301 1.821.086 3.176 8.901 5.06 3.651 5.775 2.001 3.65-.758-.906-2.051-1.763-3.703-2.454-.408-.184-1.187-.187-1.785-.275.181-.09.574.38.693.527 1.635 1.94-2.778.347-4.413.542a2.145 2.145 0 00-.178-.163l.382.14c-2.235-3.536-4.069-1.357-7.201-3.64-1.667-1.215-2.609-2.44-3.702-1.798-3.924 2.3 4.947 3.216 3.697 5.87-.784 1.698-1.113-.257 1.31 4.007.284.5-2.23.91-4.313-1.262-2.084-2.173-5.723-4.088-9.291-5.933-.847-.435-3.641-.777-5.241-2.642-1.28-1.491-6.396-3.749-7.348-3.127-1.555.994 3.519 2.514 5.956 4.096 5.187 3.37 2.229 2.983 1.984 4.05-.08.457-.899.91.524 1.25 1.422.339 1.039-.415 1.151-1.09.052-.29 1.506-.404 2.043-.162.956.436 2.755 1.26 3.28 1.797 1.507 1.537 9.317 5.246 8.617 7.635-.313 1.068-3.331.431-3.877.01-1.906-1.457-.846-1.836-3.715-3.08-2.868-1.246-3.517-1.047-8.026-1.63.189.41.323.701.444.992 4.46 1.563 3.241 2.413 2.021 1.943-2.71-1.047-1.949-1.065-1.811-1.996-4.324-.152-5.455-1.32-6.634-1.475-5.211-.672-2.957-.198-7.626-1.828-.286-.102-.83.093-.606.306.919.885 2.517.853 2.283 1.474-.347.906-2.176 1.154-3.439.654-.715-.285-1.374-.612-2.134-.953-1.401.123-2.609.361-3.984.34-1.375-.023-1.449.82-2.935.491-2.302-.51-4.066-1.84-3.759-.187.42.512-.554.286 6.228 2.677.649.229 1.687-.142 2.238-.104.443.03 1.401.386 1.202.614-.62.732-1.232 1.58-3.032.997-3.913-1.263-7.355-2.736-6.542-4.248-2.448.042-.019.5-6.749-1.795-2.1-.717-1.843.401-1.848.7-.012.378 3.297 1.393 2.361 3.33-.121.254.654.51 1.325.615l-.109.034c3.61-1.699 7.042.65 11.424 3.274 2.085 1.268-2.073.879 2.32 2.9.204.094.124.346.089.508-.036.161-1.837-.137-2.34-.415-2.124-1.206-6.635-2.126-8.853-2.06-.456-.504.789.717-.96.86-1.4.123-2.845-.478-4.24-.542-.13.147-.46.302-.354.44.624.797.215 1.506.635 2.251.358.663 1.429 1.311 2.181 1.968 2.885.65 2.668-.97 4.751-.93.308.007.577-.04.757-.131.181-.092.261-.223.228-.369-.015-.814 1.422-.826 2.364-.348 6.016 3.055 5.676 2.992 4.106 4.885-1.333 1.648-3.164.224-6.146.01-2.982-.214-4.904-1.117-6.114-2.42-.215-.229.15-.497.25-.749a72.795 72.795 0 00-6.798-.549c.132 2.016 4.045 4.06 4.662 4.469.395.259-.056.78-1.11.624-4.75-.707-4.766-1.315-8.593-2.095-1.763-.36-2.688-1.252-3.92-1.842-.341-.762-.648-1.445-.947-2.127.194.304-1.619.378-2.751-.314-6.532-3.997-5.595-3.717-5.24-4.667.05-.228-.074-.481-.356-.722-.282-.24-.705-.453-1.202-.605-4.368-1.188-4.394-1.199-7.784-2.767a4.96 4.96 0 00-1.058-.45c-.367-.066-1.003-.098-1.137-.002-1.58 1.134-3.54 2.353-1.44 3.064 5.953 2.01 6.902 2.22 7.463 2.634 3.192 2.336 9.194 3.643 9.777 5.681.05.18.222.498.428.543 2.772.618 3.03 1.891 4.553 2.823 8.38 5.128 3.433.471 10.29 6.21.104.143.098.283-.017.394-.115.11-.33.183-.606.205-.39-.019-1.005-.05-1.171-.16-4.619-3.002-5.56-1.507-5.287-3.786l.053.09c-3.499-1.264-1.95-.668-5.23-1.265-.929-.165-1.687-.71-2.835-.73.44 1.644.839 1.802-2.682 1.283l.2-.042c.96.544 2.253 1.142 3.359.97 2.701-.42 1.472.368 5.179 1.903-.129 3.954-.03 3.625-5.449 1.487-.984.068-.207.544-.154.871.41 2.044-4.181 1.179-1.593 2.372.516.238 1.115.44 1.61.683.318.173.523.376.577.573.053.196-.047.373-.285.498-2.468.814-3.614.632-2.731 1.564.336.36 2.666 2.27-.15 2.124-10.524-.493-6.386-.533-7.242.598-.586.776-5.083-.224-6.946-.842-11.975-3.974-12.655-3.717-18.386-5.928a5.521 5.521 0 00-1.151-.393c-4.527-.64-8.794-2.085-13.31-2.715-1.688-.236-1.581.019-2.862 1.29 4.415 2.05 7.874 4.322 11.344 6.566 1.739.072 3.173.188 4.873.948 4.17 1.868 8.062 2.4 8.472 3.47 1.173 3.07 5.395 2.513 12.646 6.066.895.44-.767.792-1.491.634-2.467-.551-4.013-2.332-7.516-1.44 3.823 2.553 5.202 1.464 7.263 2.36 8.19 3.548.441 3.543-9.032.115-1.944-.704 2.153-.712-.787-2.677-1.51-1.01-4.445-1.222-6.332-4.267-.177-.286-2.848-1.053-3.4-1.202-3.942-1.1-4.81-.097-12.348-2.652-.956-.326-3.077-.65-1.464 1.45.297.386 1.074.79.337 1.057-1.98.746-1.602-.337-.694 1.19.538.858-1.324.663-2.712.945-.53.11.134.724 1.694 1.144 4.192 1.13 3.547 3.325 3.694 4.405.146 1.161 3.262 1.516 6.988 2.55 4.751 1.32 6.857-.138 11.85 1.769 6.368.946 5.554.951 6.437.479 2.659-1.422 4.434 1.01 11.653 3.464 2.094.713 1.366 1.785-.718 1.328-4.022-.883-3.32-.953-6.035-1.782-1.622-.494-.928-1.222-3.033-1.757-1.06.576-.145 1.173-12.417-1.602-2.221-.498-2.328-.325-4.135-.008 2.255 1.164 6.449 2.518 7.999 2.99 5.615 1.697 2.239 2.308 6.8 3.303 1.919.415 1.566-.36 1.638-2.36 2.238-.335 2.027.975 3.865 1.535 10.757 3.302 3.62 2.217 7.185 3.891 1.095.512 2.454.627 3.71.888 2.873.597 2.595.922 3.01 2.475-.111-.116 1.348.095 1.787-.049zm186.294.768c.729-1.153.192-1.704 2.918-1.442 3.057.296 9.682 2.016 7.209 3.596-.366.235-1.82.543-.881 1.078 5.916 3.427 6.524 3.615 5.97 3.94-.769.445-4.593-.778-6.202-1.699a15.646 15.646 0 00-2.614-1.158c-2.773-.929-5.151-2.063-7.46-3.12-.565-.699-.84-1.29-.318-1.781-1.512-.301 1.171.201 1.378.586zm-89.621-49.84l-.231-.095c.312-.244 1.227-1.325 3.093-.65 5.93 2.103 8.093 2.774 9.661 4.082 2.296 1.905 4.69 1.43 3.653 3.08-1.391 2.206-4.65.248-3.505 2.113.139.225.136.444-.009.627-.144.184-.424.324-.802.402a4.286 4.286 0 01-1.316.038 5.319 5.319 0 01-1.373-.34c-8.389-3.245-14.028-5.197-10.43-6.122 1.864-.479-.53-1.481-1.007-2.099-1.399-1.793 1.275-2.06 2.266-1.036zm20.633 75.843c1.267-1.977.322-2.48 8.577 1.053 1.923.817-.513 2.584-2.606 1.356-1.143-.67-2.259-1.104-3.945-1.08-1.228.04-2.004-.6-2.029-1.314l.003-.015zm14.562 4.822c.338-.935 8.398.937 8.522 2.493.141 2.044-9.102-.892-8.524-2.479l.002-.014zm53.299-33.604c-1.579-.473-2.92-1.145-3.8-1.905-.818-.636.918-.978 2.193-1.166 1.414-.201 4.831.788 3.618 1.84-1.136.96.083 1.165-2.014 1.245l.003-.014zm-100.669-52.13c.345-.002.901.324.783.408-2.181 1.605.071 2.358-2.277 1.993-3.396-.524-3.774-.534-3.304-1.314.732-1.212-.25-1.042 4.796-1.073l.002-.014zM140.03 17.28c.102-.85 4.096-.233 5.217 1.14.064.095.084.188.058.274-.026.086-.097.161-.207.22-2.945.898-5.143-1.019-5.068-1.634zm155.073 85.028c1.41.214 2.309.47 2.618.788 1.652 1.611-2.963 1.973-2.941 1.033.063-.624.217-1.222.325-1.832l-.002.011zm9.184 4.477c-.311-.502 2.479-.72 4.357.472 1.635 1.003-3.181 1.413-4.355-.484l-.002.012zm-80.636 4.577c-.334.441-5.767-1.118-5.113-2.278.299-.516 5.814 1.357 5.113 2.275v.003zm-25.106-11.204c-1.538.434-3.903-.929-3.206-1.36 1.174-.675 4.556.98 3.207 1.357l-.001.003zm-2.198-5.296c-1.045.177-2.914-.597-2.72-1.42.24-1.041 6.252.824 2.72 1.417v.003zm98.135 10.715c-2.337.035-3.419-1.484-2.367-1.27 1.83.372 2.969 1.26 2.368 1.267l-.001.003zM86.467 94.349c-1.205.266-1.555.53-2.344-.116-.084-.063-.135-.131-.148-.196-.012-.065.015-.125.078-.173a.614.614 0 01.281-.098c.12-.017.26-.016.402.003.605.166 1.186.36 1.731.58zm7.316 7.701c-.392-.004-.81.054-1.153-.028-1.026-.242-.167-.967.67-.516.265.142.33.358.484.541v.003zm108.619-.31c-.297.199-1.683-.421-.933-.492.429-.05 1.286.252.934.489l-.001.003zM73.453 59.2c-.27.083-.412.184-.553.165-3.168-.448-1.759-.815-1.092-.685a14.73 14.73 0 011.646.516v.003zm187.598 9.327c-.415.163-1.445-.21-.63-.336.285-.051.808.266.63.334v.002zM36.177 45.394c-1.084-.3-.02-.465.44-.221.053.037.083.079.085.117.003.04-.022.073-.071.098a.475.475 0 01-.201.038.91.91 0 01-.252-.035v.003zm229.302 35.3c.099-.051.236-.165.289-.152 1.863.498.071.65-.289.15v.002zM91.772 34.425l-.067-.161c.533.142.526.105.068.158v.003zm28.294-12.19c-1.447-.085-1.106-.1-1.41-.33 1.236-.129.851-.176 1.397.325l.013.006zm-3.628 7.244c-.455.153-.259.176-.756-.092.432-.145.277-.164.756.09v.002z" fill="#fff"/><path d="M507.425 96.399l.023.007h-.279c-.391.192-.796.434-1.102.465-.356.035-.935-.216-1.47-.341.312-.09.624-.25.936-.25a24.03 24.03 0 011.748.072 16.666 16.666 0 00-3.125-.631 21.869 21.869 0 00-3.7-.089c-2.709.04-5.42-.064-8.062-.31-1.069-.108-1.87-.68-3.073-1.147-.445 0-.401 1.092-1.826.464-.632-.454-1.097-.943-1.38-1.45 4.455-.785 8.908-.156 13.095-.243 4.187-.086 8.552.113 12.873.009 4.205.029 8.401.169 12.56.42.703-.192 1.187-.488 1.346-.824.159-.335-.02-.683-.498-.966l-2.494-1.558c-4.454-.003-8.908.137-13.362.08-1.96-.001-2.628.536-4.143.946l-2.226-1.218c-2.583-.414-5.702-.004-8.908-.865 1.158-.214 1.648-.393 2.138-.393 3.85.152 7.732.089 11.537-.189a4.94 4.94 0 011.336 0c1.08.242 2.28.383 3.513.415.463.012.223-.263.068-.52-.397-.293.749-.585-2.819-.677-2.717-.144 8.237-1.538 5.564-1.719-2.207-.19-4.437-.334-6.681-.434-3.607-.11-7.26-.112-10.868-.186-3.828.158-7.686-.163-11.045-.92l-2.629 1.198c-2.316-.092-4.721-.254-7.171-.256-1.645.066-3.304-.054-4.791-.346-1.486-.292-2.742-.744-3.626-1.306.59-.297 1.4-.51 2.313-.61a10.82 10.82 0 012.765.058c6.591.882 12.828-.152 19.331-.273-.534-.752-1.826-.7-2.895-.718-5.025-.069-9.909-.691-14.118-1.8-.521-.188-1.174-.307-1.871-.34-5.211.175-8.15-1.563-13.36-2.3 1.425-.322 2.049-.59 2.806-.625 2.673-.141 5.434-.14 8.107-.281a129.17 129.17 0 005.568-.605l-1.157-1.701-7.126-.578c2.005-1.037 5.167-.64 6.637-1.445-1.023-1.79-4.453-2.026-7.971-2.153-1.158-.753-1.336-1.361.001-1.79 1.336-.429 2.272-.553 1.649-1.27 0-.215.713-.626 1.336-.84 1.693-.59 3.475-1.126 5.525-1.787 1.48.068 2.974.07 4.454.003 1.537-.18 3.029-.42 4.454-.713l-.889-1.146c2.066-.434 4.402-.619 6.725-.532 1.37.06 2.752-.053 3.956-.321 1.205-.269 2.172-.68 2.771-1.178.646-.533 1.674-.976 2.952-1.272 1.279-.296 2.749-.431 4.221-.388a631.75 631.75 0 0128.551-.5c7.23.273 14.518.133 21.647-.416 2.406-.267 5.122.916 7.75.273 2.511-.431 5.257-.596 7.974-.478a16.513 16.513 0 013.875.29 8.39 8.39 0 001.893.207 8.4 8.4 0 001.893-.205c3.613-.549 7.557-.646 11.313-.28 2 .098 4.028.007 5.924-.264a23.796 23.796 0 013.988-.28 23.11 23.11 0 013.941.375 8.05 8.05 0 002.539.11c3.405-.52 7.058-.726 10.69-.602 6.103-.999 12.516.008 18.752-.382a22.472 22.472 0 013.252.217c.579 0 1.425.252 1.692.162 3.431-1.304 7.528-.478 11.314-.583 2.506-.13 4.99-.32 7.439-.568a397.252 397.252 0 01-6.013-1.15 4.779 4.779 0 00-.911-.159 5.933 5.933 0 00-.993.002 4.72 4.72 0 00-.906.163c-.27.08-.496.18-.664.297-.803.3-1.844.476-2.94.499-2.884.215-5.862.101-8.596-.328l.713-1.199c-2.761-.342-3.653 1.161-6.548.64a43.229 43.229 0 00-6.681-.004c-.58.948-1.738 1.52-4.455 1.518-8.597-.005-17.238-.01-25.834.127-3.653-.003-7.261.174-10.913.225-.964.035-1.935-.02-2.839-.16-.903-.141-1.715-.363-2.372-.649a3.832 3.832 0 00-.824-.086 3.86 3.86 0 00-.824.085c-.745.281-1.65.485-2.636.593-.985.109-2.023.12-3.021.03-7.706-.13-15.411-.297-23.117-.409l-10.245-.007-10.69-.114c2.674-.893 5.791.004 8.152-.872-8.685-.614-17.371-.1-26.724-.894 1.292-.393 1.96-.787 2.762-.84 2.895-.195 5.88-.264 8.909-.423 1.995-.115 3.973-.275 5.924-.48 2.389-.287 4.959-.209 7.216.22.745.187 1.579.31 2.449.36 2.628.108 5.078-.48 7.973.004 2.41.257 4.917.331 7.394.22l8.195.005c5.835.112 11.715.312 17.55.441 1.519.105 3.08.038 4.51-.191 1.431-.23 2.675-.614 3.597-1.11 1.798.538 3.86.916 6.049 1.109 2.188.193 4.454.196 6.644.01 6.147-.301 12.249.007 18.352-.186 4.454-.122 8.908-.28 13.362-.385 6.014-.139 12.071.151 18.084-.131a79.978 79.978 0 004.722-.194 32.31 32.31 0 015.612-.473c1.933 0 3.845.165 5.612.48 1.131.229 2.983.013 4.355-.146l.1-.011c2.81-.382 5.875-.329 8.596.148 1.241.207 2.634.208 3.875.003 4.276-.618 8.83-.865 13.363-.725.9-.03 1.801.053 2.583.234a7.876 7.876 0 001.883.295 9.074 9.074 0 001.992-.131 48.378 48.378 0 019.399-.173c3.385.127 6.814.004 10.199.096l1.381.001a299 299 0 0013.363.009c5.124.108 10.26.063 15.367-.133a9.626 9.626 0 011.915 0c1.262.215 2.625.316 3.993.299a21.592 21.592 0 003.935-.4c.802-.107 2.094-.267 2.539-.124 2.761.969 5.167-.122 7.483-.174.637.1 1.209.256 1.671.457.463.202.804.444.997.707.194.263.235.54.119.81-.115.27-.383.526-.784.748-2.316.088-4.766.623-6.993-.577-.757-.413-2.895-.521-4.453-.522-2.94-.002-5.88.139-8.909.209l-2.362 1.34c.312.18.49.412.802.448 3.296.253 6.591.47 9.887.687h.001c2.783.133 5.601-.064 8.107-.567 1.583-.36 3.454-.455 5.211-.265 1.459.248 3.026.377 4.61.378a27.809 27.809 0 004.61-.372c3.831.378 7.617-.335 11.447.007a59.09 59.09 0 004.455.003c.668 0 1.425-.178 2.004-.088 6.948.9 13.897-.224 20.801.014a96.87 96.87 0 016.102.218c3.078.33 6.287.41 9.442.24 3.787-.177 7.572.13 11.403.007 7.483-.139 14.966.117 22.271.247 3.691.192 7.414.273 11.135.24 7.153-.21 14.341-.152 21.469.175h.801c7.483-.084 14.967-.312 22.271-.235a301.38 301.38 0 0017.55-.311c1.138.016 2.265.101 3.34.253 1.078.142 2.208.21 3.341.199a93.178 93.178 0 0111.402-.028h.001c1.781 0 3.607.002 5.389.11 2.245.117 4.507.173 6.77.166a206.69 206.69 0 0117.015.387c4.435.205 8.896.28 13.366.224 4.52-.099 9.04.135 13.36.688 2.79.373 5.65.656 8.55.847 1.09-.017 2.18-.076 3.25-.176 2.54.001 5.3-.373 6.9 1.007.72.59 2.99.431 4.19.002.73-.35 1.73-.594 2.84-.696 1.11-.103 2.27-.058 3.31.127 0 0 .27.162 0 .197-.27.036-1.07.537-1.74.876.33.403.71.798 1.16 1.182 3.38 2.49 6.01 2.904 12.78 1.96.62-.09 1.11-.358 2.54-.84-1.03 1.055-1.52 1.789-2.23 2.325-.71.537-2.67.804-4.85.158a44.078 44.078 0 00-4.15-.718c.98 1.79-1.42 3.042 0 4.528.4.448-.4 1.074-.67 1.61-.78.746-1.01 1.566-.67 2.363.31.358-.53.84-.71 1.288-.36.966-2.05 1.789-1.65 2.845 0 .322-1.07.715-1.65 1.073l4.01.772c.35.716-.98.519-1.61.68-1.38.356-.35.787 0 1.18v.233c-3.38.32-4.81 2.002-8.91 1.927-.58.59-1.2 1.163-1.78 1.79l6.64 2.116-3.4.926c3.06.058 3.81.687 6.82.88 2.97.085-8.04 2.75-5.08 2.667 1.74.002 3.57-.23 5.08.415 0 .645-1.65.411-2.49.625-1.03.181-2.02.402-2.94.66-.76.322-1.21.716-2.54.804-.98.114-1.94.264-2.85.446 1.15 1.468 4.9.54 6.59 1.615l.4.609c.14.127.19.264.17.402-.02.138-.13.27-.31.388s-.43.216-.72.287c-.29.071-.63.113-.97.121-1.56.089-3.15.088-4.72-.003a98.065 98.065 0 00-16.21-.01 70.59 70.59 0 01-6.73-.005c-4.05.087-8.06.245-12.07.422-6.307.371-12.73.294-18.974-.228-.874-.099-1.798-.1-2.672-.001-3.828.576-7.997.686-11.982.314-2.717-.252-2.762-.127-5.301 1.052-3.697-.986-3.697-.915-8.552-.793-4.855.122-9.488.692-14.12-.17-6.547.336-13.094-.617-19.687-.013a16.97 16.97 0 01-2.672.141 327.798 327.798 0 00-25.166-.123h-.005c-8.64-.006-17.234-.012-25.874-.25a121.86 121.86 0 01-7.705-.524c-2.228 1-5.211.283-7.75.585a15.29 15.29 0 01-3.252-.002 125.906 125.906 0 00-20.177-.604c-5.648.176-11.322.172-16.97-.01-3.85-.056-7.705-.005-11.537.153l-8.908-.006c-14.966.115-29.976.105-44.942.4-10.423.208-20.801-.121-31.179-.128-10.378-.007-20.935.076-31.179-.253a618.669 618.669 0 00-30.511.123c-7.172.12-14.343.08-21.469.13l-7.483-.006-7.439-.004-2.049-.002a55.059 55.059 0 01-7.839-.005 45.402 45.402 0 00-7.928-.166 96.977 96.977 0 01-5.969-.362c-1.069 0-2.672-.127-3.207.105-3.207 1.394-7.26.8-10.913.78-5.389-.003-10.823-.31-16.213-.53-3.83-.163-7.527.246-11.402.136-5.39-.128-10.824-.007-16.213-.296-2.316-.002-5.078-.344-6.771.747h-.891c-2.449-.951-4.008-.003-6.013.46-1.247-.716-3.83-.754-4.988-1.631a4.736 4.736 0 00-1.055-.296 7.324 7.324 0 00-1.261-.1c-2.126-.001-4.253-.002-6.418.105l-.012.005-.007.004z" fill="#fff"/><path d="M921.266 52.675a29.08 29.08 0 01-6.012.128l-.089.036-.044-.03c-.376-.25-.616-.411-.401-.704-1.157-.842-2.538-.86-3.518-.647-.98.215-1.738.626-2.762.732a10.719 10.719 0 01-3.163-.091c-1.406-.405-3.067-.643-4.793-.685-1.726-.042-3.446.112-4.961.446-2.643.676-5.811.941-8.909.746a231.152 231.152 0 00-14.075-.153c-3.162-.002-6.369.175-9.487-.006-10.556-.616-21.202.2-31.669-.63a47.411 47.411 0 00-4.766-.002c-2.94.202-5.927.278-8.908.226-6.37-.344-12.694-.115-19.019-.227a99.66 99.66 0 01-10.824-.276 21.973 21.973 0 00-3.72-.012c-1.228.1-2.389.305-3.407.598-.623.161-.802.59-1.159.895l4.454 1.578a97.489 97.489 0 017.394-.64c2.68.046 5.346.18 7.973.4a38.88 38.88 0 002.049 0l21.781-.075c4.097.003 8.195.024 12.248.116 2.495.073 3.564-.57 4.723-1.322 1.474.086 2.964.123 4.454.11 2.539-.087 2.137 1.058 3.963 1.364l21.78.39a11.028 11.028 0 012.095-.965c1.336-.358 2.672-.643 3.741.306.389.208.894.376 1.474.492a9.56 9.56 0 001.866.173c1.069 0 2.138-.464 2.673-.59a39.74 39.74 0 004.454.648c3.83.092 7.661.095 11.536.097l7.483.005 7.884.005c.275-.192.499-.396.668-.608.089-.358-.222-.716 1.337-.786 1.559-.071 1.069.394 1.558.645.63.35 1.572.587 2.628.664 3.168.014 6.336-.044 9.487-.173a8.799 8.799 0 001.525-.161 5.32 5.32 0 001.237-.392c.185-.162.463-.303.81-.414a5.43 5.43 0 011.191-.22 6.893 6.893 0 011.31.021c.426.049.818.137 1.144.258.803.384 1.865.667 3.059.814 1.193.147 2.467.151 3.666.014a46.318 46.318 0 018.507.113c5.904.319 11.868.418 17.817.298 1.069-.447 1.648-.912 2.495-1 2.049-.25 1.246.752 2.805 1.11l4.454.004c3.029-.016 6.28.236 8.909-.854.535-.196 2.806-.195 3.118.002 1.781 1.13 3.563.092 5.345.093.846.287 2.182.825 2.494.825 2.181-.517 3.781.2 5.611.29 3.37.193 6.76.315 10.16.365 4.98.021 9.97-.19 14.96-.187 3.15.153 6.34.027 9.36-.37 1.02-.214 2.89.163 4.45.254l5.26.254c-2.17-.827-4.96-1.34-7.93-1.455 1.78-.232 3.16-.464 2.09-1.18a128.92 128.92 0 00-6.54-.703c-7.44-.434-14.84-.797-22.27-1.16-2.22-.219-4.55-.139-6.64.229-.72.146-1.54.2-2.34.15-.79-.048-1.54-.196-2.12-.422-2.18-.717-4.494-1.095-6.989-.004a6.66 6.66 0 01-1.215.21 8.254 8.254 0 01-1.324.003 164.274 164.274 0 01-8.017-.525c-3.696-.342-3.919-.36-8.152.962.668 1.128 3.831.11 4.9.88-1.382.965-3.208.177-4.811.176a90.785 90.785 0 01-5.434.157c-1.782 0-3.563-.127-5.078-.128-.935-.395-1.558-.646-2.137-.932l-.046-.024c-2.136-1.088-2.162-1.101-5.789-.482-1.069.179-1.648.143-2.271-.18a1.883 1.883 0 00-.541-.262 3.927 3.927 0 00-.751-.158 5.235 5.235 0 00-.843-.028 4.76 4.76 0 00-.805.106c-.864.391-1.53.847-1.961 1.341a23.209 23.209 0 01-3.964.23 71.088 71.088 0 00-10.69-.007c-2.004-.001-4.098-.092-6.102-.004-2.806.16-1.87-1.505-4.854-1.381-1.388.6-3.138 1.046-5.08 1.296zm79.164 54.83c2.67-.213 2.98-.141 6.85.899l-9.527-.006c1.426-.482 1.96-.894 2.677-.893zm-28.951-6.856c.977-.26 2.023-.475 3.118-.643l-.089.036a13.656 13.656 0 012.899.014c.946.108 1.806.314 2.49.598a21.867 21.867 0 01-4.209.393 21.844 21.844 0 01-4.209-.398zm-16.881-.584c.49.036.89.448 1.692.896l-5.167.193c.268-1.27 2.005-1.18 3.475-1.089zm-86.944-1.113l.053.007c2.585-.505 4.076.016 5.826.14-1.857.425-3.494.162-5.826-.14l-.143.028.09-.035zm97.413 2.381c-.222.02-.453.017-.671-.009l-.089.036c-.49-.036-.891-.305-1.47-.592.758-.196 1.203-.447 1.738-.428.534.018 1.514.215 1.514.377.039.09.021.182-.053.268a.89.89 0 01-.372.225c-.17.061-.375.103-.597.123zm-233.01-50.959l6.102-.193-.089.036c-.77.324-1.815.52-2.929.55-1.113.029-2.214-.111-3.084-.393zm-254.714 38.37c-1.693.357-1.558-.306-2.182-.557l-.044-.035 2.226.592zm182.824-38.345l2.984-.213-.045.501-2.94-.002.001-.286zm328.104 50.368c-.357.071-.758.178-1.069.178a18.447 18.447 0 01-2.138-.341 36.587 36.587 0 012.494-.124c.267.018 1.069.216.713.287zm30.159-2.254c.09-.107.49 0 .49 0l-.23.215h-.58a.74.74 0 01.32-.215zM511.679 97.34h-.534l-.179-.072a.528.528 0 01-.133-.126 2.96 2.96 0 01.535 0c.311.019.489.198.311.198zm177.217-46.958v.197l-.891-.18v-.215l.891.198zM500.905 90.37l-.001.322-.623-.125c0-.072-.178-.197 0-.197h.624z" fill="#fff"/><path d="M473.602 88.258l1.604.001.044.018-1.604.124h-.579c.179-.143.535-.143.535-.143zm533.238 12.969l-.57.089.04-.09.53.001zm-66.318-.527s-.14.048-.233.096c-.023.139-.079.318-.079.262v-.197c0-.018.034-.041.079-.065a.656.656 0 00.011-.096h.222zm-361.632-.882l.001-.179a4.12 4.12 0 01.534.019c0 .053.178.16 0 .16s-.535.072-.535 0zm130.062-.398l.223-.16c.222-.018.356-.09.356-.018v.179a7.166 7.166 0 01-.579 0zm196.918-.515v.197a2.841 2.841 0 01-.534-.054c0-.054-.178-.143 0-.143s.534-.054.534 0zm-22.36-.211c.045-.018.357.16.357.16l-.891.233-.357-.18c.287-.077.585-.149.891-.213zm-309.118.208l-.445-.16.446-.09h.579c-.17.092-.364.176-.58.25zm-25.788-.84c.133.161.4.305.4.448 0 .054-.49.179-.49.179a4.288 4.288 0 01-.445-.466c0-.036.401-.322.535-.16zm488.936-.109c-.37.084-.76.15-1.16.197-.14 0-.49-.18-.49-.18.38-.08.78-.146 1.2-.196.09-.018.45.18.45.18zM751.076 50.637v-.125l.4.126h-.4zM510.97 91.11c-.178-.017-.445-.143-.445-.143l.535-.09.4.144a2.94 2.94 0 01-.49.09zm-21.69-2.144l.155-.02a11.99 11.99 0 01-.467-.195c.344-.058.702-.1 1.07-.124.311 0 .311.197.311.197l-.914.122c.034.013.059.02.068.02h-.223z" fill="#fff"/></svg>