<svg width="24" height="24" viewBox="0 0 24 24" fill="none" xmlns="http://www.w3.org/2000/svg">
<path d="M6.0375 10.4625C5.85019 10.2735 5.74562 10.0179 5.74679 9.75183C5.74796 9.48576 5.85478 9.23106 6.04375 9.04375C6.23272 8.85644 6.48835 8.75187 6.75442 8.75304C7.02049 8.75421 7.27519 8.86103 7.4625 9.05L11 12.5875V1C11 0.734784 11.1054 0.48043 11.2929 0.292893C11.4804 0.105357 11.7348 0 12 0C12.2652 0 12.5196 0.105357 12.7071 0.292893C12.8946 0.48043 13 0.734784 13 1V12.5875L16.5375 9.05C16.6302 8.95643 16.7405 8.88205 16.862 8.8311C16.9835 8.78015 17.1138 8.75362 17.2456 8.75304C17.3773 8.75246 17.5079 8.77784 17.6298 8.82772C17.7518 8.8776 17.8627 8.951 17.9562 9.04375C18.0498 9.1365 18.1242 9.24676 18.1752 9.36826C18.2261 9.48975 18.2526 9.62009 18.2532 9.75183C18.2538 9.88357 18.2284 10.0141 18.1785 10.1361C18.1287 10.258 18.0552 10.3689 17.9625 10.4625L12.7125 15.7125C12.5214 15.8973 12.2659 16.0006 12 16.0006C11.7341 16.0006 11.4786 15.8973 11.2875 15.7125L6.0375 10.4625ZM23 14C22.7348 14 22.4804 14.1054 22.2929 14.2929C22.1054 14.4804 22 14.7348 22 15V22H2V15C2 14.7348 1.89464 14.4804 1.70711 14.2929C1.51957 14.1054 1.26522 14 1 14C0.734784 14 0.48043 14.1054 0.292893 14.2929C0.105357 14.4804 0 14.7348 0 15V22C0 22.5304 0.210714 23.0391 0.585786 23.4142C0.960859 23.7893 1.46957 24 2 24H22C22.5304 24 23.0391 23.7893 23.4142 23.4142C23.7893 23.0391 24 22.5304 24 22V15C24 14.7348 23.8946 14.4804 23.7071 14.2929C23.5196 14.1054 23.2652 14 23 14Z" fill="white"/>
</svg>
