<svg width="19" height="20" viewBox="0 0 19 20" fill="none" xmlns="http://www.w3.org/2000/svg">
<path d="M13.5014 11.875C12.3482 11.875 11.7938 12.5 9.90137 12.5C8.00896 12.5 7.45851 11.875 6.30137 11.875C3.32012 11.875 0.901367 14.2266 0.901367 17.125V18.125C0.901367 19.1602 1.76521 20 2.82994 20H16.9728C18.0375 20 18.9014 19.1602 18.9014 18.125V17.125C18.9014 14.2266 16.4826 11.875 13.5014 11.875ZM16.9728 18.125H2.82994V17.125C2.82994 15.2656 4.38887 13.75 6.30137 13.75C6.88797 13.75 7.84021 14.375 9.90137 14.375C11.9786 14.375 12.9107 13.75 13.5014 13.75C15.4139 13.75 16.9728 15.2656 16.9728 17.125V18.125ZM9.90137 11.25C13.0956 11.25 15.6871 8.73047 15.6871 5.625C15.6871 2.51953 13.0956 0 9.90137 0C6.70717 0 4.11565 2.51953 4.11565 5.625C4.11565 8.73047 6.70717 11.25 9.90137 11.25ZM9.90137 1.875C12.0268 1.875 13.7585 3.55859 13.7585 5.625C13.7585 7.69141 12.0268 9.375 9.90137 9.375C7.77592 9.375 6.04422 7.69141 6.04422 5.625C6.04422 3.55859 7.77592 1.875 9.90137 1.875Z" fill="white"/>
</svg>
