<svg width="24" height="24" viewBox="0 0 24 24" fill="none" xmlns="http://www.w3.org/2000/svg">
<g clip-path="url(#clip0_100_2297)">
<path d="M20.8891 2.32554C17.8571 4.94969 15.2919 7.44771 12.9433 10.7069C11.9076 12.1444 10.7558 13.8363 10.0029 15.4337C9.57312 16.2808 8.79831 17.6044 8.53417 18.8769C7.08948 17.5329 5.5377 16.0073 3.94998 14.8124C2.81831 13.961 -0.441223 15.6968 0.885589 16.6951C3.26357 18.4838 5.24121 20.7115 7.55415 22.5799C8.52159 23.3605 10.6656 21.6653 11.1695 20.9541C12.8233 18.611 13.0494 15.7468 14.2547 13.1909C16.0951 9.28196 19.3589 6.07094 22.5814 3.28255C24.7165 1.29126 22.5113 0.923976 20.8924 2.32554" fill="#136FB6"/>
</g>
<defs>
<clipPath id="clip0_100_2297">
<rect width="23" height="23" fill="white" transform="translate(0.5 0.5)"/>
</clipPath>
</defs>
</svg>
