<svg width="20" height="20" viewBox="0 0 20 20" fill="none" xmlns="http://www.w3.org/2000/svg">
<path d="M4.16699 5.83301H15.6587C15.8915 5.83302 16.1218 5.88182 16.3346 5.97626C16.5474 6.07071 16.7381 6.2087 16.8944 6.38135C17.0506 6.554 17.1689 6.75748 17.2417 6.97866C17.3145 7.19983 17.3402 7.43381 17.317 7.66551L16.817 12.6655C16.7759 13.0768 16.5834 13.4581 16.277 13.7354C15.9705 14.0127 15.572 14.1663 15.1587 14.1663H7.20033C6.81489 14.1665 6.44131 14.033 6.1432 13.7887C5.84509 13.5444 5.64087 13.2043 5.56533 12.8263L4.16699 5.83301Z" stroke="#136FB6" stroke-width="2" stroke-linejoin="round"/>
<path d="M4.16699 5.83333L3.49199 3.13083C3.44685 2.95063 3.34279 2.79067 3.19633 2.67638C3.04988 2.56209 2.86943 2.5 2.68366 2.5H1.66699" stroke="#136FB6" stroke-width="2" stroke-linecap="round" stroke-linejoin="round"/>
<path d="M6.66699 17.5H8.33366" stroke="#136FB6" stroke-width="2" stroke-linecap="round" stroke-linejoin="round"/>
<path d="M13.334 17.5H15.0007" stroke="#136FB6" stroke-width="2" stroke-linecap="round" stroke-linejoin="round"/>
</svg>
